<svg width="44" height="44" viewBox="0 0 44 44" fill="none" xmlns="http://www.w3.org/2000/svg">
<path d="M43.9267 21.9669C43.9267 34.0958 34.0943 43.9283 21.9653 43.9283C9.83636 43.9283 0.00390625 34.0958 0.00390625 21.9669C0.00390625 9.83794 9.83636 0.00546265 21.9653 0.00546265C34.0943 0.00546265 43.9267 9.83794 43.9267 21.9669Z" fill="#DD3822"/>
<path fill-rule="evenodd" clip-rule="evenodd" d="M5.28125 29.0591V17.5344C5.28125 15.8822 6.73191 14.5525 8.38405 14.5525H13.6226V17.615H9.91531C9.35116 17.615 8.9482 18.0179 8.9482 18.5821V20.1133H13.6226V23.1758H8.9482V29.0591H5.28125Z" fill="white"/>
<path fill-rule="evenodd" clip-rule="evenodd" d="M14.5508 14.5525H18.258V29.0591H14.5508V14.5525Z" fill="white"/>
<path fill-rule="evenodd" clip-rule="evenodd" d="M19.1836 29.0591V14.5525H22.8908V25.3518L26.9205 14.5525H38.6466V17.615H34.0126V20.1133H38.3646V23.2161H34.0126V25.6742H38.6466V29.0591H30.3053V15.8419L25.3892 29.0591H19.1836Z" fill="white"/>
</svg>
