<svg width="386" height="348" viewBox="0 0 386 348" fill="none" xmlns="http://www.w3.org/2000/svg">
<path d="M258.715 254.086L164.714 229.541C131.261 237.723 62.2664 254.086 53.9106 254.086C45.5548 254.086 -40.6961 283.782 -82.7771 298.631C-60.2228 272.116 -11.4815 217.723 3.05014 212.269C17.5817 206.814 68.1396 209.996 91.602 212.269C39.9846 198.936 -64.5218 172.269 -69.6078 172.269C-74.6939 172.269 -80.5065 159.239 -82.7771 152.724L-135 124.089C-111.992 117.574 -63.6135 104.543 -54.168 104.543C-42.3611 104.543 26.664 145.906 35.7462 152.724C43.012 158.179 68.1396 175.603 79.7951 183.633L152.907 212.269L47.553 82.2711C47.0989 67.1199 47.7347 32.363 53.9106 14.5452C104.771 49.999 130.656 105.453 155.178 152.724C155.178 109.998 183.787 94.0891 194.231 84.9984C202.587 77.7258 248.271 25.3025 270.068 0V84.9984C270.068 97.7254 212.547 170.906 183.787 205.905C186.511 202.875 198.409 196.542 224.203 195.451C256.445 194.087 302.31 221.359 310.03 229.541C317.75 237.723 389.5 337.721 385.867 346.812C382.96 354.084 334.098 326.206 310.03 311.358L258.715 254.086Z" fill="#155F3B"/>
</svg>
