<svg width="154" height="156" viewBox="0 0 154 156" fill="none" xmlns="http://www.w3.org/2000/svg">
<path d="M32.8985 99.5006C32.8985 93.7496 32.8985 83.4557 38.9009 73.1082C41.5419 68.5553 45.8291 60.7314 51.1458 55.4091C62.1903 44.3528 90.2817 48.6995 115.252 55.4091C140.222 62.1187 170.234 92.7911 143.583 125.141C116.932 157.491 96.044 160.127 64.3512 149.343C32.6584 138.56 32.8985 105.252 32.8985 99.5006Z" fill="#FFE816"/>
<path d="M55.2979 39.9V76.3L45.1492 67.55C38.2659 57.9833 28.1967 45.7436 26.2479 39.9C23.7967 32.55 19.9473 9.8 30.7979 0C48.2979 8.75 55.2979 31.78 55.2979 39.9Z" fill="#62A0F9"/>
<path d="M29.9925 73.4765C35.6849 73.9703 48.1159 74.0179 54.25 74.55L55.3 76.3L48.7305 82.6011C41.586 87.0676 32.3648 93.708 28.1443 94.7819C22.8357 96.1326 6.64216 97.5722 0.462317 89.0184C7.70978 76.716 24.3 72.9827 29.9925 73.4765Z" fill="#62A0F9"/>
</svg>
