<svg width="148" height="152" viewBox="0 0 148 152" fill="none" xmlns="http://www.w3.org/2000/svg">
<path d="M76.2967 132.927C84.0745 133.122 93.7966 127.823 97.6854 125.149L95.7413 122.719C89.827 120.612 77.8039 116.4 77.0262 116.4C76.2484 116.4 69.7346 117.129 68.0338 119.316C67.5474 123.772 68.519 132.733 76.2967 132.927Z" fill="#0B8B41"/>
<path fill-rule="evenodd" clip-rule="evenodd" d="M121.368 140.36C121.228 140.613 120.871 140.68 120.57 140.509C77.0413 115.754 45.0153 75.4537 30.4522 28.2869C30.3537 27.9661 30.4936 27.6351 30.7728 27.5505C31.0468 27.4639 31.3501 27.6593 31.4486 27.9801C45.9369 74.8894 77.7917 114.98 121.089 139.603C121.385 139.771 121.513 140.109 121.368 140.36Z" fill="#0B8B41"/>
<path d="M24.0385 51.5043C26.9552 52.0876 35.3 51.2612 39.1079 50.7751L36.6773 44.9418L27.6843 35.4627C25.0108 34.0044 19.0802 31.1364 16.7469 31.3308C14.4136 31.5253 12.696 37.2451 12.1289 40.0808C14.8835 43.6455 21.1219 50.9209 24.0385 51.5043Z" fill="#0B8B41"/>
<path d="M104.248 103.761C110.276 109.983 106.76 123.772 104.248 129.524L97.4427 123.934L95.3359 119.896C94.8023 118.874 94.4962 117.747 94.4386 116.595L93.7969 103.761C94.7691 101.168 98.2205 97.5386 104.248 103.761Z" fill="#0B8B41"/>
<path d="M86.0185 90.3928C86.6019 95.8372 81.8866 104.976 79.4561 108.865L72.8936 98.4135L70.9492 87.9622C71.5163 85.0456 73.5742 79.2609 77.2686 79.4553C81.8866 79.6984 85.2894 83.5873 86.0185 90.3928Z" fill="#0B8B41"/>
<path d="M68.2746 107.407C69.8301 107.212 72.8927 104.166 73.8649 102.788L71.6774 100.358C66.4113 97.6844 55.0039 92.2886 51.5039 92.0941C47.1288 91.8511 44.9414 95.0108 44.4553 97.9274C44.0664 100.261 48.9923 104.895 51.5039 106.92C56.446 107.163 66.719 107.601 68.2746 107.407Z" fill="#0B8B41"/>
<path d="M69.4908 68.2949C69.4908 69.2671 64.0626 81.5619 60.4978 86.0179L55.6367 79.7184V68.2949C55.6367 62.9477 58.7964 54.4408 63.6575 54.9269C68.5186 55.413 69.4908 67.0796 69.4908 68.2949Z" fill="#0B8B41"/>
<path d="M39.8384 81.1567C43.3384 81.5456 51.343 79.5364 54.6647 78.4831L52.7203 74.5943L46.4009 69.004C41.5398 66.4115 31.2343 62.9763 28.901 63.1707C25.9844 63.4138 25.9844 70.4624 25.9844 72.6498C25.9844 74.8373 35.4635 80.6706 39.8384 81.1567Z" fill="#0B8B41"/>
<path d="M54.18 46.6432L44.4579 61.2264L39.8398 52.4765V45.671C40.65 42.0252 42.4648 34.296 43.2426 32.5461C44.2148 30.3586 50.7773 29.8725 54.18 31.3308C56.9022 32.4974 55.3143 42.0252 54.18 46.6432Z" fill="#0B8B41"/>
<path d="M35.7086 18.935C35.7086 21.4628 33.1161 26.9558 31.8198 29.3863V30.8447L27.2018 27.928C24.8522 24.4442 19.9101 17.0878 18.9379 15.5323C17.9657 13.9767 17.7227 7.75455 17.7227 4.83791C20.2342 2.81246 25.9865 -0.946772 28.9031 0.219886C32.5489 1.67821 35.7086 15.7753 35.7086 18.935Z" fill="#0B8B41"/>
</svg>
