<svg width="562" height="533" viewBox="0 0 562 533" fill="none" xmlns="http://www.w3.org/2000/svg">
<path d="M277.631 373.532C268.732 382.888 251.105 388.079 243.403 389.505L242.833 384.371C247.301 374.959 256.467 355.905 257.38 354.992C258.292 354.08 266.792 347.291 271.355 347.862C277.155 352.521 286.531 364.176 277.631 373.532Z" fill="#004E3B"/>
<path fill-rule="evenodd" clip-rule="evenodd" d="M233.462 435.147C233.923 435.279 234.42 434.939 234.573 434.386C256.605 354.253 246.894 269.374 208.633 196.932C208.372 196.44 207.819 196.215 207.392 196.444C206.969 196.664 206.842 197.249 207.103 197.741C245.151 269.793 254.815 354.224 232.9 433.931C232.751 434.476 232.998 435.023 233.462 435.147Z" fill="#004E3B"/>
<path d="M243.402 216.655C240.664 220.762 229.901 229.585 224.862 233.483L220.869 223.785L220.298 202.108C221.725 197.259 225.319 186.933 228.285 184.423C231.251 181.913 239.98 186.61 243.973 189.272C244.924 196.688 246.141 212.547 243.402 216.655Z" fill="#004E3B"/>
<path d="M210.603 372.107C210.831 386.482 231.139 398.538 240.837 402.341L242.264 387.795L239.651 379.482C239.305 378.381 238.725 377.368 237.951 376.513L222.868 359.842C218.684 357.94 210.375 357.731 210.603 372.107Z" fill="#004E3B"/>
<path d="M216.305 335.026C222.01 342.1 238.268 347.291 245.684 349.003L241.12 329.036L231.137 314.49C227.049 311.732 217.845 307.359 213.738 311.922C208.604 317.627 209.174 326.184 216.305 335.026Z" fill="#004E3B"/>
<path d="M257.093 334.171C255.039 335.768 247.87 335.787 245.113 335.312L244.828 329.892C247.87 320.575 254.925 300.855 258.804 296.52C263.653 291.1 269.928 292.241 273.922 295.094C277.116 297.375 276.774 308.595 276.203 313.919C270.689 320.004 259.146 332.573 257.093 334.171Z" fill="#004E3B"/>
<path d="M209.769 289.698C210.91 290.839 231.709 298.897 241.122 299.943L239.434 286.845L226.028 273.439C219.753 267.164 206.061 260.889 200.927 267.164C195.793 273.439 208.343 288.272 209.769 289.698Z" fill="#004E3B"/>
<path d="M259.661 269.993C256.01 274.557 244.258 281.593 239.124 284.255L236.842 277.409L237.698 263.433C240.36 254.686 248.423 238.56 251.389 236.05C255.097 232.913 263.369 241.185 265.936 243.752C268.503 246.319 264.225 264.289 259.661 269.993Z" fill="#004E3B"/>
<path d="M202.33 246.319L230.853 252.024L226.004 236.336L218.018 228.349C212.789 225.021 201.589 218.081 198.622 216.94C194.914 215.514 186.642 222.644 184.36 228.349C182.535 232.913 195.58 242.231 202.33 246.319Z" fill="#004E3B"/>
<path d="M191.491 192.125C194.457 195.091 203.946 198.495 208.319 199.826L210.031 201.537L212.027 192.695C210.696 185.849 207.863 171.417 207.179 168.45C206.494 165.484 199.477 157.897 196.054 154.474C190.73 155.044 179.568 157.383 177.514 162.175C174.947 168.165 187.783 188.416 191.491 192.125Z" fill="#004E3B"/>
<path fill-rule="evenodd" clip-rule="evenodd" d="M262.62 4.11203C400.072 137.263 504.035 301.035 566.025 482.035C565.921 482.404 515.648 490.354 463.886 459.685C480.37 441.997 495.896 419.059 496.243 418.482C481.247 432.19 463.828 443.497 450.714 451.193C426.449 434.047 402.542 408.352 380.378 368.741C379.997 368.049 379.593 367.334 379.189 366.607C397.901 348.33 418.796 316.623 418.715 316.554C402.888 331.45 384.234 343.83 371.097 351.838C366.364 343.08 360.927 332.961 354.993 321.966C375.437 306.078 393.319 270.886 393.192 270.782C375.576 280.694 353.066 284.732 335.888 286.751C304.882 228.541 264.675 162.623 259.065 125.309C257.483 113.632 256.918 101.113 256.895 88.6638C264.029 82.2716 271.913 75.8102 280.19 70.0988C280.19 70.0988 269.858 73.8718 256.952 79.6409C257.703 40.4688 262.597 4.11203 262.62 4.11203Z" fill="#F2DA00"/>
<path fill-rule="evenodd" clip-rule="evenodd" d="M598.776 251.583C615.226 284.582 623.26 314.477 625.858 340.346C606.106 347.834 584.023 354.33 566.038 355.08C566.188 354.942 594.54 388.587 624.253 389.025C611.313 458.116 561.282 481.862 561.675 482.035C499.685 301.024 395.71 137.263 258.27 4.11203C258.028 3.92742 328.629 -8.21074 383.924 10.1119C390.573 12.2695 398.03 15.8117 406.042 20.577C397.615 56.3338 393.136 96.3251 392.94 97.2712C405.545 76.7448 422.63 58.3645 438.618 43.9649C441.493 46.3417 444.402 48.8224 447.322 51.3839C429.88 75.8795 414.446 98.8635 414.434 98.852C427.421 84.5215 441.493 70.3296 454.479 57.7991C517.081 113.436 578.575 208.58 598.776 251.583Z" fill="#FFE816"/>
<path d="M193.738 472.304C209.636 470.457 227.911 456.861 235.061 450.294L230.4 445.905C217.746 443.32 192.042 438.206 190.458 438.43C188.874 438.654 175.816 442.018 172.983 446.964C173.277 456.18 177.84 474.151 193.738 472.304Z" fill="#0B8B41"/>
<path fill-rule="evenodd" clip-rule="evenodd" d="M287.683 474.447C287.472 475.002 286.765 475.241 286.103 474.98C190.302 437.112 113.448 364.261 70.1836 272.389C69.8904 271.764 70.0799 271.049 70.6243 270.797C71.1574 270.541 71.8315 270.852 72.1247 271.477C115.162 362.846 191.607 435.317 286.897 472.985C287.548 473.242 287.906 473.894 287.683 474.447Z" fill="#0B8B41"/>
<path d="M63.8186 321.528C69.9276 321.875 86.6864 317.785 94.3022 315.697L87.6694 304.516L66.6185 287.802C60.7523 285.603 47.8457 281.471 43.1491 282.54C38.4526 283.609 36.6036 295.755 36.2662 301.694C42.9049 308.161 57.7096 321.181 63.8186 321.528Z" fill="#0B8B41"/>
<path d="M242.259 404.836C256.331 415.772 253.145 444.872 249.689 457.313L234.215 447.889L227.681 438.767C227.01 437.829 226.549 436.757 226.33 435.625L220.971 407.85C222.204 402.289 228.187 393.901 242.259 404.836Z" fill="#0B8B41"/>
<path d="M201.275 382.865C204.033 393.786 197.065 413.76 193.235 422.382L176.855 402.987L169.88 382.26C170.194 376.155 172.718 363.779 180.299 363.11C189.775 362.273 197.827 369.213 201.275 382.865Z" fill="#0B8B41"/>
<path d="M170.042 422.636C173.155 421.791 178.514 414.703 180.097 411.617L174.941 407.298C163.444 403.371 138.653 395.67 131.467 396.283C122.486 397.05 118.942 404.116 118.793 410.197C118.674 415.062 130.043 423.081 135.743 426.482C145.879 425.552 166.93 423.48 170.042 422.636Z" fill="#0B8B41"/>
<path d="M161.238 342.621C161.518 344.601 154.007 371.209 148.031 381.313L136.313 369.884L133.019 346.616C131.477 335.725 135.46 317.486 145.501 317.075C155.542 316.663 160.887 340.145 161.238 342.621Z" fill="#0B8B41"/>
<path d="M104.55 377.37C111.791 377.152 127.516 370.752 133.978 367.648L128.896 360.288L114.412 350.724C103.763 346.845 81.7821 342.82 77.0856 343.889C71.2149 345.225 73.2476 359.582 73.8784 364.038C74.5092 368.493 95.4989 377.641 104.55 377.37Z" fill="#0B8B41"/>
<path d="M123.806 302.935L108.209 335.443L96.2797 318.952L94.3172 305.09C94.916 297.431 96.3836 281.164 97.4631 277.376C98.8126 272.64 112.039 269.757 119.391 271.746C125.272 273.338 124.785 293.202 123.806 302.935Z" fill="#0B8B41"/>
<path d="M78.1908 251.825C78.9197 256.974 75.2231 268.91 73.2837 274.234L73.7042 277.205L63.4569 272.596C57.6667 266.177 45.479 252.618 43.0502 249.73C40.6213 246.842 38.3319 234.239 37.4908 228.298C42.0224 223.448 52.6548 214.133 58.932 215.668C66.7785 217.587 77.2796 245.389 78.1908 251.825Z" fill="#0B8B41"/>
<path d="M203.722 374.677C204.778 329.429 228.739 314.358 256.235 300.943C301.392 253.951 350.593 290.843 369.549 315.163C399.481 341.257 445.362 407.14 389.429 461.921C319.513 530.397 238.223 506.228 217.522 488.396C196.821 470.564 202.666 419.925 203.722 374.677Z" fill="#62A0F9"/>
<path d="M455.983 396.394C446.171 395.245 381.929 372.222 351.035 360.855L348.244 350.214C365.909 346.615 409.093 339.012 440.509 337.389C479.779 335.361 540.042 366.078 535.301 375.592C530.559 385.106 468.249 397.829 455.983 396.394Z" fill="#0B8B41"/>
<path d="M412.869 306.904C410.575 320.253 363.541 349.336 335.709 364.825C332.876 366.401 329.347 364.861 328.702 361.684C324.318 340.057 323.915 310.5 326.425 298.56C328.301 289.631 411.122 144.535 422.42 146.225C431.459 147.576 437.94 191.605 440.051 213.451C432.013 238.648 415.324 292.613 412.869 306.904Z" fill="#299856"/>
</svg>
