<svg width="177" height="197" viewBox="0 0 177 197" fill="none" xmlns="http://www.w3.org/2000/svg">
<path d="M70.0665 151.698C70.0665 123.444 51.9182 122.339 41.0298 132.914C21.6908 151.698 -0.000279388 151.698 0 132.914C0.000762648 81.6419 38.4526 83.6663 57.2843 91.085C51.8661 84.245 38.1261 70.0599 26.5115 68.0394C11.9931 65.5139 15.3068 43.2576 26.5115 37.2594C46.1095 26.7681 71.2237 34.6812 83.7957 43.2576C81.2182 35.5757 82.912 16.9604 110.307 3.95381C163.488 -11.5151 175.167 21.9483 157.334 43.2576C111.254 29.5249 112.043 62.8305 117.093 79.0887C158.123 61.8834 169.351 101.661 175.167 124.391C185.424 164.484 149.602 163.694 142.816 151.698C136.03 139.702 135.083 115.078 117.093 124.391C102.701 131.841 111.097 175.901 117.093 197H76.0632C74.0643 191.318 70.0665 174.302 70.0665 151.698Z" fill="#62A0F9"/>
</svg>
