<svg width="609" height="635" viewBox="0 0 609 635" fill="none" xmlns="http://www.w3.org/2000/svg">
<path d="M16.0296 292.92V283.137L8.67578 277.752L22.397 259.981L11.9043 244.903L31.5444 211.426L28.854 205.053H22.4867L25.1771 182.525H35.2214L45.2656 153.625L34.3246 137.47L60.6908 118.173L66.1613 102.825H75.3088L79.4341 86.6701L73.0668 67.6426L101.765 59.5649L99.5227 49.1537L70.8247 34.7036V18.5482H148.758L156.38 3.46985L245.703 11.5475L264.356 46.1919L275.746 65.8476L303.009 85.7726L315.475 68.1811L340.047 75.7203L344.173 103.454H365.606L379.686 104.62L395.201 101.748L410.267 105.249L413.496 134.687L428.114 130.11L424.437 148.33L440.4 127.238L431.253 103.005L444.526 80.2977L442.284 74.5535L477.977 48.4357L480.577 67.0144L496.541 64.1423L491.519 30.6647L502.818 6.97018L550.26 19.0867L554.833 29.498L563.353 23.2153L600.391 50.859L606.31 99.9534L540.215 125.982L545.686 145.009L519.678 161.164L524.701 172.114L536.538 173.281L541.112 187.103L529.723 190.603V205.592L523.983 209.81L538.87 212.503V222.286L527.122 230.812L559.407 254.417L561.649 263.841L577.164 271.38L586.222 287.087L582.096 298.036L593.486 310.781L609.001 314.82L598.956 345.425L571.604 336.72H558.421L561.649 353.503L550.708 359.247L560.752 378.903L512.414 373.159V421.715L426.679 429.254L413.048 465.065L435.827 507.787L424.616 515.955L422.554 529.776L393.407 532.648V538.393L408.474 560.382L414.841 588.654L431.701 600.95L420.94 608.848L423.989 622.67L397.084 634.158H368.835L362.916 581.115L346.056 560.92L321.932 537.226L327.851 525.109L325.07 511.826L308.838 514.159L312.246 496.837L309.018 482.387L257.541 485.888L250.725 434.46H194.674L190.101 403.226L211.086 410.137H220.233L213.866 382.942L208.844 374.326L219.785 358.709L195.661 333.309C195.661 333.309 139.162 315.987 134.14 243.198C125.44 242.031 110.912 242.031 110.912 242.031L102.213 257.02L71.7216 251.814L57.1035 248.942V270.931L39.5261 283.766L32.2619 278.47L16.0296 292.92Z" fill="#FFF6EC"/>
<g clip-path="url(#clip0)">
<path d="M125.097 259.216L126.224 244.815L117.463 238.395L104.189 221.478L110.783 219.743L107.313 205.69H117.896L118.937 197.101H127.352L137.763 199.704H147.045L145.223 184.002L156.501 176.367L178.97 177.669L183.915 173.331L195.713 169.167L200.311 160.231H208.899L197.708 155.807L180.271 150.515L172.116 155.807L177.235 144.443H194.585L225.642 121.019V117.463L238.048 115.554V110.783H246.203V115.814L295.131 114.947L299.902 131.083L290.707 144.443L294.263 158.323L305.628 183.394L307.45 188.339L312.134 191.809L318.033 196.06L309.966 210.287L304.24 221.478L305.628 229.46L318.728 241.171L330.873 251.408L344.406 267.978L352.474 290.273L358.113 313.783V332.781V351.78L356.638 358.2H351.78L338.073 351.78L333.215 350.305L328.184 369.044L329.311 379.107L340.502 396.111L335.297 406.694L339.808 409.991L331.48 416.064L333.215 428.209L349.438 451.979L343.192 458.659L339.375 455.883L335.037 448.856L330.873 462.042H323.065L315.431 444.952L322.198 434.368L326.882 443.911L330.873 435.67L329.051 430.204L327.75 415.37L317.86 422.57L320.029 430.985L299.729 429.597L297.734 421.008L284.981 408.95L294.437 391.079L301.724 413.114H308.144L312.308 403.918H316.472L320.723 390.558L322.198 380.235L319.161 376.071L318.033 383.878L299.555 377.459L289.579 382.751L286.716 376.331H291.574L297.126 364.273L302.158 366.008L304.587 353.862L300.596 344.233L287.67 336.685L268.758 350.479V353.862H274.137L282.725 366.268L274.831 362.624H264.247L256.96 358.981L240.217 375.203L253.924 396.111H259.736H267.717L268.758 410.945L264.247 422.917L260.69 416.758L264.247 410.685L262.339 404.178L253.403 402.53L255.398 412.854L244.815 402.53L235.619 406.694L237.788 415.977L231.108 418.753L226.77 409.817L222.866 409.123L221.045 400.622L231.108 397.499L235.792 400.014L240.477 392.207L234.144 386.394L231.108 391.079L219.049 391.946L211.589 393.595L209.767 386.394L220.611 382.404V371.993L225.642 366.528L214.885 357.332L135.941 295.044L125.097 259.216Z" fill="#FFF6EC"/>
<path d="M424.481 130.909L420.144 145.657L399.15 155.72L390.127 179.49L384.575 196.233L380.671 202.653V214.972H385.53L388.566 199.27L397.588 191.202L399.41 183.134H409.3L419.71 188.165L411.295 192.59L417.888 210.201L423.874 211.589L425.436 215.753L439.923 205.169L439.229 181.312L447.904 187.558L444.608 202.653L455.799 201.265L458.054 207.077L427.171 221.478L429.513 224.948L431.508 232.496L437.754 235.272L438.188 245.162L453.63 233.884L466.382 245.075L464.908 256.613L460.223 258.521L463.867 268.151L456.927 273.183L458.922 279.429L484.947 286.369L493.97 302.331L482.518 298.688L470.373 315.431L446.603 292.789L437.06 290.273L441.745 303.546L459.616 318.727L470.633 336.685L490.673 356.465L485.815 366.788L487.29 378.933L473.67 389.604L467.424 383.271L458.748 369.824L459.789 378.847L456.753 376.678L457.36 385.266L463.606 388.91L456.84 393.768L462.826 393.334L468.465 407.041L464.214 410.164L452.849 400.882L451.374 404.092L447.21 390.211L455.018 372.687L450.68 363.405L453.023 359.241L439.923 344.84L428.906 347.876L421.185 339.548L415.286 340.242L403.574 341.804L400.017 334.777L390.127 336.859L375.206 340.502L370.348 339.895L369.48 332.174L366.878 307.363L364.102 286.369L364.189 269.626L362.714 260.343L361.239 251.495L354.993 232.236L360.371 223.3V212.977L348.053 179.577L345.363 171.336L354.212 155.807L350.221 148.693L356.207 146.524L354.212 133.598L360.632 128.914V117.462L364.536 102.975H409.56L424.481 130.909Z" fill="#FFF6EC"/>
<path d="M402.271 457.01C399.409 446.687 393.423 436.103 387.09 425.432C380.67 414.849 367.484 405.913 365.315 393.855C363.059 381.883 361.845 364.793 365.315 355.076C368.785 345.273 371.214 338.594 371.474 333.996C371.735 329.398 371.041 320.202 373.209 319.942C375.378 319.682 382.145 323.585 382.058 319.682C381.971 315.778 374.597 319.682 373.47 315.778C372.342 311.874 368.612 302.938 367.31 297.646C366.009 292.355 364.708 278.127 365.315 273.269C365.922 268.324 362.105 256.873 363.146 255.225C364.187 253.576 361.932 249.586 359.503 242.472C357.074 235.358 352.389 223.647 349.439 218.876C346.49 214.104 345.362 215.492 342.326 214.104C339.203 212.716 330.527 206.036 330.961 197.101C331.308 188.165 336.86 184.175 339.376 182.266C341.892 180.444 341.892 174.719 339.723 176.02C337.554 177.234 335.646 182.873 333.65 181.572C331.655 180.271 329.226 165.87 330.961 165.089C332.696 164.308 339.116 169.861 341.371 167.692C343.627 165.523 344.147 156.24 342.499 152.163C340.851 148.086 339.203 144.008 340.677 140.191C342.152 136.374 340.677 129.781 342.499 126.745C344.321 123.708 346.143 109.741 344.408 107.399C342.673 105.057 339.116 100.719 335.906 103.755C332.696 106.792 330.701 109.394 332.523 112.517C334.344 115.554 336.427 119.718 335.733 119.805C335.039 119.891 330.701 117.983 329.833 114.426C328.966 110.869 327.491 106.011 329.313 103.669C331.135 101.24 333.043 91.9571 340.07 90.8293L340.244 70.3558L318.295 54.3067L271.536 50.1426C271.536 59.0781 268.847 78.5973 276.394 84.7567C283.855 90.9161 297.041 96.208 303.374 101.76C309.707 107.312 313.697 117.636 310.835 124.663C307.972 131.603 304.415 145.136 302.246 141.319C300.077 137.502 308.753 114.946 303.634 114.946C298.516 114.946 295.827 115.814 298.516 123.275C299.383 125.79 301.379 130.562 300.858 131.776C300.338 133.078 298.516 138.37 299.73 139.844C300.945 141.406 301.812 142.36 300.685 144.876C299.557 147.392 299.557 160.665 298.516 160.665C297.388 160.665 294.352 151.729 295.306 149.734C296.347 147.826 298.256 142.447 297.301 142.187C296.347 141.926 291.923 143.141 292.27 144.702C292.617 146.264 293.831 154.158 294.786 156.587C295.74 158.93 299.297 163.528 300.598 166.217C301.899 168.906 309.186 177.668 309.707 181.138C310.227 184.608 310.401 188.252 312.223 189.12C314.131 189.987 313.437 193.023 313.003 195.799C312.57 198.576 307.712 219.396 303.374 213.15C299.036 206.904 301.812 194.498 299.817 194.325C297.822 194.151 296.781 201.438 292.877 200.137C288.973 198.836 277.609 192.329 278.476 195.105C279.344 197.882 283.074 199.443 286.718 201.352C290.361 203.26 295.653 205.342 298.169 208.205C300.685 211.068 302.506 214.017 302.593 216.88C302.68 219.743 303.027 227.29 304.936 229.98C306.844 232.669 316.474 241.258 320.724 245.075C324.889 248.805 333.303 254.704 338.162 264.507C343.02 274.31 348.312 284.981 350.394 292.094C352.476 299.121 356.119 304.5 356.466 313.522C356.813 322.631 354.731 351.086 353.95 360.976C353.17 370.865 351.001 371.039 350.654 374.943C350.307 378.847 350.307 388.216 348.659 387.088C347.01 385.96 344.321 373.034 342.152 373.988C339.983 374.943 337.988 384.572 339.983 385.96C341.979 387.348 345.796 385.787 346.924 389.691C348.051 393.594 353.083 406 354.644 408.082C356.206 410.164 370.26 421.095 376.68 426.126C383.099 431.158 399.929 460.741 398.107 462.129C396.199 463.517 385.442 450.938 383.793 453.367C382.145 455.709 389.345 466.466 394.55 467.594C399.842 468.722 415.284 486.679 411.988 487.026C408.691 487.287 398.021 485.638 398.801 487.026C399.582 488.415 405.655 495.008 400.45 493.273C395.244 491.538 385.615 465.252 383.793 465.512C382.058 465.772 384.14 473.927 382.579 474.447C381.017 474.968 377.027 472.626 375.118 470.37C373.123 468.115 371.388 461.955 370.086 462.129C368.785 462.302 372.602 474.1 375.725 475.141C378.848 476.096 388.304 484.771 389.692 487.981C391.167 491.191 395.505 496.049 400.016 496.396C404.527 496.656 411.554 495.702 414.156 500.56C416.672 505.418 410.947 519.125 415.892 522.768C420.836 526.412 429.338 528.234 429.338 528.234L434.196 500.994L428.644 489.282C419.015 479.913 405.134 467.334 402.271 457.01ZM333.564 211.849C335.039 209.506 339.897 216.793 345.709 218.008C348.832 218.615 350.307 225.555 351.695 230.587C352.996 235.619 356.119 242.038 356.119 244.988C356.033 247.937 350.047 246.549 348.138 246.636C346.23 246.81 342.933 229.026 340.504 224.254C337.988 219.483 332.87 212.976 333.564 211.849ZM339.636 152.076C340.07 154.766 331.221 157.368 331.482 158.843C331.655 160.318 337.468 157.368 337.121 159.103C336.774 160.752 330.18 164.655 328.445 164.655C326.71 164.655 326.971 156.154 326.797 153.638C326.537 151.122 334.431 146.351 336.86 145.396C340.591 144.008 328.879 152.77 328.966 154.852C329.053 156.848 339.203 149.474 339.636 152.076ZM324.281 224.861C319.77 227.637 338.162 249.152 335.299 251.061C334.345 251.668 326.016 243.079 320.985 240.043C315.953 237.093 312.917 233.363 308.406 227.811C303.808 222.259 311.095 211.241 314.739 208.205C318.382 205.169 319.77 198.662 320.898 192.676C322.112 186.69 314.131 173.504 311.355 171.422C308.579 169.34 310.488 156.934 310.141 146.264C309.88 135.68 317.168 125.443 319.423 120.238C321.592 115.033 314.392 103.322 308.839 100.459C303.287 97.6828 305.89 88.9208 308.059 86.4917C316.127 77.9033 328.966 86.3182 330.874 90.5691C332.783 94.8199 328.359 99.3311 326.45 104.536C324.541 109.741 326.45 113.819 332.002 119.978C337.554 126.137 338.422 133.945 337.988 138.803C337.554 143.661 327.838 149.994 326.19 150.515C324.542 151.035 325.583 161.532 326.45 164.829C327.318 168.212 323.847 170.034 324.889 174.719C325.93 179.403 332.783 183.481 330.701 185.736C328.619 187.992 325.149 180.878 323.674 180.878C322.199 180.878 327.925 187.037 326.45 189.206C324.975 191.462 325.583 198.662 326.884 208.118C328.185 217.487 335.733 221.565 338.162 225.729C340.677 229.806 341.371 236.486 343.453 241.691C345.536 246.896 342.846 248.371 340.504 249.326C338.422 250.28 327.491 222.866 324.281 224.861ZM361.585 282.899C358.722 282.985 354.645 274.137 350.654 269.799C346.663 265.461 342.152 254.964 342.152 252.535C342.152 248.632 356.119 247.243 358.028 246.896C359.936 246.549 360.977 261.991 362.626 267.804C364.361 273.443 364.447 282.812 361.585 282.899ZM363.84 306.322C368.004 306.322 367.657 338.16 365.228 338.333C362.799 338.507 361.845 306.322 363.84 306.322Z" fill="#62A0F9"/>
<path d="M244.295 119.544C244.295 119.544 244.382 119.544 244.295 119.544L259.043 119.197L260.171 161.88L273.357 180.097V194.151C273.357 194.932 273.877 195.626 274.485 195.626C275.092 195.626 275.612 195.019 275.612 194.151V118.85L293.83 118.503L297.04 129.781L287.758 144.009L290.968 159.624L302.592 184.782C302.766 185.216 303.2 185.476 303.547 185.476C303.72 185.476 303.98 185.389 304.154 185.303C304.674 184.869 304.848 184.001 304.588 183.394L293.136 158.756L290.274 144.789L299.73 130.388L295.565 115.641L244.382 116.768C243.774 116.768 243.254 117.462 243.254 118.243C243.254 118.937 243.688 119.544 244.295 119.544ZM273.444 175.933L262.426 160.752L261.298 119.197L273.444 118.937V175.933Z" fill="#B9B9B9"/>
<path d="M377.113 242.646C377.286 242.646 377.46 242.559 377.633 242.472C378.154 242.125 378.414 241.258 378.067 240.564L348.918 171.422L353.516 161.619L361.063 151.643L368.437 146.264L372.862 156.674L366.269 161.533L359.589 170.381C359.155 170.988 359.155 171.856 359.589 172.377C359.849 172.637 360.109 172.724 360.369 172.724C360.63 172.724 360.977 172.55 361.237 172.29L367.483 163.875L373.903 159.19L379.889 173.418L390.125 163.875L404.006 143.054V115.988L390.646 109.221L382.231 110.869L381.103 125.097L375.464 137.849L359.849 149.3L351.868 159.797L346.402 171.335L376.158 241.865C376.332 242.385 376.679 242.646 377.113 242.646ZM401.75 142.1L388.651 161.793L380.583 169.253L375.725 157.802L376.939 156.935L390.039 143.748L394.897 127.612L392.034 113.125L401.663 117.983V142.1H401.75ZM377.113 139.931L383.185 126.311L384.313 113.472L389.692 112.431L392.641 127.439L388.217 142.013L375.725 154.592L374.77 155.286L370.346 144.876L377.113 139.931Z" fill="#B9B9B9"/>
<path d="M514.097 405.48L494.144 393.161L486.163 372.948L459.964 344.233L467.684 335.818L460.658 321.764L409.994 280.643L402.62 264.421L407.825 261.818L480.611 296.692L462.132 322.371C461.699 322.978 461.785 323.846 462.219 324.366C462.393 324.627 462.74 324.713 463 324.713C463.26 324.713 463.607 324.54 463.867 324.28L484.601 295.478L407.739 258.782L401.406 261.905L400.365 259.563C400.018 258.869 399.411 258.608 398.803 259.042C398.283 259.476 398.109 260.343 398.369 260.951L407.392 280.73L370.088 297.213L368.093 276.132L366.271 246.376C366.184 245.595 365.664 244.988 365.057 245.075C364.449 245.162 364.016 245.856 364.016 246.636L365.837 276.392L367.833 297.907L349.094 301.984C348.487 302.071 348.053 302.852 348.14 303.633C348.227 304.413 348.834 304.934 349.441 304.76L368.527 300.596L377.115 314.737L388.827 320.636V333.996C388.827 334.777 389.347 335.384 389.955 335.384C390.562 335.384 391.082 334.777 391.082 333.996V318.988L378.503 312.655L370.782 299.989L391.95 290.62L407.825 329.919C407.999 330.439 408.433 330.699 408.866 330.699C409.04 330.699 409.214 330.613 409.387 330.526C409.908 330.179 410.168 329.311 409.908 328.617L394.205 289.666L408.346 283.419L424.222 325.754C424.395 326.275 424.829 326.535 425.263 326.535C425.436 326.535 425.61 326.448 425.783 326.362C426.39 326.015 426.564 325.147 426.304 324.453L411.643 285.501L458.662 323.499L464.561 335.21L456.407 344.146L484.167 374.336L492.409 395.156L513.056 407.909C513.229 407.995 513.403 408.082 513.576 408.082C514.01 408.082 514.357 407.822 514.617 407.301C514.878 406.694 514.617 405.827 514.097 405.48Z" fill="#B9B9B9"/>
<path d="M390.299 200.571C390.473 201.352 391.167 201.699 391.687 201.439L408.43 194.325L419.014 222.086C419.188 222.606 419.621 222.866 420.055 222.866C420.229 222.866 420.402 222.866 420.576 222.693C421.096 222.346 421.356 221.478 421.096 220.784L409.645 190.855L390.993 198.836C390.473 199.096 390.126 199.877 390.299 200.571Z" fill="#B9B9B9"/>
<path d="M177.671 271.881C177.063 271.534 176.456 271.881 176.196 272.575L163.096 308.491C162.836 309.185 163.096 310.052 163.617 310.399C163.79 310.486 163.964 310.573 164.051 310.573C164.484 310.573 164.918 310.226 165.092 309.705L178.191 273.79C178.538 273.009 178.278 272.228 177.671 271.881Z" fill="#B9B9B9"/>
<path d="M187.995 181.659C187.388 181.659 186.868 182.266 186.868 183.047V258.174L183.918 259.476L194.328 286.976L210.898 294.437L226.687 264.42C227.034 263.726 226.86 262.859 226.34 262.425C225.819 261.991 225.125 262.165 224.778 262.859L210.03 290.967L195.977 284.634L186.954 261.124L205.259 252.969L210.638 258.868C211.071 259.389 211.852 259.302 212.199 258.695C212.633 258.088 212.546 257.22 212.112 256.7L205.78 249.673L189.123 257.047V182.96C189.123 182.266 188.603 181.659 187.995 181.659Z" fill="#B9B9B9"/>
<path d="M137.505 220.09C136.897 220.09 136.377 220.697 136.377 221.478C136.377 222.259 136.897 222.866 137.505 222.866H147.134L155.376 228.852V235.619C155.376 236.399 155.896 237.093 156.503 237.093C157.111 237.093 157.631 236.486 157.631 235.619V227.291L147.741 220.09H137.505Z" fill="#B9B9B9"/>
<path d="M246.206 157.976C246.032 157.195 245.425 156.761 244.818 156.935L216.016 165.61L195.89 187.298C195.456 187.818 195.369 188.686 195.716 189.293C195.976 189.64 196.237 189.814 196.584 189.814C196.844 189.814 197.104 189.727 197.278 189.467L216.97 168.212L245.252 159.711C245.946 159.537 246.293 158.757 246.206 157.976Z" fill="#B9B9B9"/>
<path d="M176.283 143.922H195.369L214.367 130.042L224.257 122.321C224.778 121.887 224.951 121.019 224.604 120.325C224.257 119.631 223.563 119.458 223.042 119.892L213.153 127.612L194.675 141.059H174.982L161.622 166.998C161.275 167.692 161.448 168.559 161.969 168.993C162.142 169.167 162.403 169.254 162.576 169.254C162.923 169.254 163.27 168.993 163.53 168.646L176.283 143.922Z" fill="#B9B9B9"/>
<path d="M311.183 347.182L288.194 333.129C287.587 332.782 286.98 333.129 286.719 333.823C286.459 334.517 286.719 335.384 287.24 335.731L309.709 349.351L325.15 369.998C325.411 370.258 325.671 370.432 325.931 370.432C326.192 370.432 326.538 370.258 326.712 369.998C327.146 369.478 327.146 368.523 326.799 368.003L311.183 347.182Z" fill="#B9B9B9"/>
<path d="M250.804 220.264C251.064 219.57 250.804 218.702 250.196 218.442C249.589 218.182 248.982 218.529 248.722 219.223L241.087 242.906L238.398 279.949L223.13 303.719L210.29 305.975L197.885 331.653L172.987 342.931C172.38 343.191 172.119 343.972 172.293 344.753C172.467 345.36 172.9 345.707 173.334 345.707C173.421 345.707 173.594 345.707 173.681 345.621L199.36 333.996L211.592 308.664L224.171 306.495L240.48 281.164L243.17 243.86L250.804 220.264Z" fill="#B9B9B9"/>
<path d="M280.645 337.38L269.367 340.242L260.952 318.554L265.376 295.305C265.55 294.524 265.116 293.743 264.509 293.57C263.902 293.396 263.294 293.83 263.121 294.611L258.523 318.815L267.025 340.676L248.807 345.361L242.561 368.437C242.387 369.218 242.647 369.998 243.255 370.259C243.341 370.345 243.515 370.345 243.602 370.345C244.035 370.345 244.469 369.998 244.643 369.391L250.455 347.877L280.905 340.069C281.512 339.895 281.946 339.201 281.773 338.421C281.859 337.64 281.252 337.206 280.645 337.38Z" fill="#B9B9B9"/>
<path d="M565.366 349.179L459.788 319.683L426.823 321.939L374.771 334.952L349.44 331.742L339.897 324.108L351.782 304.155L347.705 287.672L367.744 279.083L400.884 262.687L409.385 240.739L405.568 230.762L526.154 176.022C527.368 175.501 527.976 173.853 527.542 172.378C527.108 170.903 525.807 170.123 524.679 170.643L403.66 225.557L381.712 168.561H347.705L303.374 181.227L260.779 180.099L247.246 157.283L243.776 97.6846V3.12478C243.776 1.56324 242.735 0.261963 241.52 0.261963C240.306 0.261963 239.264 1.56324 239.264 3.12478V97.8581L240.306 115.556L211.677 119.98L202.829 126.4L155.115 132.993L152.339 161.621L141.408 178.538L135.596 199.185L135.162 235.707L2.08408 253.492C0.869552 253.665 -0.0847115 255.053 0.0887928 256.615C0.262297 258.176 1.30332 259.304 2.6046 259.13L135.335 241.346C139.413 287.325 160.841 320.464 194.674 332.523C204.217 341.198 227.206 367.397 233.973 375.292L233.799 375.465L182.355 433.502C181.401 434.543 181.314 436.365 182.182 437.58C182.615 438.187 183.223 438.534 183.83 438.534C184.35 438.534 184.871 438.274 185.305 437.84L236.662 379.889L237.096 379.456L252.538 402.185L270.582 407.216L287.152 408.691L302.16 427.256L329.487 430.986L385.789 533.18L427.256 563.457C427.603 563.717 428.037 563.804 428.384 563.804C429.165 563.804 429.946 563.283 430.379 562.416C430.987 561.028 430.64 559.293 429.512 558.512L388.912 528.843L332.957 427.256L328.099 369.392L337.988 329.226L347.965 337.294L374.945 340.764L427.17 327.665L459.355 325.496L564.238 354.818C565.453 355.165 566.667 354.211 566.927 352.649C567.361 351.001 566.58 349.439 565.366 349.179ZM259.391 186.606L293.745 226.945L298.256 232.931L295.914 248.72L294.526 251.149L294.092 250.195L292.357 246.118L259.217 221.914L229.028 204.737L234.84 197.363L259.391 186.606ZM266.591 185.912L269.888 191.203L265.29 185.825L266.591 185.912ZM331.829 262.253L341.719 284.202L322.2 292.53L309.013 265.463L299.991 264.509L296.868 256.875L300.165 251.062L302.767 233.539L314.912 245.597L331.829 262.253ZM304.329 308.059L294.612 279.17L294.352 263.468L297.128 270.061L306.324 271.015L318.469 295.74L304.329 308.059ZM296.868 222.868L282.033 205.518L290.188 207.686L298.603 216.535L300.512 227.813L296.868 222.868ZM226.425 209.508L257.135 227.032L288.973 250.282L289.407 251.323L264.509 257.309L253.665 248.547L243.255 240.999L219.659 234.493L226.425 209.508ZM241.347 246.118L247.94 250.976L220.266 251.843L219.051 240.132L241.347 246.118ZM255.053 256.441L263.555 263.381L291.403 256.701L289.841 259.477L290.188 280.298L297.475 302.159L297.041 301.032L248.894 287.932L223.823 257.482L255.053 256.441ZM320.812 300.424L331.135 321.505L304.676 319.77L303.114 315.953L320.812 300.424ZM346.924 303.027L336.167 320.985L324.629 297.475L343.541 289.407L346.924 303.027ZM404.527 240.652L397.761 258.089L366.356 273.618L346.056 282.293L336.861 261.82L401.404 232.497L404.527 240.652ZM303.808 186.866L347.965 174.2H378.935L399.496 227.379L333.998 257.048L317.602 241.173L305.37 228.941L302.68 213.325L292.27 202.308L280.732 199.271L272.491 185.998L303.808 186.866ZM204.303 132.038L213.152 125.532L240.653 121.281L242.908 159.365L256.268 181.921L232.411 192.331L224.69 202.134L157.023 161.1L159.279 138.198L204.303 132.038ZM140.02 200.226L145.312 181.4L155.115 166.392L222.261 207.166L215.234 233.278L194.934 227.726L139.673 235.1L140.02 200.226ZM194.674 233.452L214.453 238.83L215.841 252.797L149.997 282.293C144.618 270.235 141.235 256.268 139.847 240.739L194.674 233.452ZM197.016 327.665L196.669 327.404L196.322 327.231C177.237 320.464 162.315 306.584 152.426 287.325L217.75 258.003L246.638 293.051L294.005 305.977L297.735 315.086L286.284 332.089L260.259 348.572L237.616 371.648C231.457 364.621 206.906 336.6 197.016 327.665ZM328.359 425.001L304.329 421.791L289.234 403.139L271.536 401.577L255.053 396.98L240.653 375.812L262.427 353.603L289.06 336.774L299.904 320.724L301.813 325.409L333.738 327.491L323.588 368.785L328.359 425.001Z" fill="white"/>
<path d="M397.421 255.397L390.029 246.133L396.845 238.597H394.157L387.893 245.341V238.597H385.781V255.397H387.893V246.925L394.733 255.397H397.421ZM405.906 243.301L402.906 252.037L399.834 243.301H397.626L401.874 254.893L399.954 260.293H402.018L408.018 243.301H405.906ZM410.897 243.301V255.397H412.913V243.301H410.897ZM410.393 239.941C410.393 240.781 411.041 241.429 411.905 241.429C412.769 241.429 413.417 240.781 413.417 239.941C413.417 239.077 412.769 238.405 411.905 238.405C411.041 238.405 410.393 239.077 410.393 239.941ZM424.152 243.301L421.2 252.829L418.248 243.301H416.184L420.168 255.397H422.232L426.216 243.301H424.152ZM428.666 257.965H430.202L432.986 252.757H430.25L428.666 257.965ZM443.784 249.685C443.784 253.525 446.424 255.589 449.664 255.589C452.904 255.589 455.544 253.525 455.544 249.685V238.597H453.432V249.829C453.432 251.965 452.112 253.573 449.664 253.573C447.216 253.573 445.896 251.965 445.896 249.829V238.597H443.784V249.685ZM459.806 238.405V255.397H461.822V249.325L466.934 255.397H469.502L463.982 248.845L469.118 243.301H466.526L461.822 248.365V238.405H459.806ZM479.531 243.469C479.171 243.277 478.547 243.109 477.875 243.109C476.531 243.109 475.043 244.021 474.323 245.365V243.301H472.307V255.397H474.323V250.813C474.323 246.877 476.051 244.933 477.707 244.933C478.211 244.933 478.691 245.053 479.123 245.269L479.531 243.469ZM483.523 251.917C483.523 250.549 484.675 249.781 486.739 249.781H488.899V250.069C488.899 252.805 487.075 253.765 485.515 253.765C484.243 253.765 483.523 253.069 483.523 251.917ZM490.915 247.669C490.915 244.453 488.923 243.109 486.259 243.109C483.979 243.109 482.299 244.381 481.963 246.421L483.739 246.829C484.003 245.629 485.011 244.933 486.259 244.933C487.723 244.933 488.899 245.557 488.899 247.429V247.957H486.931C483.619 247.957 481.459 249.325 481.459 251.917C481.459 254.509 483.187 255.589 485.203 255.589C487.003 255.589 488.227 254.797 488.995 253.693L489.331 255.397H490.915V247.669ZM494.801 243.301V255.397H496.817V243.301H494.801ZM494.297 239.941C494.297 240.781 494.945 241.429 495.809 241.429C496.673 241.429 497.321 240.781 497.321 239.941C497.321 239.077 496.673 238.405 495.809 238.405C494.945 238.405 494.297 239.077 494.297 239.941ZM510.338 246.877C510.338 244.477 508.994 243.109 506.786 243.109C505.106 243.109 503.666 243.973 502.778 245.533V243.301H500.762V255.397H502.778V250.333C502.778 246.973 504.434 244.933 506.234 244.933C507.578 244.933 508.322 245.749 508.322 247.405V255.397H510.338V246.877ZM524.724 248.845C524.724 245.845 522.828 243.109 519.252 243.109C515.58 243.109 513.78 246.109 513.78 249.349C513.78 252.589 515.58 255.589 519.252 255.589C521.748 255.589 523.26 254.581 524.388 252.229L522.612 251.461C521.94 252.949 521.028 253.765 519.252 253.765C517.068 253.765 515.964 252.013 515.844 249.781H524.724V248.845ZM519.252 244.933C521.196 244.933 522.252 246.229 522.612 247.957H515.964C516.324 246.205 517.38 244.933 519.252 244.933Z" fill="black"/>
</g>
<defs>
<clipPath id="clip0">
<rect width="567.359" height="563.889" fill="white"/>
</clipPath>
</defs>
</svg>
