<svg width="650" height="547" viewBox="0 0 650 547" fill="none" xmlns="http://www.w3.org/2000/svg">
<path d="M243.69 448.825C256.786 442.352 268.313 425.051 272.44 417.21L267.085 414.87C255.416 416.537 231.754 420.041 230.461 420.721C229.169 421.4 218.98 428.304 218.065 433.425C221.151 441.255 230.595 455.298 243.69 448.825Z" fill="#0B8B41"/>
<path fill-rule="evenodd" clip-rule="evenodd" d="M325.089 421.796C325.077 422.338 324.543 422.76 323.894 422.74C229.924 419.635 141.486 380.644 76.0695 314.983C75.6255 314.536 75.5688 313.864 75.9589 313.479C76.3386 313.096 77.0134 313.156 77.4574 313.603C142.524 378.901 230.494 417.692 323.964 420.78C324.603 420.802 325.111 421.252 325.089 421.796Z" fill="#0B8B41"/>
<path d="M85.7015 359.17C91.0583 357.591 104.204 348.926 110.108 344.791L100.972 337.22L77.7435 329.325C72.026 329.238 59.6641 329.653 55.9563 332.015C52.2485 334.377 54.392 345.384 55.9272 350.592C63.62 354.109 80.3446 360.749 85.7015 359.17Z" fill="#0B8B41"/>
<path d="M264.66 375.93C280.114 381.003 286.32 406.992 287.172 418.746L270.977 415.402L262.685 409.658C261.736 409.001 260.941 408.146 260.354 407.153L247.291 385.062C246.641 379.904 249.206 370.856 264.66 375.93Z" fill="#0B8B41"/>
<path d="M222.683 369.642C228.41 378.18 228.559 397.488 227.917 406.075L207.879 394.44L195.516 378.77C193.909 373.428 192.275 362.016 198.584 359.111C206.471 355.48 215.524 358.969 222.683 369.642Z" fill="#0B8B41"/>
<path d="M208.063 413.421C210.478 411.738 212.906 404 213.318 400.861L207.559 398.733C196.471 398.892 172.799 399.892 166.812 402.627C159.329 406.046 158.455 413.209 160.195 418.48C161.588 422.698 173.824 426.095 179.767 427.267C188.193 423.352 205.648 415.103 208.063 413.421Z" fill="#0B8B41"/>
<path d="M175.908 347.359C176.757 348.975 178.479 374.151 176.448 384.671L162.865 378.45L152.884 359.465C148.211 350.579 146.029 333.68 154.533 330.24C163.036 326.801 174.846 345.34 175.908 347.359Z" fill="#0B8B41"/>
<path d="M137.868 394.645C144.024 392.233 155.571 381.899 160.171 377.246L153.542 372.482L138.155 368.714C127.811 368.653 107.683 371.949 103.975 374.311C99.3404 377.263 105.499 388.977 107.411 392.613C109.322 396.248 130.172 397.659 137.868 394.645Z" fill="#0B8B41"/>
<path d="M131.541 324.756L128.127 357.487L112.807 346.981L106.86 335.671C105.021 328.904 101.283 314.474 101.047 310.886C100.751 306.401 111.232 299.859 118.162 299.309C123.705 298.869 129.391 316.091 131.541 324.756Z" fill="#0B8B41"/>
<path d="M76.6312 294.849C78.8399 299.05 79.3311 310.444 79.3006 315.616L80.5748 318.04L70.3517 317.228C63.403 313.491 48.7618 305.584 45.7869 303.848C42.8119 302.113 36.9712 291.985 34.4226 287.138C36.8267 281.577 43.1016 270.303 48.9681 269.694C56.3013 268.931 73.8703 289.598 76.6312 294.849Z" fill="#0B8B41"/>
<path fill-rule="evenodd" clip-rule="evenodd" d="M579.902 3.89897C493.891 123.595 437.445 261.931 415.167 407.595C415.296 407.86 454.489 407.023 489.539 376.709C474.628 365.551 459.727 350.284 459.386 349.894C472.624 358.237 487.372 364.43 498.363 368.473C514.416 352.164 529.03 329.422 540.422 296.371C540.616 295.794 540.825 295.196 541.032 294.59C524.352 283.291 504.185 262.11 504.237 262.046C518.268 271.177 534.099 278.014 545.15 282.291C547.542 275.006 550.282 266.593 553.278 257.448C535.612 248.196 517.253 223.962 517.335 223.866C532.041 228.974 549.656 228.961 562.952 228.147C578.508 179.789 599.986 124.334 599.144 95.2826C598.749 86.2157 597.468 76.6489 595.786 67.2087C589.505 63.3374 582.647 59.516 575.593 56.3167C575.593 56.3167 583.94 57.7661 594.51 60.3771C588.593 30.7865 579.92 3.89581 579.902 3.89897Z" fill="#5E98EC"/>
<path fill-rule="evenodd" clip-rule="evenodd" d="M358.876 237.38C350.912 264.64 348.903 288.398 350.466 308.361C366.46 311.341 384.087 313.25 397.822 311.363C397.69 311.279 380.792 340.653 358.329 345.042C377.571 395.647 418.737 406.816 418.463 407.001C440.739 261.328 497.195 122.999 583.198 3.30492C583.356 3.13188 528.182 3.57012 488.769 25.0082C484.024 27.5515 478.855 31.2547 473.433 35.9607C484.702 61.9143 493.557 91.6168 493.835 92.3072C481.477 78.4689 466.017 66.8689 451.932 58.1366C450.078 60.3308 448.212 62.6083 446.347 64.9487C462.913 81.1353 477.751 96.4503 477.758 96.44C465.957 87.3504 453.353 78.5139 441.798 70.7887C401.941 121.509 368.318 202.025 358.876 237.38Z" fill="#62A0F9"/>
<path fill-rule="evenodd" clip-rule="evenodd" d="M149.997 182.98C225.053 226.718 287.541 286.826 332.359 358.387C332.345 358.555 310.03 366.836 283.531 358.711C289.48 349.533 294.515 338.197 294.621 337.916C288.993 345.244 282.036 351.779 276.725 356.349C264.052 351.353 250.767 342.659 237.02 327.832C236.782 327.572 236.532 327.305 236.281 327.032C243.198 317.386 249.897 301.771 249.854 301.749C243.953 309.668 236.527 316.782 231.234 321.488C228.271 318.193 224.862 314.384 221.146 310.246C229.073 301.455 234.076 284.64 234.008 284.608C226.835 290.563 216.887 294.476 209.199 297.007C189.713 275.066 165.312 250.714 159.358 235.266C157.574 230.415 156.18 225.105 155.04 219.772C157.729 216.341 160.756 212.807 164.031 209.557C164.031 209.557 159.639 212.175 154.248 215.899C151.04 199.039 149.986 182.983 149.997 182.98Z" fill="#5E98EC"/>
<path fill-rule="evenodd" clip-rule="evenodd" d="M326.47 256.446C337 268.994 343.392 281.027 346.928 291.861C338.557 296.986 329.027 301.911 320.854 303.976C320.91 303.902 336.952 315.572 350.607 312.88C350.943 343.744 330.171 358.771 330.367 358.808C285.548 287.242 223.055 227.14 148.004 183.401C147.876 183.345 179.126 171.298 206.125 173.79C209.367 174.07 213.105 174.865 217.208 176.13C216.589 192.272 218.163 209.845 218.159 210.269C222.074 200.25 228.236 190.717 234.256 182.995C235.789 183.735 237.347 184.516 238.917 185.331C233.146 197.52 228.158 208.867 228.152 208.863C232.803 201.462 237.964 194.016 242.778 187.387C276.509 205.161 313.314 239.975 326.47 256.446Z" fill="#62A0F9"/>
<path d="M421.823 255.771C384.223 238.171 332.823 286.437 311.823 312.771C303.323 317.937 280.023 329.871 254.823 336.271C223.323 344.271 196.823 378.771 224.823 469.771C252.823 560.771 379.323 526.771 437.323 524.771C495.323 522.771 495.823 367.771 495.823 345.771C495.823 323.771 468.823 277.771 421.823 255.771Z" fill="#FDD2A8"/>
<path d="M329 415C329 402 338.5 359 348.5 359C392 359 395 373.5 409.5 404C424 434.5 401.5 461.5 380.5 461.5C359.5 461.5 329 428 329 415Z" fill="#0B8B41"/>
</svg>
