<svg width="185" height="20" viewBox="0 0 185 20" fill="none" xmlns="http://www.w3.org/2000/svg">
<path d="M0.112 19H4.144V11.992L10.936 19H15.832L8.632 11.656C11.992 11.344 14.68 9.448 14.68 6.208C14.68 2.68 11.896 0.759999 7.672 0.759999H0.112V19ZM4.144 8.56V4.24H7.024C9.04 4.24 10.456 4.912 10.456 6.472C10.456 8.032 8.848 8.56 7.192 8.56H4.144ZM23.1666 19.384C27.1026 19.384 29.6226 17.008 29.8386 14.656H25.9266C25.7106 15.544 24.7266 16.264 23.2866 16.264C21.5586 16.264 20.5506 15.28 20.3346 13.696H29.8146V12.376C29.8146 8.272 26.8626 6.016 23.0706 6.016C18.8706 6.016 16.3506 8.752 16.3506 12.688C16.3506 16.6 18.8226 19.384 23.1666 19.384ZM20.3826 11.392C20.3826 9.976 21.5586 9.112 23.1426 9.112C24.6786 9.112 25.8546 10 25.8546 11.392H20.3826ZM38.5294 19.384C42.4654 19.384 44.9854 17.008 45.2014 14.008H41.2894C41.0734 15.424 39.9934 16.264 38.5774 16.264C36.7774 16.264 35.6494 15.04 35.6494 12.688C35.6494 10.312 36.7774 9.112 38.5774 9.112C39.9934 9.112 41.0014 9.88 41.2414 11.344H45.1774C44.9614 8.2 42.2734 6.016 38.5054 6.016C34.2094 6.016 31.7134 8.752 31.7134 12.688C31.7134 16.6 34.1854 19.384 38.5294 19.384ZM47.6042 19H51.6122V14.512C51.6122 11.896 53.1002 10.096 56.0762 10.096H56.5082V6.088C55.3802 6.088 54.5882 6.184 53.8202 6.496C52.8122 6.904 52.0442 7.792 51.4922 8.776V6.4H47.6042V19ZM63.4429 19.384C65.3389 19.384 66.9229 18.76 68.0509 17.032V19H72.0589V6.4H68.0509V12.424C68.0509 14.752 66.7309 16.264 64.9069 16.264C63.5869 16.264 62.3869 15.472 62.3869 12.568V6.4H58.3789V13.912C58.3789 17.512 60.2029 19.384 63.4429 19.384ZM74.5564 4.48H78.7564V0.759999H74.5564V4.48ZM74.6524 19H78.6604V6.4H74.6524V19ZM87.1999 19.24C88.3759 19.24 88.9279 19.192 89.5999 19.12V15.472H88.7599C87.2719 15.472 86.5039 15.16 86.5039 13.72V9.976H89.2399V6.4H86.5039V3.16H82.6879V4.792C82.6879 6.16 82.2799 6.712 80.8639 6.712V9.976H82.4959V14.968C82.4959 17.68 83.6959 19.216 87.1999 19.24ZM103.151 19.384C106.919 19.384 110.423 17.8 112.007 15.352V8.968H101.591V12.304H108.215V14.176C107.207 15.328 105.071 15.856 103.175 15.856C98.9753 15.856 96.6473 13.504 96.6473 9.808C96.6473 6.064 98.8793 3.904 102.407 3.904C105.215 3.904 107.111 5.272 107.711 7.096H112.007C111.479 3.208 107.591 0.375999 102.359 0.375999C96.3833 0.375999 92.3513 3.952 92.3513 9.832C92.3513 15.616 96.4553 19.384 103.151 19.384ZM118.113 19.264C120.105 19.264 121.449 18.448 122.145 17.368H122.193V19H126.081V17.536V15.832V11.584C126.081 7.456 124.041 6.016 120.345 6.016C115.881 6.016 114.657 8.128 114.561 10.456H118.401C118.449 9.736 118.857 8.896 120.273 8.896C121.545 8.896 122.049 9.592 122.049 10.792V11.416H121.257C118.377 11.416 116.601 11.848 115.473 12.616C114.465 13.336 113.961 14.32 113.961 15.544C113.961 17.536 115.257 19.264 118.113 19.264ZM119.769 16.672C118.761 16.672 118.041 16.264 118.041 15.304C118.041 14.008 119.601 13.336 121.641 13.336H122.073V14.872C122.073 15.568 121.401 16.672 119.769 16.672ZM128.578 19H132.586V14.512C132.586 11.896 134.074 10.096 137.05 10.096H137.482V6.088C136.354 6.088 135.562 6.184 134.794 6.496C133.786 6.904 133.018 7.792 132.466 8.776V6.4H128.578V19ZM149.03 0.759999V7.912C148.022 6.736 146.51 6.016 144.95 6.016C141.326 6.016 138.926 8.68 138.926 12.664C138.926 16.696 141.374 19.384 144.998 19.384C146.51 19.384 148.214 18.664 149.102 17.608V19H153.038V0.759999H149.03ZM149.03 13.096C149.03 15.016 147.806 16.264 145.982 16.264C144.11 16.264 142.862 14.824 142.862 12.664C142.862 10.552 144.086 9.136 145.958 9.136C147.806 9.136 149.03 10.36 149.03 12.208V13.096ZM162.146 19.384C166.082 19.384 168.602 17.008 168.818 14.656H164.906C164.69 15.544 163.706 16.264 162.266 16.264C160.538 16.264 159.53 15.28 159.314 13.696H168.794V12.376C168.794 8.272 165.842 6.016 162.05 6.016C157.85 6.016 155.33 8.752 155.33 12.688C155.33 16.6 157.802 19.384 162.146 19.384ZM159.362 11.392C159.362 9.976 160.538 9.112 162.122 9.112C163.658 9.112 164.834 10 164.834 11.392H159.362ZM171.221 19H175.229V12.976C175.229 10.624 176.573 9.112 178.325 9.112C179.861 9.112 180.893 10.144 180.893 12.904V19H184.901V11.416C184.901 8.008 183.029 6.016 179.789 6.016C178.013 6.016 176.333 6.616 175.229 8.296V6.4H171.221V19Z" fill="black"/>
</svg>
