<svg width="170" height="21" viewBox="0 0 170 21" fill="none" xmlns="http://www.w3.org/2000/svg">
<g clip-path="url(#clip0)">
<path d="M83.878 8.44212H73.202V0.631943H69.972V20.4653H73.202V11.0671H83.878V20.4653H87.074V0.631943H83.878V8.44212ZM52.377 0.56713C51.204 0.534722 48.824 0.53472 46.716 0.53472V20.4491H49.98V12.8981C50.796 12.8981 52.479 12.8333 53.839 12.8009C55.743 12.7685 60.707 11.8611 60.673 6.40046C60.724 0.243056 53.567 0.56713 52.377 0.56713ZM52.207 10.2569H50.048V3.0787H51.884C52.734 3.0787 57.749 2.72222 57.902 6.43287C58.106 10.0787 54.145 10.2569 52.207 10.2569ZM22.253 0.53472L22.287 20.4491H35.394V17.8565H25.551V11.0995H32.521C32.521 10.5324 32.487 9.70601 32.521 8.62037H25.551V3.19213H35.394C35.36 1.62037 35.394 0.53472 35.394 0.53472H22.253ZM3.196 5.39583C3.196 2.13889 7.718 2.00926 10.387 4.09953C11.305 1.58796 11.373 1.40972 11.373 1.40972C3.587 -2.1551 0.034 2.56018 0.034 5.57407C0.034 12.7847 10.761 11.2454 9.214 16.3171C8.67 18.1644 5.219 19.2176 1.241 16.9167C0.952 17.6944 0.476 18.6343 0 19.5741C5.253 22.1991 12.07 20.9352 12.291 15.5231C12.597 8.71759 3.196 9.2037 3.196 5.39583ZM140.964 6.125C140.488 0.210646 134.47 0.664349 133.144 0.599534C132.039 0.567127 129.693 0.53472 127.67 0.53472V20.4167H130.934V12.0556C132.039 12.0556 132.396 12.0556 134.062 11.9907L140.012 20.4167H143.973L137.394 11.4722C139.162 10.8565 141.219 9.41435 140.964 6.125ZM132.957 9.72222C132.226 9.72222 131.665 9.72222 130.934 9.68981V2.96528H132.651C133.467 2.96528 137.751 2.72222 138.125 5.97917C138.584 9.83565 133.841 9.72222 132.957 9.72222ZM162.503 0.56713H158.729L151.895 20.4815H155.125C156.145 16.8843 156.485 15.8634 156.485 15.8634L164.934 15.831C165.92 18.4884 166.651 20.5139 166.651 20.5139H170L162.503 0.56713ZM157.233 13.5787L160.531 3.74305H160.565L164.016 13.5463L157.233 13.5787ZM107.338 0C100.691 0 96.356 4.68287 96.356 10.5C96.356 16.3171 100.691 21 107.338 21C113.985 21 118.32 16.3171 118.32 10.5C118.32 4.68287 113.985 0 107.338 0ZM107.338 18.1319C102.459 18.1319 99.705 14.7454 99.705 10.5C99.705 6.30324 102.459 2.86805 107.338 2.86805C112.183 2.86805 114.971 6.25463 114.971 10.5C114.971 14.6968 112.217 18.1319 107.338 18.1319Z" fill="#6D6C6C"/>
</g>
<defs>
<clipPath id="clip0">
<rect width="170" height="21" fill="white"/>
</clipPath>
</defs>
</svg>
