<svg width="395" height="440" viewBox="0 0 395 440" fill="none" xmlns="http://www.w3.org/2000/svg">
<path d="M156.363 338.818C156.363 275.712 115.863 273.244 91.5637 296.865C48.406 338.818 -0.000623494 338.818 0 296.865C0.00170196 182.347 85.8122 186.869 127.838 203.439C115.746 188.161 85.0838 156.479 59.164 151.966C26.7643 146.325 34.1591 96.6159 59.164 83.219C102.9 59.7866 158.946 77.4606 187.002 96.6159C181.25 79.4584 185.03 37.881 246.166 8.83085C364.847 -25.7191 390.908 49.0216 351.113 96.6159C248.279 65.944 250.04 140.332 261.31 176.645C352.874 138.217 377.931 227.06 390.908 277.827C413.799 367.375 333.857 365.612 318.714 338.818C303.57 312.024 301.457 257.026 261.31 277.827C229.192 294.467 247.927 392.876 261.31 440H169.746C165.285 427.308 156.363 389.303 156.363 338.818Z" fill="#62A0F9"/>
</svg>
