<?xml version="1.0" standalone="no"?>
<!DOCTYPE svg PUBLIC "-//W3C//DTD SVG 1.1//EN" "http://www.w3.org/Graphics/SVG/1.1/DTD/svg11.dtd" >
<svg xmlns="http://www.w3.org/2000/svg" xmlns:xlink="http://www.w3.org/1999/xlink" version="1.1">
<metadata>
Created by FontForge 20190801 at Thu Aug  2 19:34:55 2018
 By Jimmy Wärting
Copyright \251 2017 by Matthieu Salvaggio. All rights reserved.
</metadata>
<defs>
<font id="ATSurt-RegularExp" horiz-adv-x="0" >
  <font-face 
    font-family="AT Surt Exp"
    font-weight="400"
    font-stretch="semi-expanded"
    units-per-em="1000"
    panose-1="2 0 0 5 0 0 0 0 0 0"
    ascent="760"
    descent="-240"
    x-height="525"
    cap-height="760"
    bbox="-775 -490 1501 1011"
    underline-thickness="50"
    underline-position="-100"
    stemh="96"
    stemv="100"
    unicode-range="U+0020-25CA"
  />
<missing-glyph horiz-adv-x="685" 
d="M77 0v751h531v-751h-531zM124 73l407 631h-407v-631zM154 47h407v631z" />
    <glyph glyph-name=".notdef" horiz-adv-x="685" 
d="M77 0v751h531v-751h-531zM124 73l407 631h-407v-631zM154 47h407v631z" />
    <glyph glyph-name="A" unicode="A" horiz-adv-x="794" 
d="M11 0l331 760h110l331 -760h-109l-96 220h-362l-96 -220h-109zM253 317h288l-144 324z" />
    <glyph glyph-name="Aacute" unicode="&#xc1;" horiz-adv-x="794" 
d="M523 995l-181 -175h-72l119 175h134zM11 0l331 760h110l331 -760h-109l-96 220h-362l-96 -220h-109zM253 317h288l-144 324z" />
    <glyph glyph-name="Abreve" unicode="&#x102;" horiz-adv-x="794" 
d="M511 995h85c0 -105 -79 -175 -199 -175c-119 0 -199 70 -199 175h85c0 -61 46 -101 114 -101c69 0 114 40 114 101zM11 0l331 760h110l331 -760h-109l-96 220h-362l-96 -220h-109zM253 317h288l-144 324z" />
    <glyph glyph-name="Acircumflex" unicode="&#xc2;" horiz-adv-x="794" 
d="M582 820h-74l-111 116l-113 -116h-74l130 175h112zM11 0l331 760h110l331 -760h-109l-96 220h-362l-96 -220h-109zM253 317h288l-144 324z" />
    <glyph glyph-name="Adieresis" unicode="&#xc4;" horiz-adv-x="794" 
d="M275 905v90h85v-90h-85zM435 905v90h84v-90h-84zM11 0l331 760h110l331 -760h-109l-96 220h-362l-96 -220h-109zM253 317h288l-144 324z" />
    <glyph glyph-name="Agrave" unicode="&#xc0;" horiz-adv-x="794" 
d="M270 995h134l119 -175h-71zM11 0l331 760h110l331 -760h-109l-96 220h-362l-96 -220h-109zM253 317h288l-144 324z" />
    <glyph glyph-name="Amacron" unicode="&#x100;" horiz-adv-x="794" 
d="M569 878h-345v77h345v-77zM11 0l331 760h110l331 -760h-109l-96 220h-362l-96 -220h-109zM253 317h288l-144 324z" />
    <glyph glyph-name="Aogonek" unicode="&#x104;" horiz-adv-x="794" 
d="M641 -97c0 -27 24 -43 72 -43c9 0 19 0 33 2v-61c-14 -2 -31 -3 -51 -3c-90 0 -125 47 -125 89c0 64 79 106 101 120l-93 213h-362l-96 -220h-109l331 760h110l331 -760h-71c-54 -41 -71 -72 -71 -97zM253 317h288l-144 324z" />
    <glyph glyph-name="Aring" unicode="&#xc5;" horiz-adv-x="794" 
d="M397 839c-56 0 -93 34 -93 86c0 50 37 83 93 83s93 -33 93 -83c0 -52 -37 -86 -93 -86zM397 887c24 0 41 15 41 37s-17 36 -41 36c-25 0 -42 -14 -42 -36s17 -37 42 -37zM11 0l331 760h110l331 -760h-109l-96 220h-362l-96 -220h-109zM253 317h288l-144 324z" />
    <glyph glyph-name="Atilde" unicode="&#xc3;" horiz-adv-x="794" 
d="M325 975c65 0 91 -62 133 -62c25 0 43 22 43 57h71c0 -88 -45 -130 -103 -130c-74 0 -96 63 -136 63c-24 0 -40 -23 -40 -58h-71c0 75 44 130 103 130zM11 0l331 760h110l331 -760h-109l-96 220h-362l-96 -220h-109zM253 317h288l-144 324z" />
    <glyph glyph-name="AE" unicode="&#xc6;" horiz-adv-x="1264" 
d="M685 102h470v-102h-573v217h-335l-123 -217h-113l422 760h703v-102h-451v-207h406v-102h-406v-247zM494 658l-190 -338h278v338h-88z" />
    <glyph glyph-name="AEacute" unicode="&#x1fc;" horiz-adv-x="1264" 
d="M755 995l-181 -175h-72l119 175h134zM685 102h470v-102h-573v217h-335l-123 -217h-113l422 760h703v-102h-451v-207h406v-102h-406v-247zM494 658l-190 -338h278v338h-88z" />
    <glyph glyph-name="B" unicode="B" horiz-adv-x="775" 
d="M109 0v760h289c160 0 277 -65 277 -202c0 -74 -56 -133 -117 -150c80 -10 161 -84 161 -191c0 -131 -83 -217 -265 -217h-345zM208 448h170c123 0 199 34 199 106c0 69 -52 116 -178 116h-191v-222zM208 90h213c117 0 200 43 200 136c0 80 -71 132 -211 132h-202v-268z
" />
    <glyph glyph-name="C" unicode="C" horiz-adv-x="878" 
d="M455 -16c-233 0 -393 158 -393 393c0 238 159 399 396 399c192 0 340 -117 367 -288h-104c-22 115 -132 193 -271 193c-169 0 -283 -121 -283 -301s115 -301 286 -301c138 0 246 79 268 194h104c-27 -172 -176 -289 -370 -289z" />
    <glyph glyph-name="Cacute" unicode="&#x106;" horiz-adv-x="878" 
d="M568 995l-181 -175h-72l119 175h134zM455 -16c-233 0 -393 158 -393 393c0 238 159 399 396 399c192 0 340 -117 367 -288h-104c-22 115 -132 193 -271 193c-169 0 -283 -121 -283 -301s115 -301 286 -301c138 0 246 79 268 194h104c-27 -172 -176 -289 -370 -289z" />
    <glyph glyph-name="Ccaron" unicode="&#x10c;" horiz-adv-x="878" 
d="M627 995l-130 -175h-112l-130 175h74l113 -116l111 116h74zM455 -16c-233 0 -393 158 -393 393c0 238 159 399 396 399c192 0 340 -117 367 -288h-104c-22 115 -132 193 -271 193c-169 0 -283 -121 -283 -301s115 -301 286 -301c138 0 246 79 268 194h104
c-27 -172 -176 -289 -370 -289z" />
    <glyph glyph-name="Ccedilla" unicode="&#xc7;" horiz-adv-x="878" 
d="M453 79c138 0 246 79 268 194h104c-27 -170 -173 -287 -364 -289l-39 -35h14c52 0 86 -26 86 -65c0 -46 -41 -76 -97 -76h-63v47h55c30 0 50 11 50 28c0 15 -20 25 -50 25h-44v41l37 37c-209 19 -348 172 -348 391c0 238 159 399 396 399c192 0 340 -117 367 -288h-104
c-22 115 -132 193 -271 193c-169 0 -283 -121 -283 -301s115 -301 286 -301z" />
    <glyph glyph-name="Cdotaccent" unicode="&#x10a;" horiz-adv-x="878" 
d="M442 875c-40 0 -72 30 -72 69c0 37 32 67 72 67c39 0 73 -30 73 -67c0 -39 -34 -69 -73 -69zM455 -16c-233 0 -393 158 -393 393c0 238 159 399 396 399c192 0 340 -117 367 -288h-104c-22 115 -132 193 -271 193c-169 0 -283 -121 -283 -301s115 -301 286 -301
c138 0 246 79 268 194h104c-27 -172 -176 -289 -370 -289z" />
    <glyph glyph-name="D" unicode="D" horiz-adv-x="841" 
d="M431 -1l-322 1l1 760h298c226 0 377 -121 377 -384c0 -230 -112 -378 -354 -377zM209 95h201c160 0 270 89 270 286c0 174 -87 284 -270 284h-201v-570z" />
    <glyph glyph-name="Eth" unicode="&#xd0;" horiz-adv-x="841" 
d="M408 760c226 0 377 -121 377 -384c0 -230 -112 -378 -354 -377l-322 1v341h-76v77h77v342h298zM410 95c160 0 270 89 270 286c0 174 -87 284 -270 284h-201v-247h169v-77h-169v-246h201z" />
    <glyph glyph-name="Dcaron" unicode="&#x10e;" horiz-adv-x="841" 
d="M604 995l-130 -175h-112l-130 175h74l113 -116l111 116h74zM431 -1l-322 1l1 760h298c226 0 377 -121 377 -384c0 -230 -112 -378 -354 -377zM209 95h201c160 0 270 89 270 286c0 174 -87 284 -270 284h-201v-570z" />
    <glyph glyph-name="Dcroat" unicode="&#x110;" horiz-adv-x="841" 
d="M408 760c226 0 377 -121 377 -384c0 -230 -112 -378 -354 -377l-322 1v341h-76v77h77v342h298zM410 95c160 0 270 89 270 286c0 174 -87 284 -270 284h-201v-247h169v-77h-169v-246h201z" />
    <glyph glyph-name="E" unicode="E" horiz-adv-x="791" 
d="M209 96h473v-96h-573v760h554v-96h-454v-216h409v-97h-409v-255z" />
    <glyph glyph-name="Eacute" unicode="&#xc9;" horiz-adv-x="791" 
d="M521 995l-181 -175h-72l119 175h134zM209 96h473v-96h-573v760h554v-96h-454v-216h409v-97h-409v-255z" />
    <glyph glyph-name="Ecaron" unicode="&#x11a;" horiz-adv-x="791" 
d="M580 995l-130 -175h-112l-130 175h74l113 -116l111 116h74zM209 96h473v-96h-573v760h554v-96h-454v-216h409v-97h-409v-255z" />
    <glyph glyph-name="Ecircumflex" unicode="&#xca;" horiz-adv-x="791" 
d="M580 820h-74l-111 116l-113 -116h-74l130 175h112zM209 96h473v-96h-573v760h554v-96h-454v-216h409v-97h-409v-255z" />
    <glyph glyph-name="Edieresis" unicode="&#xcb;" horiz-adv-x="791" 
d="M273 905v90h85v-90h-85zM433 905v90h84v-90h-84zM209 96h473v-96h-573v760h554v-96h-454v-216h409v-97h-409v-255z" />
    <glyph glyph-name="Edotaccent" unicode="&#x116;" horiz-adv-x="791" 
d="M395 875c-40 0 -72 30 -72 69c0 37 32 67 72 67c39 0 73 -30 73 -67c0 -39 -34 -69 -73 -69zM209 96h473v-96h-573v760h554v-96h-454v-216h409v-97h-409v-255z" />
    <glyph glyph-name="Egrave" unicode="&#xc8;" horiz-adv-x="791" 
d="M268 995h134l119 -175h-71zM209 96h473v-96h-573v760h554v-96h-454v-216h409v-97h-409v-255z" />
    <glyph glyph-name="Emacron" unicode="&#x112;" horiz-adv-x="791" 
d="M567 878h-345v77h345v-77zM209 96h473v-96h-573v760h554v-96h-454v-216h409v-97h-409v-255z" />
    <glyph glyph-name="Eogonek" unicode="&#x118;" horiz-adv-x="791" 
d="M668 -140c9 0 19 0 33 2v-61c-14 -2 -31 -3 -51 -3c-90 0 -125 47 -125 89c0 56 60 95 90 113h-506v760h554v-96h-454v-216h409v-97h-409v-255h473v-96h-15c-54 -41 -71 -72 -71 -97c0 -27 24 -43 72 -43z" />
    <glyph glyph-name="F" unicode="F" horiz-adv-x="677" 
d="M654 664h-444v-216h388v-97h-388v-351h-101v760h545v-96z" />
    <glyph glyph-name="G" unicode="G" horiz-adv-x="900" 
d="M488 -16c-255 0 -426 159 -426 397s158 395 394 395c192 0 340 -107 369 -267h-104c-25 103 -134 172 -270 172c-171 0 -284 -120 -284 -302c0 -180 129 -300 323 -300c95 0 189 35 236 88v125h-295v97h394v-260c-64 -87 -200 -145 -337 -145z" />
    <glyph glyph-name="Gbreve" unicode="&#x11e;" horiz-adv-x="900" 
d="M577 995h85c0 -105 -79 -175 -199 -175c-119 0 -199 70 -199 175h85c0 -61 46 -101 114 -101c69 0 114 40 114 101zM488 -16c-255 0 -426 159 -426 397s158 395 394 395c192 0 340 -107 369 -267h-104c-25 103 -134 172 -270 172c-171 0 -284 -120 -284 -302
c0 -180 129 -300 323 -300c95 0 189 35 236 88v125h-295v97h394v-260c-64 -87 -200 -145 -337 -145z" />
    <glyph glyph-name="uni0122" unicode="&#x122;" horiz-adv-x="900" 
d="M488 -16c-255 0 -426 159 -426 397s158 395 394 395c192 0 340 -107 369 -267h-104c-25 103 -134 172 -270 172c-171 0 -284 -120 -284 -302c0 -180 129 -300 323 -300c95 0 189 35 236 88v125h-295v97h394v-260c-64 -87 -200 -145 -337 -145zM401 -240l37 170h88
l-70 -170h-55z" />
    <glyph glyph-name="Gdotaccent" unicode="&#x120;" horiz-adv-x="900" 
d="M463 875c-40 0 -72 30 -72 69c0 37 32 67 72 67c39 0 73 -30 73 -67c0 -39 -34 -69 -73 -69zM488 -16c-255 0 -426 159 -426 397s158 395 394 395c192 0 340 -107 369 -267h-104c-25 103 -134 172 -270 172c-171 0 -284 -120 -284 -302c0 -180 129 -300 323 -300
c95 0 189 35 236 88v125h-295v97h394v-260c-64 -87 -200 -145 -337 -145z" />
    <glyph glyph-name="H" unicode="H" horiz-adv-x="838" 
d="M628 760h101v-760h-101v351h-418v-351h-101v760h101v-312h418v312z" />
    <glyph glyph-name="Hbar" unicode="&#x126;" horiz-adv-x="838" 
d="M764 616v-77h-35v-539h-101v351h-418v-351h-101v539h-34v77h34v144h101v-144h418v144h101v-144h35zM628 448v91h-418v-91h418z" />
    <glyph glyph-name="I" unicode="I" horiz-adv-x="271" 
d="M85 0v760h101v-760h-101z" />
    <glyph glyph-name="Iacute" unicode="&#xcd;" horiz-adv-x="271" 
d="M260 995l-181 -175h-72l119 175h134zM85 0v760h101v-760h-101z" />
    <glyph glyph-name="Icircumflex" unicode="&#xce;" horiz-adv-x="271" 
d="M319 820h-74l-111 116l-113 -116h-74l130 175h112zM85 0v760h101v-760h-101z" />
    <glyph glyph-name="Idieresis" unicode="&#xcf;" horiz-adv-x="271" 
d="M12 905v90h85v-90h-85zM172 905v90h84v-90h-84zM85 0v760h101v-760h-101z" />
    <glyph glyph-name="Idotaccent" unicode="&#x130;" horiz-adv-x="271" 
d="M134 875c-40 0 -72 30 -72 69c0 37 32 67 72 67c39 0 73 -30 73 -67c0 -39 -34 -69 -73 -69zM85 0v760h101v-760h-101z" />
    <glyph glyph-name="Igrave" unicode="&#xcc;" horiz-adv-x="271" 
d="M7 995h134l119 -175h-71zM85 0v760h101v-760h-101z" />
    <glyph glyph-name="Imacron" unicode="&#x12a;" horiz-adv-x="271" 
d="M306 878h-345v77h345v-77zM85 0v760h101v-760h-101z" />
    <glyph glyph-name="Iogonek" unicode="&#x12e;" horiz-adv-x="271" 
d="M177 -140c9 0 19 0 33 2v-61c-14 -2 -31 -3 -51 -3c-90 0 -125 47 -125 89c0 56 60 95 90 113h-39v760h101v-760h-10c-54 -41 -71 -72 -71 -97c0 -27 24 -43 72 -43z" />
    <glyph glyph-name="J" unicode="J" horiz-adv-x="638" 
d="M303 -16c-169 0 -271 84 -283 242h101c13 -98 70 -147 173 -147c150 0 156 103 156 301v380h103v-382c0 -227 -7 -394 -250 -394z" />
    <glyph glyph-name="K" unicode="K" horiz-adv-x="728" 
d="M697 0h-128l-359 355v-355h-101v760h101v-349l343 349h128l-369 -372z" />
    <glyph glyph-name="uni0136" unicode="&#x136;" horiz-adv-x="728" 
d="M312 388l385 -388h-128l-359 355v-355h-101v760h101v-349l343 349h128zM291 -240l37 170h88l-70 -170h-55z" />
    <glyph glyph-name="L" unicode="L" horiz-adv-x="672" 
d="M209 96h443v-96h-543v760h100v-664z" />
    <glyph glyph-name="Lacute" unicode="&#x139;" horiz-adv-x="672" 
d="M462 995l-181 -175h-72l119 175h134zM209 96h443v-96h-543v760h100v-664z" />
    <glyph glyph-name="Lcaron" unicode="&#x13d;" horiz-adv-x="672" 
d="M209 96h443v-96h-543v760h100v-664zM612 760l-105 -175h-54l48 175h111z" />
    <glyph glyph-name="uni013B" unicode="&#x13b;" horiz-adv-x="672" 
d="M209 96h443v-96h-543v760h100v-664zM274 -240l37 170h88l-70 -170h-55z" />
    <glyph glyph-name="Lslash" unicode="&#x141;" horiz-adv-x="672" 
d="M209 96h443v-96h-543v362l-105 -65v107l105 65v291h100v-229l114 71v-107l-114 -71v-328z" />
    <glyph glyph-name="M" unicode="M" horiz-adv-x="941" 
d="M109 0v760h111l251 -645l251 645h110v-760h-99v541l-207 -541h-111l-207 541v-541h-99z" />
    <glyph glyph-name="N" unicode="N" horiz-adv-x="838" 
d="M109 0v760h100l419 -605v605h101v-760h-107l-412 579v-579h-101z" />
    <glyph glyph-name="Nacute" unicode="&#x143;" horiz-adv-x="838" 
d="M543 995l-181 -175h-72l119 175h134zM109 0v760h100l419 -605v605h101v-760h-107l-412 579v-579h-101z" />
    <glyph glyph-name="Ncaron" unicode="&#x147;" horiz-adv-x="838" 
d="M602 995l-130 -175h-112l-130 175h74l113 -116l111 116h74zM109 0v760h100l419 -605v605h101v-760h-107l-412 579v-579h-101z" />
    <glyph glyph-name="uni0145" unicode="&#x145;" horiz-adv-x="838" 
d="M109 0v760h100l419 -605v605h101v-760h-107l-412 579v-579h-101zM355 -240l37 170h88l-70 -170h-55z" />
    <glyph glyph-name="Eng" unicode="&#x14a;" horiz-adv-x="838" 
d="M520 -240c-188 0 -221 121 -220 185h105c0 -18 5 -94 111 -94c99 0 107 68 109 140l-413 588v-579h-103v760h104l413 -605v605h103v-760c0 -105 -9 -240 -209 -240z" />
    <glyph glyph-name="Ntilde" unicode="&#xd1;" horiz-adv-x="838" 
d="M345 975c65 0 91 -62 133 -62c25 0 43 22 43 57h71c0 -88 -45 -130 -103 -130c-74 0 -96 63 -136 63c-24 0 -40 -23 -40 -58h-71c0 75 44 130 103 130zM109 0v760h100l419 -605v605h101v-760h-107l-412 579v-579h-101z" />
    <glyph glyph-name="O" unicode="O" horiz-adv-x="923" 
d="M463 -16c-239 0 -401 159 -401 396s162 396 401 396c237 0 398 -159 398 -396s-161 -396 -398 -396zM461 79c177 0 295 122 295 301s-118 301 -295 301c-176 0 -294 -122 -294 -301s118 -301 294 -301z" />
    <glyph glyph-name="Oacute" unicode="&#xd3;" horiz-adv-x="923" 
d="M587 995l-181 -175h-72l119 175h134zM463 -16c-239 0 -401 159 -401 396s162 396 401 396c237 0 398 -159 398 -396s-161 -396 -398 -396zM461 79c177 0 295 122 295 301s-118 301 -295 301c-176 0 -294 -122 -294 -301s118 -301 294 -301z" />
    <glyph glyph-name="Ocircumflex" unicode="&#xd4;" horiz-adv-x="923" 
d="M646 820h-74l-111 116l-113 -116h-74l130 175h112zM463 -16c-239 0 -401 159 -401 396s162 396 401 396c237 0 398 -159 398 -396s-161 -396 -398 -396zM461 79c177 0 295 122 295 301s-118 301 -295 301c-176 0 -294 -122 -294 -301s118 -301 294 -301z" />
    <glyph glyph-name="Odieresis" unicode="&#xd6;" horiz-adv-x="923" 
d="M339 905v90h85v-90h-85zM499 905v90h84v-90h-84zM463 -16c-239 0 -401 159 -401 396s162 396 401 396c237 0 398 -159 398 -396s-161 -396 -398 -396zM461 79c177 0 295 122 295 301s-118 301 -295 301c-176 0 -294 -122 -294 -301s118 -301 294 -301z" />
    <glyph glyph-name="Ograve" unicode="&#xd2;" horiz-adv-x="923" 
d="M334 995h134l119 -175h-71zM463 -16c-239 0 -401 159 -401 396s162 396 401 396c237 0 398 -159 398 -396s-161 -396 -398 -396zM461 79c177 0 295 122 295 301s-118 301 -295 301c-176 0 -294 -122 -294 -301s118 -301 294 -301z" />
    <glyph glyph-name="Ohungarumlaut" unicode="&#x150;" horiz-adv-x="923" 
d="M472 995l-181 -175h-72l119 175h134zM701 995l-181 -175h-72l119 175h134zM463 -16c-239 0 -401 159 -401 396s162 396 401 396c237 0 398 -159 398 -396s-161 -396 -398 -396zM461 79c177 0 295 122 295 301s-118 301 -295 301c-176 0 -294 -122 -294 -301
s118 -301 294 -301z" />
    <glyph glyph-name="Omacron" unicode="&#x14c;" horiz-adv-x="923" 
d="M633 878h-345v77h345v-77zM463 -16c-239 0 -401 159 -401 396s162 396 401 396c237 0 398 -159 398 -396s-161 -396 -398 -396zM461 79c177 0 295 122 295 301s-118 301 -295 301c-176 0 -294 -122 -294 -301s118 -301 294 -301z" />
    <glyph glyph-name="Oslash" unicode="&#xd8;" horiz-adv-x="923" 
d="M723 692c87 -70 138 -178 138 -312c0 -237 -161 -396 -398 -396c-77 0 -145 16 -203 46l-62 -88h-86l89 127c-88 69 -139 178 -139 311c0 237 162 396 401 396c75 0 143 -16 201 -46l61 88h86zM167 380c0 -96 34 -175 92 -228l347 496c-41 21 -90 33 -145 33
c-176 0 -294 -122 -294 -301zM461 79c177 0 295 122 295 301c0 96 -34 175 -92 228l-347 -496c41 -21 90 -33 144 -33z" />
    <glyph glyph-name="Otilde" unicode="&#xd5;" horiz-adv-x="923" 
d="M389 975c65 0 91 -62 133 -62c25 0 43 22 43 57h71c0 -88 -45 -130 -103 -130c-74 0 -96 63 -136 63c-24 0 -40 -23 -40 -58h-71c0 75 44 130 103 130zM463 -16c-239 0 -401 159 -401 396s162 396 401 396c237 0 398 -159 398 -396s-161 -396 -398 -396zM461 79
c177 0 295 122 295 301s-118 301 -295 301c-176 0 -294 -122 -294 -301s118 -301 294 -301z" />
    <glyph glyph-name="OE" unicode="&#x152;" horiz-adv-x="1438" 
d="M461 -16c-238 0 -399 159 -399 396s161 396 399 396c124 0 224 -39 295 -108v94h555v-96h-451v-216h406v-97h-406v-255h469v-96h-573v91c-71 -70 -171 -109 -295 -109zM460 79c177 0 295 122 295 301s-118 301 -295 301c-175 0 -294 -122 -294 -301s119 -301 294 -301z
" />
    <glyph glyph-name="P" unicode="P" horiz-adv-x="731" 
d="M109 0v760h312c153 0 254 -69 254 -213c0 -126 -80 -209 -254 -209h-213v-338h-99zM208 428h192c109 0 177 38 177 120c0 73 -52 122 -177 122h-192v-242z" />
    <glyph glyph-name="Thorn" unicode="&#xde;" horiz-adv-x="731" 
d="M387 602c136 0 288 -23 288 -213c0 -186 -145 -209 -276 -209h-187v-180h-103v760h103v-158h175zM389 280c84 0 179 1 179 110c0 110 -96 111 -179 111h-177v-221h177z" />
    <glyph glyph-name="Q" unicode="Q" horiz-adv-x="923" 
d="M861 380c0 -141 -57 -255 -154 -324l154 -122h-138l-99 78c-48 -18 -102 -28 -161 -28c-239 0 -401 159 -401 396s162 396 401 396c237 0 398 -159 398 -396zM461 79c25 0 48 2 70 7l-141 112h138l96 -76c83 50 132 142 132 258c0 179 -118 301 -295 301
c-176 0 -294 -122 -294 -301s118 -301 294 -301z" />
    <glyph glyph-name="R" unicode="R" horiz-adv-x="726" 
d="M109 0v760h289c173 0 277 -65 277 -203c0 -161 -159 -194 -340 -194l372 -363h-125l-374 363v-363h-99zM208 448h208c81 0 160 35 160 110c0 67 -52 112 -178 112h-190v-222z" />
    <glyph glyph-name="Racute" unicode="&#x154;" horiz-adv-x="726" 
d="M489 995l-181 -175h-72l119 175h134zM109 0v760h289c173 0 277 -65 277 -203c0 -115 -103 -194 -275 -194h-65l372 -363h-125l-374 363v-363h-99zM208 448h208c81 0 160 35 160 110c0 67 -52 112 -178 112h-190v-222z" />
    <glyph glyph-name="Rcaron" unicode="&#x158;" horiz-adv-x="726" 
d="M548 995l-130 -175h-112l-130 175h74l113 -116l111 116h74zM109 0v760h289c173 0 277 -65 277 -203c0 -115 -103 -194 -275 -194h-65l372 -363h-125l-374 363v-363h-99zM208 448h208c81 0 160 35 160 110c0 67 -52 112 -178 112h-190v-222z" />
    <glyph glyph-name="uni0156" unicode="&#x156;" horiz-adv-x="726" 
d="M109 0v760h289c173 0 277 -65 277 -203c0 -115 -103 -194 -275 -194h-65l372 -363h-125l-374 363v-363h-99zM208 448h208c81 0 160 35 160 110c0 67 -52 112 -178 112h-190v-222zM301 -240l37 170h88l-70 -170h-55z" />
    <glyph glyph-name="S" unicode="S" horiz-adv-x="735" 
d="M401 -16c-248 0 -353 120 -366 262h104c35 -132 141 -169 280 -169c113 0 188 37 187 114c1 83 -84 109 -142 124c-55 14 -123 25 -204 51c-101 32 -176 77 -176 185c0 167 161 225 295 225c191 0 294 -106 298 -254h-101c-12 132 -122 160 -209 160
c-54 0 -181 -13 -180 -118c-1 -56 32 -84 104 -106c58 -18 89 -24 152 -38c69 -15 257 -47 256 -218c1 -151 -98 -218 -298 -218z" />
    <glyph glyph-name="Sacute" unicode="&#x15a;" horiz-adv-x="735" 
d="M494 995l-181 -175h-72l119 175h134zM401 -16c-248 0 -353 120 -366 262h104c35 -132 141 -169 280 -169c113 0 188 37 187 114c1 83 -84 109 -142 124c-55 14 -123 25 -204 51c-101 32 -176 77 -176 185c0 167 161 225 295 225c191 0 294 -106 298 -254h-101
c-12 132 -122 160 -209 160c-54 0 -181 -13 -180 -118c-1 -56 32 -84 104 -106c58 -18 89 -24 152 -38c69 -15 257 -47 256 -218c1 -151 -98 -218 -298 -218z" />
    <glyph glyph-name="Scaron" unicode="&#x160;" horiz-adv-x="735" 
d="M553 995l-130 -175h-112l-130 175h74l113 -116l111 116h74zM401 -16c-248 0 -353 120 -366 262h104c35 -132 141 -169 280 -169c113 0 188 37 187 114c1 83 -84 109 -142 124c-55 14 -123 25 -204 51c-101 32 -176 77 -176 185c0 167 161 225 295 225
c191 0 294 -106 298 -254h-101c-12 132 -122 160 -209 160c-54 0 -181 -13 -180 -118c-1 -56 32 -84 104 -106c58 -18 89 -24 152 -38c69 -15 257 -47 256 -218c1 -151 -98 -218 -298 -218z" />
    <glyph glyph-name="Scedilla" unicode="&#x15e;" horiz-adv-x="735" 
d="M401 -16h-14l-39 -35h14c52 0 86 -26 86 -65c0 -46 -41 -76 -97 -76h-63v47h55c30 0 50 11 50 28c0 15 -20 25 -50 25h-44v41l37 38c-201 19 -289 130 -301 259h104c35 -132 141 -169 280 -169c113 0 188 37 187 114c1 83 -84 109 -142 124c-55 14 -123 25 -204 51
c-101 32 -176 77 -176 185c0 167 161 225 295 225c191 0 294 -106 298 -254h-101c-12 132 -122 160 -209 160c-54 0 -181 -13 -180 -118c-1 -56 32 -84 104 -106c58 -18 89 -24 152 -38c69 -15 257 -47 256 -218c1 -151 -98 -218 -298 -218z" />
    <glyph glyph-name="uni0218" unicode="&#x218;" horiz-adv-x="735" 
d="M401 -16c-248 0 -353 120 -366 262h104c35 -132 141 -169 280 -169c113 0 188 37 187 114c1 83 -84 109 -142 124c-55 14 -123 25 -204 51c-101 32 -176 77 -176 185c0 167 161 225 295 225c191 0 294 -106 298 -254h-101c-12 132 -122 160 -209 160
c-54 0 -181 -13 -180 -118c-1 -56 32 -84 104 -106c58 -18 89 -24 152 -38c69 -15 257 -47 256 -218c1 -151 -98 -218 -298 -218zM306 -240l37 170h88l-70 -170h-55z" />
    <glyph glyph-name="T" unicode="T" horiz-adv-x="635" 
d="M624 664h-256v-664h-100v664h-257v96h612z" />
    <glyph glyph-name="Tbar" unicode="&#x166;" horiz-adv-x="635" 
d="M368 664v-246h122v-77h-122v-341h-100v341h-123v77h123v246h-257v96h612l1 -96h-256z" />
    <glyph glyph-name="Tcaron" unicode="&#x164;" horiz-adv-x="635" 
d="M503 995l-130 -175h-112l-130 175h74l113 -116l111 116h74zM624 664h-256v-664h-100v664h-257v96h612z" />
    <glyph glyph-name="uni0162" unicode="&#x162;" horiz-adv-x="635" 
d="M312 -51c52 0 86 -26 86 -65c0 -46 -41 -76 -97 -76h-63v47h55c30 0 50 11 50 28c0 15 -20 25 -50 25h-44v41l50 51h-31v664h-257v96h612l1 -96h-256v-640h13l-13 -12v-12h-14l-56 -51h14z" />
    <glyph glyph-name="uni021A" unicode="&#x21a;" horiz-adv-x="635" 
d="M624 664h-256v-664h-100v664h-257v96h612zM256 -240l37 170h88l-70 -170h-55z" />
    <glyph glyph-name="U" unicode="U" horiz-adv-x="804" 
d="M419 -16c-292 0 -310 180 -310 377v399h101v-394c0 -162 16 -287 209 -287s209 125 209 287v394h101v-399c0 -198 -18 -377 -310 -377z" />
    <glyph glyph-name="Uacute" unicode="&#xda;" horiz-adv-x="804" 
d="M543 995l-181 -175h-72l119 175h134zM419 -16c-292 0 -310 180 -310 377v399h101v-394c0 -162 16 -287 209 -287s209 125 209 287v394h101v-399c0 -198 -18 -377 -310 -377z" />
    <glyph glyph-name="Ucircumflex" unicode="&#xdb;" horiz-adv-x="804" 
d="M602 820h-74l-111 116l-113 -116h-74l130 175h112zM419 -16c-292 0 -310 180 -310 377v399h101v-394c0 -162 16 -287 209 -287s209 125 209 287v394h101v-399c0 -198 -18 -377 -310 -377z" />
    <glyph glyph-name="Udieresis" unicode="&#xdc;" horiz-adv-x="804" 
d="M295 905v90h85v-90h-85zM455 905v90h84v-90h-84zM419 -16c-292 0 -310 180 -310 377v399h101v-394c0 -162 16 -287 209 -287s209 125 209 287v394h101v-399c0 -198 -18 -377 -310 -377z" />
    <glyph glyph-name="Ugrave" unicode="&#xd9;" horiz-adv-x="804" 
d="M290 995h134l119 -175h-71zM419 -16c-292 0 -310 180 -310 377v399h101v-394c0 -162 16 -287 209 -287s209 125 209 287v394h101v-399c0 -198 -18 -377 -310 -377z" />
    <glyph glyph-name="Uhungarumlaut" unicode="&#x170;" horiz-adv-x="804" 
d="M428 995l-181 -175h-72l119 175h134zM657 995l-181 -175h-72l119 175h134zM419 -16c-292 0 -310 180 -310 377v399h101v-394c0 -162 16 -287 209 -287s209 125 209 287v394h101v-399c0 -198 -18 -377 -310 -377z" />
    <glyph glyph-name="Umacron" unicode="&#x16a;" horiz-adv-x="804" 
d="M589 878h-345v77h345v-77zM419 -16c-292 0 -310 180 -310 377v399h101v-394c0 -162 16 -287 209 -287s209 125 209 287v394h101v-399c0 -198 -18 -377 -310 -377z" />
    <glyph glyph-name="Uogonek" unicode="&#x172;" horiz-adv-x="804" 
d="M628 760h101v-399c0 -193 -17 -368 -289 -377c-39 -33 -52 -60 -52 -81c0 -27 24 -43 72 -43c9 0 19 0 33 2v-61c-14 -2 -31 -3 -51 -3c-90 0 -125 47 -125 89c0 43 36 77 67 98c-258 14 -275 187 -275 376v399h101v-394c0 -162 16 -287 209 -287s209 125 209 287v394z
" />
    <glyph glyph-name="Uring" unicode="&#x16e;" horiz-adv-x="804" 
d="M417 839c-56 0 -93 34 -93 86c0 50 37 83 93 83s93 -33 93 -83c0 -52 -37 -86 -93 -86zM417 887c24 0 41 15 41 37s-17 36 -41 36c-25 0 -42 -14 -42 -36s17 -37 42 -37zM419 -16c-292 0 -310 180 -310 377v399h101v-394c0 -162 16 -287 209 -287s209 125 209 287v394
h101v-399c0 -198 -18 -377 -310 -377z" />
    <glyph glyph-name="V" unicode="V" horiz-adv-x="812" 
d="M351 0l-331 760h113l273 -641l273 641h113l-331 -760h-110z" />
    <glyph glyph-name="W" unicode="W" horiz-adv-x="1191" 
d="M253 0l-233 760h113l174 -641l223 641h130l223 -641l175 641h113l-234 -760h-109l-233 656l-233 -656h-109z" />
    <glyph glyph-name="Wacute" unicode="&#x1e82;" horiz-adv-x="1191" 
d="M721 995l-181 -175h-72l119 175h134zM253 0l-233 760h113l174 -641l223 641h130l223 -641l175 641h113l-234 -760h-109l-233 656l-233 -656h-109z" />
    <glyph glyph-name="Wcircumflex" unicode="&#x174;" horiz-adv-x="1191" 
d="M780 820h-74l-111 116l-113 -116h-74l130 175h112zM253 0l-233 760h113l174 -641l223 641h130l223 -641l175 641h113l-234 -760h-109l-233 656l-233 -656h-109z" />
    <glyph glyph-name="Wdieresis" unicode="&#x1e84;" horiz-adv-x="1191" 
d="M473 905v90h85v-90h-85zM633 905v90h84v-90h-84zM253 0l-233 760h113l174 -641l223 641h130l223 -641l175 641h113l-234 -760h-109l-233 656l-233 -656h-109z" />
    <glyph glyph-name="Wgrave" unicode="&#x1e80;" horiz-adv-x="1191" 
d="M468 995h134l119 -175h-71zM253 0l-233 760h113l174 -641l223 641h130l223 -641l175 641h113l-234 -760h-109l-233 656l-233 -656h-109z" />
    <glyph glyph-name="X" unicode="X" horiz-adv-x="734" 
d="M703 0h-121l-215 303l-214 -303h-122l276 383l-260 377h122l198 -293l199 293h121l-260 -377z" />
    <glyph glyph-name="Y" unicode="Y" horiz-adv-x="739" 
d="M319 0v263l-292 497h115l228 -404l227 404h115l-293 -497v-263h-100z" />
    <glyph glyph-name="Yacute" unicode="&#xdd;" horiz-adv-x="739" 
d="M496 995l-181 -175h-72l119 175h134zM319 0v263l-292 497h115l228 -404l227 404h115l-293 -497v-263h-100z" />
    <glyph glyph-name="Ycircumflex" unicode="&#x176;" horiz-adv-x="739" 
d="M555 820h-74l-111 116l-113 -116h-74l130 175h112zM319 0v263l-292 497h115l228 -404l227 404h115l-293 -497v-263h-100z" />
    <glyph glyph-name="Ydieresis" unicode="&#x178;" horiz-adv-x="739" 
d="M248 905v90h85v-90h-85zM408 905v90h84v-90h-84zM319 0v263l-292 497h115l228 -404l227 404h115l-293 -497v-263h-100z" />
    <glyph glyph-name="Ygrave" unicode="&#x1ef2;" horiz-adv-x="739" 
d="M243 995h134l119 -175h-71zM319 0v263l-292 497h115l228 -404l227 404h115l-293 -497v-263h-100z" />
    <glyph glyph-name="Z" unicode="Z" horiz-adv-x="707" 
d="M163 96h504v-96h-619v96l458 568h-447v96h562l1 -96z" />
    <glyph glyph-name="Zacute" unicode="&#x179;" horiz-adv-x="707" 
d="M483 995l-181 -175h-72l119 175h134zM163 96h504v-96h-619v96l458 568h-447v96h562l1 -96z" />
    <glyph glyph-name="Zcaron" unicode="&#x17d;" horiz-adv-x="707" 
d="M542 995l-130 -175h-112l-130 175h74l113 -116l111 116h74zM163 96h504v-96h-619v96l458 568h-447v96h562l1 -96z" />
    <glyph glyph-name="Zdotaccent" unicode="&#x17b;" horiz-adv-x="707" 
d="M357 875c-40 0 -72 30 -72 69c0 37 32 67 72 67c39 0 73 -30 73 -67c0 -39 -34 -69 -73 -69zM163 96h504v-96h-619v96l458 568h-447v96h562l1 -96z" />
    <glyph glyph-name="I.ss01" horiz-adv-x="783" 
d="M85 0v96h257v568h-257v96h612l1 -96h-256v-568h256l-1 -96h-612z" />
    <glyph glyph-name="Iacute.ss01" horiz-adv-x="735" 
d="M487 995l-165 -175h-74l108 175h131zM85 0v96h233v568h-233v96h564l1 -96h-232v-568h232l-1 -96h-564z" />
    <glyph glyph-name="Icircumflex.ss01" horiz-adv-x="783" 
d="M577 820h-74l-111 116l-113 -116h-74l130 175h112zM85 0v96h257v568h-257v96h612l1 -96h-256v-568h256l-1 -96h-612z" />
    <glyph glyph-name="Idieresis.ss01" horiz-adv-x="783" 
d="M311 894c-27 0 -52 22 -52 52c0 27 25 49 52 49c33 0 53 -22 53 -49c0 -30 -24 -52 -53 -52zM465 894c-29 0 -53 22 -53 52c0 27 24 49 53 49c31 0 52 -22 52 -49c0 -30 -25 -52 -52 -52zM85 0v96h257v568h-257v96h612l1 -96h-256v-568h256l-1 -96h-612z" />
    <glyph glyph-name="Idotaccent.ss01" horiz-adv-x="783" 
d="M370 875c-40 0 -72 30 -72 69c0 37 32 67 72 67c39 0 73 -30 73 -67c0 -39 -34 -69 -73 -69zM85 0v96h257v568h-257v96h612l1 -96h-256v-568h256l-1 -96h-612z" />
    <glyph glyph-name="Igrave.ss01" horiz-adv-x="783" 
d="M242 995h134l119 -175h-71zM85 0v96h257v568h-257v96h612l1 -96h-256v-568h256l-1 -96h-612z" />
    <glyph glyph-name="Imacron.ss01" horiz-adv-x="783" 
d="M553 878h-345v77h345v-77zM85 0v96h257v568h-257v96h612l1 -96h-256v-568h256l-1 -96h-612z" />
    <glyph glyph-name="Iogonek.ss01" horiz-adv-x="783" 
d="M442 664v-568h256l-1 -96h-297c-54 -41 -71 -72 -71 -97c0 -27 24 -43 72 -43c9 0 19 0 33 2v-61c-14 -2 -31 -3 -51 -3c-90 0 -125 47 -125 89c0 56 60 95 90 113h-263v96h257v568h-257v96h612l1 -96h-256z" />
    <glyph glyph-name="J.ss01" horiz-adv-x="638" 
d="M303 -16c-169 0 -271 84 -283 242h101c13 -98 70 -147 173 -147c154 0 159 103 159 301v284h-367v96h467v-382c0 -227 -7 -394 -250 -394z" />
    <glyph glyph-name="K.ss01" horiz-adv-x="750" 
d="M471 392l248 -392h-116l-191 289l-193 -289l-9 1v-1h-101v760h101v-604l377 604h116z" />
    <glyph glyph-name="uni0136.ss01" horiz-adv-x="750" 
d="M471 392l248 -392h-116l-191 289l-193 -289l-9 1v-1h-101v760h101v-604l377 604h116zM286 -240l37 170h88l-70 -170h-55z" />
    <glyph glyph-name="M.ss01" horiz-adv-x="941" 
d="M109 0v760h114l248 -509l247 509h114v-760h-99v589l-207 -422h-111l-207 422v-589h-99z" />
    <glyph glyph-name="Q.ss01" horiz-adv-x="923" 
d="M463 -16c-22 0 -43 1 -64 4l-49 -72h324v-87h-426v87l63 93c-153 53 -249 189 -249 371c0 237 162 396 401 396c237 0 398 -159 398 -396s-161 -396 -398 -396zM167 380c0 -179 118 -301 294 -301c177 0 295 122 295 301s-118 301 -295 301c-176 0 -294 -122 -294 -301z
" />
    <glyph glyph-name="R.ss01" horiz-adv-x="738" 
d="M109 0v760h289c173 0 277 -65 277 -203c0 -116 -89 -191 -277 -195l309 -362h-117l-317 362h-65v-362h-99zM208 448h208c81 0 160 34 160 109c0 68 -52 113 -178 113h-190v-222z" />
    <glyph glyph-name="Racute.ss01" horiz-adv-x="726" 
d="M509 995l-181 -175h-72l119 175h134zM109 0v760h289c173 0 277 -65 277 -203c0 -116 -89 -191 -277 -195l309 -362h-117l-317 362h-65v-362h-99zM208 448h208c81 0 160 34 160 109c0 68 -52 113 -178 113h-190v-222z" />
    <glyph glyph-name="Rcaron.ss01" horiz-adv-x="726" 
d="M576 995l-130 -175h-112l-130 175h74l113 -116l111 116h74zM109 0v760h289c173 0 277 -65 277 -203c0 -116 -89 -191 -277 -195l309 -362h-117l-317 362h-65v-362h-99zM208 448h208c81 0 160 34 160 109c0 68 -52 113 -178 113h-190v-222z" />
    <glyph glyph-name="uni0156.ss01" horiz-adv-x="726" 
d="M109 0v760h289c173 0 277 -65 277 -203c0 -116 -89 -191 -277 -195l309 -362h-117l-317 362h-65v-362h-99zM208 448h208c81 0 160 34 160 109c0 68 -52 113 -178 113h-190v-222zM318 -240l37 170h88l-70 -170h-55z" />
    <glyph glyph-name="U.ss01" horiz-adv-x="804" 
d="M415 -16c-287 0 -306 169 -306 372v404h101v-399c0 -164 16 -282 209 -282s209 118 209 282v399h101v-760h-101v73c-42 -67 -108 -89 -213 -89z" />
    <glyph glyph-name="Uacute.ss01" horiz-adv-x="804" 
d="M520 995l-181 -175h-72l119 175h134zM415 -16c-287 0 -306 169 -306 372v404h101v-399c0 -164 16 -282 209 -282s209 118 209 282v399h101v-760h-101v73c-42 -67 -108 -89 -213 -89z" />
    <glyph glyph-name="Ucircumflex.ss01" horiz-adv-x="736" 
d="M587 820h-74l-111 116l-113 -116h-74l130 175h112zM416 -16c-287 0 -306 169 -306 372v404h101v-399c0 -164 16 -282 209 -282s209 118 209 282v399h101v-760h-101v73c-42 -67 -108 -89 -213 -89z" />
    <glyph glyph-name="Udieresis.ss01" horiz-adv-x="804" 
d="M277 905v90h85v-90h-85zM437 905v90h84v-90h-84zM415 -16c-287 0 -306 169 -306 372v404h101v-399c0 -164 16 -282 209 -282s209 118 209 282v399h101v-760h-101v73c-42 -67 -108 -89 -213 -89z" />
    <glyph glyph-name="Ugrave.ss01" horiz-adv-x="804" 
d="M266 995h134l119 -175h-71zM415 -16c-287 0 -306 169 -306 372v404h101v-399c0 -164 16 -282 209 -282s209 118 209 282v399h101v-760h-101v73c-42 -67 -108 -89 -213 -89z" />
    <glyph glyph-name="Uhungarumlaut.ss01" horiz-adv-x="804" 
d="M411 995l-181 -175h-72l119 175h134zM640 995l-181 -175h-72l119 175h134zM415 -16c-287 0 -306 169 -306 372v404h101v-399c0 -164 16 -282 209 -282s209 118 209 282v399h101v-760h-101v73c-42 -67 -108 -89 -213 -89z" />
    <glyph glyph-name="Umacron.ss01" horiz-adv-x="804" 
d="M576 878h-345v77h345v-77zM415 -16c-287 0 -306 169 -306 372v404h101v-399c0 -164 16 -282 209 -282s209 118 209 282v399h101v-760h-101v73c-42 -67 -108 -89 -213 -89z" />
    <glyph glyph-name="Uogonek.ss01" horiz-adv-x="756" 
d="M581 760h100v-760h-100v73c-32 -57 -80 -81 -151 -87c-37 -34 -49 -61 -49 -83c0 -27 22 -43 66 -43c8 0 17 0 30 2v-61c-13 -2 -28 -3 -47 -3c-83 0 -115 47 -115 89c0 43 32 76 60 97c-243 6 -266 173 -266 372v404h100v-399c0 -164 14 -282 186 -282s186 118 186 282
v399z" />
    <glyph glyph-name="Uring.ss01" horiz-adv-x="804" 
d="M397 839c-56 0 -93 34 -93 86c0 50 37 83 93 83s93 -33 93 -83c0 -52 -37 -86 -93 -86zM397 887c24 0 41 15 41 37s-17 36 -41 36c-25 0 -42 -14 -42 -36s17 -37 42 -37zM415 -16c-287 0 -306 169 -306 372v404h101v-399c0 -164 16 -282 209 -282s209 118 209 282v399
h101v-760h-101v73c-42 -67 -108 -89 -213 -89z" />
    <glyph glyph-name="X.ss01" horiz-adv-x="778" 
d="M31 0l276 383l-260 377h122l220 -326l221 326h121l-260 -377l276 -383h-121l-237 334l-236 -334h-122z" />
    <glyph glyph-name="a" unicode="a" horiz-adv-x="652" 
d="M236 -11c-154 0 -202 85 -202 159c0 48 21 88 64 119c48 34 126 54 305 54h30v30c0 63 -34 106 -133 106c-106 0 -138 -45 -140 -83h-96c2 72 49 166 238 166c136 0 229 -51 229 -225v-187c0 -47 12 -60 61 -60v-75h-15c-68 0 -124 32 -132 80h-1
c-41 -48 -125 -84 -208 -84zM252 68c122 0 182 68 182 106v77h-35c-147 0 -270 -16 -270 -103c0 -49 41 -80 123 -80z" />
    <glyph glyph-name="aacute" unicode="&#xe1;" horiz-adv-x="652" 
d="M432 760l-181 -175h-72l119 175h134zM236 -11c-154 0 -202 85 -202 159c0 48 21 88 64 119c48 34 126 54 305 54h30v30c0 63 -34 106 -133 106c-106 0 -138 -45 -140 -83h-96c2 72 49 166 238 166c136 0 229 -51 229 -225v-187c0 -47 12 -60 61 -60v-75h-5
c-78 0 -134 32 -142 80h-1c-41 -48 -125 -84 -208 -84zM252 68c122 0 182 68 182 106v77h-35c-147 0 -270 -16 -270 -103c0 -49 41 -80 123 -80z" />
    <glyph glyph-name="abreve" unicode="&#x103;" horiz-adv-x="652" 
d="M420 760h85c0 -105 -79 -175 -199 -175c-119 0 -199 70 -199 175h85c0 -61 46 -101 114 -101c69 0 114 40 114 101zM236 -11c-154 0 -202 85 -202 159c0 48 21 88 64 119c48 34 126 54 305 54h30v30c0 63 -34 106 -133 106c-106 0 -138 -45 -140 -83h-96
c2 72 49 166 238 166c136 0 229 -51 229 -225v-187c0 -47 12 -60 61 -60v-75h-5c-78 0 -134 32 -142 80h-1c-41 -48 -125 -84 -208 -84zM252 68c122 0 182 68 182 106v77h-35c-147 0 -270 -16 -270 -103c0 -49 41 -80 123 -80z" />
    <glyph glyph-name="acircumflex" unicode="&#xe2;" horiz-adv-x="652" 
d="M491 585h-74l-111 116l-113 -116h-74l130 175h112zM236 -11c-154 0 -202 85 -202 159c0 48 21 88 64 119c48 34 126 54 305 54h30v30c0 63 -34 106 -133 106c-106 0 -138 -45 -140 -83h-96c2 72 49 166 238 166c136 0 229 -51 229 -225v-187c0 -47 12 -60 61 -60v-75h-5
c-78 0 -134 32 -142 80h-1c-41 -48 -125 -84 -208 -84zM252 68c122 0 182 68 182 106v77h-35c-147 0 -270 -16 -270 -103c0 -49 41 -80 123 -80z" />
    <glyph glyph-name="adieresis" unicode="&#xe4;" horiz-adv-x="652" 
d="M171 670v90h85v-90h-85zM331 670v90h84v-90h-84zM236 -11c-154 0 -202 85 -202 159c0 48 21 88 64 119c48 34 126 54 305 54h30v30c0 63 -34 106 -133 106c-106 0 -138 -45 -140 -83h-96c2 72 49 166 238 166c136 0 229 -51 229 -225v-187c0 -47 12 -60 61 -60v-75h-15
c-68 0 -124 32 -132 80h-1c-41 -48 -125 -84 -208 -84zM252 68c122 0 182 68 182 106v77h-35c-147 0 -270 -16 -270 -103c0 -49 41 -80 123 -80z" />
    <glyph glyph-name="agrave" unicode="&#xe0;" horiz-adv-x="652" 
d="M179 760h134l119 -175h-71zM236 -11c-154 0 -202 85 -202 159c0 48 21 88 64 119c48 34 126 54 305 54h30v30c0 63 -34 106 -133 106c-106 0 -138 -45 -140 -83h-96c2 72 49 166 238 166c136 0 229 -51 229 -225v-187c0 -47 12 -60 61 -60v-75h-5c-78 0 -134 32 -142 80
h-1c-41 -48 -125 -84 -208 -84zM252 68c122 0 182 68 182 106v77h-35c-147 0 -270 -16 -270 -103c0 -49 41 -80 123 -80z" />
    <glyph glyph-name="amacron" unicode="&#x101;" horiz-adv-x="652" 
d="M478 643h-345v77h345v-77zM236 -11c-154 0 -202 85 -202 159c0 48 21 88 64 119c48 34 126 54 305 54h30v30c0 63 -34 106 -133 106c-106 0 -138 -45 -140 -83h-96c2 72 49 166 238 166c136 0 229 -51 229 -225v-187c0 -47 12 -60 61 -60v-75h-5c-78 0 -134 32 -142 80
h-1c-41 -48 -125 -84 -208 -84zM252 68c122 0 182 68 182 106v77h-35c-147 0 -270 -16 -270 -103c0 -49 41 -80 123 -80z" />
    <glyph glyph-name="aogonek" unicode="&#x105;" horiz-adv-x="652" 
d="M531 128c0 -47 12 -60 61 -60v-75h-5c-18 0 -35 2 -51 5c-53 -40 -70 -72 -70 -96c0 -27 24 -43 72 -43c9 0 19 0 33 2v-61c-14 -2 -31 -3 -51 -3c-90 0 -125 47 -125 89c0 64 79 106 101 120h13c-36 14 -59 37 -64 67h-1c-41 -48 -125 -84 -208 -84
c-154 0 -202 85 -202 159c0 48 21 88 64 119c48 34 126 54 305 54h30v30c0 63 -34 106 -133 106c-106 0 -138 -45 -140 -83h-96c2 72 49 166 238 166c136 0 229 -51 229 -225v-187zM434 174v77h-35c-147 0 -270 -16 -270 -103c0 -49 41 -80 123 -80c122 0 182 68 182 106z
" />
    <glyph glyph-name="aring" unicode="&#xe5;" horiz-adv-x="652" 
d="M306 604c-56 0 -93 34 -93 86c0 50 37 83 93 83s93 -33 93 -83c0 -52 -37 -86 -93 -86zM306 652c24 0 41 15 41 37s-17 36 -41 36c-25 0 -42 -14 -42 -36s17 -37 42 -37zM236 -11c-154 0 -202 85 -202 159c0 48 21 88 64 119c48 34 126 54 305 54h30v30
c0 63 -34 106 -133 106c-106 0 -138 -45 -140 -83h-96c2 72 49 166 238 166c136 0 229 -51 229 -225v-187c0 -47 12 -60 61 -60v-75h-5c-78 0 -134 32 -142 80h-1c-41 -48 -125 -84 -208 -84zM252 68c122 0 182 68 182 106v77h-35c-147 0 -270 -16 -270 -103
c0 -49 41 -80 123 -80z" />
    <glyph glyph-name="atilde" unicode="&#xe3;" horiz-adv-x="652" 
d="M234 740c65 0 91 -62 133 -62c25 0 43 22 43 57h71c0 -88 -45 -130 -103 -130c-74 0 -96 63 -136 63c-24 0 -40 -23 -40 -58h-71c0 75 44 130 103 130zM236 -11c-154 0 -202 85 -202 159c0 48 21 88 64 119c48 34 126 54 305 54h30v30c0 63 -34 106 -133 106
c-106 0 -138 -45 -140 -83h-96c2 72 49 166 238 166c136 0 229 -51 229 -225v-187c0 -47 12 -60 61 -60v-75h-5c-78 0 -134 32 -142 80h-1c-41 -48 -125 -84 -208 -84zM252 68c122 0 182 68 182 106v77h-35c-147 0 -270 -16 -270 -103c0 -49 41 -80 123 -80z" />
    <glyph glyph-name="ae" unicode="&#xe6;" horiz-adv-x="1016" 
d="M254 -16c-178 0 -220 91 -220 162c0 76 48 178 297 178h114c0 71 -19 132 -144 132c-103 0 -140 -43 -143 -91h-100c3 84 60 176 249 176c92 0 164 -21 204 -79c47 50 117 79 207 79c146 0 245 -81 254 -250v-60l-1 -2l-425 -1c10 -97 68 -160 174 -160
c91 0 147 47 156 104h96c0 -89 -94 -188 -248 -188c-109 0 -190 48 -223 105c-58 -83 -160 -105 -247 -105zM547 311h329c-16 109 -77 146 -157 146c-98 0 -157 -57 -172 -146zM262 69c119 0 184 46 184 116v64h-119c-175 0 -197 -59 -197 -99c0 -54 40 -81 132 -81z" />
    <glyph glyph-name="aeacute" unicode="&#x1fd;" horiz-adv-x="1016" 
d="M603 760l-181 -175h-72l119 175h134zM254 -16c-178 0 -220 91 -220 162c0 76 48 178 297 178h114c0 71 -19 132 -144 132c-103 0 -140 -43 -143 -91h-100c3 84 60 176 249 176c92 0 164 -21 204 -79c47 50 117 79 207 79c146 0 245 -81 254 -250v-60l-1 -2l-425 -1
c10 -97 68 -160 174 -160c91 0 147 47 156 104h96c0 -89 -94 -188 -248 -188c-109 0 -190 48 -223 105c-58 -83 -160 -105 -247 -105zM547 311h329c-16 109 -77 146 -157 146c-98 0 -157 -57 -172 -146zM262 69c119 0 184 46 184 116v64h-119c-175 0 -197 -59 -197 -99
c0 -54 40 -81 132 -81z" />
    <glyph glyph-name="b" unicode="b" horiz-adv-x="641" 
d="M349 541c159 0 265 -111 265 -277c0 -168 -104 -280 -259 -280c-78 0 -163 33 -202 82v-66h-93v760h97v-306c46 53 120 87 192 87zM341 69c105 0 176 77 176 192c0 118 -71 196 -179 196c-109 0 -181 -68 -181 -171v-58c0 -95 73 -159 184 -159z" />
    <glyph glyph-name="c" unicode="c" horiz-adv-x="597" 
d="M301 -16c-179 0 -274 122 -274 279c0 163 98 278 272 278c146 0 246 -81 254 -202h-96c-16 81 -71 118 -157 118c-117 0 -175 -78 -175 -194s57 -195 175 -195c86 0 141 47 157 104h96c-11 -91 -93 -188 -252 -188z" />
    <glyph glyph-name="cacute" unicode="&#x107;" horiz-adv-x="597" 
d="M416 760l-181 -175h-72l119 175h134zM301 -16c-179 0 -274 122 -274 279c0 163 98 278 272 278c146 0 246 -81 254 -202h-96c-16 81 -71 118 -157 118c-117 0 -175 -78 -175 -194s57 -195 175 -195c86 0 141 47 157 104h96c-11 -91 -93 -188 -252 -188z" />
    <glyph glyph-name="ccaron" unicode="&#x10d;" horiz-adv-x="597" 
d="M475 760l-130 -175h-112l-130 175h74l113 -116l111 116h74zM301 -16c-179 0 -274 122 -274 279c0 163 98 278 272 278c146 0 246 -81 254 -202h-96c-16 81 -71 118 -157 118c-117 0 -175 -78 -175 -194s57 -195 175 -195c86 0 141 47 157 104h96
c-11 -91 -93 -188 -252 -188z" />
    <glyph glyph-name="ccedilla" unicode="&#xe7;" horiz-adv-x="597" 
d="M300 68c86 0 141 47 157 104h96c-11 -89 -90 -185 -244 -188l-39 -35h14c52 0 86 -26 86 -65c0 -46 -41 -76 -97 -76h-63v47h55c30 0 50 11 50 28c0 15 -20 25 -50 25h-44v41l37 37c-151 19 -231 133 -231 277c0 163 98 278 272 278c146 0 246 -81 254 -202h-96
c-16 81 -71 118 -157 118c-117 0 -175 -78 -175 -194s57 -195 175 -195z" />
    <glyph glyph-name="cdotaccent" unicode="&#x10b;" horiz-adv-x="597" 
d="M290 640c-40 0 -72 30 -72 69c0 37 32 67 72 67c39 0 73 -30 73 -67c0 -39 -34 -69 -73 -69zM301 -16c-179 0 -274 122 -274 279c0 163 98 278 272 278c146 0 246 -81 254 -202h-96c-16 81 -71 118 -157 118c-117 0 -175 -78 -175 -194s57 -195 175 -195
c86 0 141 47 157 104h96c-11 -91 -93 -188 -252 -188z" />
    <glyph glyph-name="d" unicode="d" horiz-adv-x="667" 
d="M506 760h97v-760h-94v66c-40 -49 -123 -82 -200 -82c-156 0 -260 112 -260 280c0 166 106 277 266 277c73 0 145 -34 191 -87v306zM506 240v58c0 95 -72 158 -181 158c-108 0 -178 -76 -178 -191c0 -118 72 -196 180 -196s179 68 179 171z" />
    <glyph glyph-name="eth" unicode="&#xf0;" horiz-adv-x="625" 
d="M432 657c103 -98 166 -227 166 -371c0 -186 -105 -302 -273 -302c-173 0 -276 120 -276 272c0 160 115 277 254 277c78 0 124 -17 156 -48c-17 36 -53 81 -111 134l-142 -61l-44 63l125 52c-34 28 -73 57 -118 87h122c28 -15 54 -31 80 -49l118 49l42 -61zM317 66
c116 0 181 78 181 191s-65 190 -181 190c-113 0 -173 -75 -173 -190s60 -191 173 -191z" />
    <glyph glyph-name="dcaron" unicode="&#x10f;" horiz-adv-x="599" 
d="M505 760h97v-760h-94v66c-40 -49 -123 -82 -200 -82c-156 0 -260 112 -260 280c0 166 106 277 266 277c73 0 145 -34 191 -87v306zM794 760l-105 -175h-54l48 175h111zM505 240v58c0 95 -72 158 -181 158c-108 0 -178 -76 -178 -191c0 -118 72 -196 180 -196
s179 68 179 171z" />
    <glyph glyph-name="dcroat" unicode="&#x111;" horiz-adv-x="667" 
d="M724 655v-77h-121v-578h-94v66c-40 -49 -123 -82 -200 -82c-156 0 -260 112 -260 280c0 166 106 277 266 277c73 0 145 -34 191 -87v124h-127v77h127v105h97v-105h121zM506 240v58c0 95 -72 158 -181 158c-108 0 -178 -76 -178 -191c0 -118 72 -196 180 -196
s179 68 179 171z" />
    <glyph glyph-name="e" unicode="e" horiz-adv-x="598" 
d="M301 -16c-179 0 -274 121 -274 280c0 162 99 277 269 277c151 0 258 -91 258 -230v-82l-427 -1c10 -97 68 -160 173 -160c86 0 141 47 157 84h96c-11 -71 -93 -168 -252 -168zM128 306h329c0 104 -73 151 -163 151c-89 0 -166 -47 -166 -151z" />
    <glyph glyph-name="eacute" unicode="&#xe9;" horiz-adv-x="598" 
d="M416 760l-181 -175h-72l119 175h134zM301 -16c-179 0 -274 121 -274 280c0 162 99 277 269 277c151 0 258 -91 258 -230v-82l-427 -1c10 -97 68 -160 173 -160c86 0 141 47 157 84h96c-11 -71 -93 -168 -252 -168zM128 306h329c0 104 -73 151 -163 151
c-89 0 -166 -47 -166 -151z" />
    <glyph glyph-name="ecaron" unicode="&#x11b;" horiz-adv-x="598" 
d="M475 760l-130 -175h-112l-130 175h74l113 -116l111 116h74zM301 -16c-179 0 -274 121 -274 280c0 162 99 277 269 277c151 0 258 -91 258 -230v-82l-427 -1c10 -97 68 -160 173 -160c86 0 141 47 157 84h96c-11 -71 -93 -168 -252 -168zM128 306h329
c0 104 -73 151 -163 151c-89 0 -166 -47 -166 -151z" />
    <glyph glyph-name="ecircumflex" unicode="&#xea;" horiz-adv-x="598" 
d="M475 585h-74l-111 116l-113 -116h-74l130 175h112zM301 -16c-179 0 -274 121 -274 280c0 162 99 277 269 277c151 0 258 -91 258 -230v-82l-427 -1c10 -97 68 -160 173 -160c86 0 141 47 157 84h96c-11 -71 -93 -168 -252 -168zM128 306h329c0 104 -73 151 -163 151
c-89 0 -166 -47 -166 -151z" />
    <glyph glyph-name="edieresis" unicode="&#xeb;" horiz-adv-x="598" 
d="M155 670v90h85v-90h-85zM315 670v90h84v-90h-84zM301 -16c-179 0 -274 121 -274 280c0 162 99 277 269 277c151 0 258 -91 258 -230v-82l-427 -1c10 -97 68 -160 173 -160c86 0 141 47 157 84h96c-11 -71 -93 -168 -252 -168zM128 306h329c0 104 -73 151 -163 151
c-89 0 -166 -47 -166 -151z" />
    <glyph glyph-name="edotaccent" unicode="&#x117;" horiz-adv-x="598" 
d="M290 640c-40 0 -72 30 -72 69c0 37 32 67 72 67c39 0 73 -30 73 -67c0 -39 -34 -69 -73 -69zM301 -16c-179 0 -274 121 -274 280c0 162 99 277 269 277c151 0 258 -91 258 -230v-82l-427 -1c10 -97 68 -160 173 -160c86 0 141 47 157 84h96c-11 -71 -93 -168 -252 -168z
M128 306h329c0 104 -73 151 -163 151c-89 0 -166 -47 -166 -151z" />
    <glyph glyph-name="egrave" unicode="&#xe8;" horiz-adv-x="598" 
d="M163 760h134l119 -175h-71zM301 -16c-179 0 -274 121 -274 280c0 162 99 277 269 277c151 0 258 -91 258 -230v-82l-427 -1c10 -97 68 -160 173 -160c86 0 141 47 157 84h96c-11 -71 -93 -168 -252 -168zM128 306h329c0 104 -73 151 -163 151c-89 0 -166 -47 -166 -151z
" />
    <glyph glyph-name="emacron" unicode="&#x113;" horiz-adv-x="598" 
d="M462 643h-345v77h345v-77zM301 -16c-179 0 -274 121 -274 280c0 162 99 277 269 277c151 0 258 -91 258 -230v-82l-427 -1c10 -97 68 -160 173 -160c86 0 141 47 157 84h96c-11 -71 -93 -168 -252 -168zM128 306h329c0 104 -73 151 -163 151c-89 0 -166 -47 -166 -151z
" />
    <glyph glyph-name="eogonek" unicode="&#x119;" horiz-adv-x="574" 
d="M554 311v-82l-427 -1c10 -97 68 -160 173 -160c86 0 141 47 157 84h96c-10 -67 -85 -158 -228 -167c-39 -34 -52 -61 -52 -82c0 -27 24 -43 72 -43c9 0 19 0 33 2v-61c-14 -2 -31 -3 -51 -3c-90 0 -125 47 -125 89c0 44 37 77 67 98c-158 14 -242 130 -242 279
c0 162 99 277 269 277c151 0 258 -91 258 -230zM128 306h329c0 104 -73 151 -163 151c-89 0 -166 -47 -166 -151z" />
    <glyph glyph-name="f" unicode="f" horiz-adv-x="334" 
d="M101 0v442h-78v83h78v81c0 110 44 170 154 170c35 0 61 -5 67 -6v-80c-6 1 -12 3 -36 3c-62 0 -88 -22 -88 -72v-96h119v-83h-119v-442h-97z" />
    <glyph glyph-name="g" unicode="g" horiz-adv-x="641" 
d="M484 525h97v-491c0 -221 -116 -274 -261 -274c-146 0 -240 52 -271 178h98c20 -66 87 -93 170 -93c128 0 167 62 167 199v32c-45 -64 -116 -92 -197 -92c-169 0 -260 119 -260 284c0 149 74 273 254 273c81 0 156 -26 203 -96v80zM484 240v58c0 97 -76 158 -183 158
c-121 0 -184 -76 -184 -191c0 -117 64 -196 186 -196c109 0 181 63 181 171z" />
    <glyph glyph-name="gbreve" unicode="&#x11f;" horiz-adv-x="641" 
d="M431 760h85c0 -105 -79 -175 -199 -175c-119 0 -199 70 -199 175h85c0 -61 46 -101 114 -101c69 0 114 40 114 101zM484 525h97v-491c0 -221 -116 -274 -261 -274c-146 0 -240 52 -271 178h98c20 -66 87 -93 170 -93c128 0 167 62 167 199v32c-45 -64 -116 -92 -197 -92
c-169 0 -260 119 -260 284c0 149 74 273 254 273c81 0 156 -26 203 -96v80zM484 240v58c0 97 -76 158 -183 158c-121 0 -184 -76 -184 -191c0 -117 64 -196 186 -196c109 0 181 63 181 171z" />
    <glyph glyph-name="uni0123" unicode="&#x123;" horiz-adv-x="641" 
d="M377 811l-45 -113h46v-113h-122v113l56 113h65zM484 525h97v-491c0 -221 -116 -274 -261 -274c-146 0 -240 52 -271 178h98c20 -66 87 -93 170 -93c128 0 167 62 167 199v32c-45 -64 -116 -92 -197 -92c-169 0 -260 119 -260 284c0 149 74 273 254 273
c81 0 156 -26 203 -96v80zM484 240v58c0 97 -76 158 -183 158c-121 0 -184 -76 -184 -191c0 -117 64 -196 186 -196c109 0 181 63 181 171z" />
    <glyph glyph-name="gdotaccent" unicode="&#x121;" horiz-adv-x="641" 
d="M317 640c-40 0 -72 30 -72 69c0 37 32 67 72 67c39 0 73 -30 73 -67c0 -39 -34 -69 -73 -69zM484 525h97v-491c0 -221 -116 -274 -261 -274c-146 0 -240 52 -271 178h98c20 -66 87 -93 170 -93c128 0 167 62 167 199v32c-45 -64 -116 -92 -197 -92
c-169 0 -260 119 -260 284c0 149 74 273 254 273c81 0 156 -26 203 -96v80zM484 240v58c0 97 -76 158 -183 158c-121 0 -184 -76 -184 -191c0 -117 64 -196 186 -196c109 0 181 63 181 171z" />
    <glyph glyph-name="h" unicode="h" horiz-adv-x="624" 
d="M60 0v760h97v-314c47 72 129 95 194 95c129 0 209 -88 209 -211v-330h-97v303c0 96 -47 154 -135 154c-92 0 -171 -63 -171 -171v-286h-97z" />
    <glyph glyph-name="hbar" unicode="&#x127;" horiz-adv-x="624" 
d="M351 541c129 0 209 -88 209 -211v-330h-97v303c0 96 -47 154 -135 154c-92 0 -171 -63 -171 -171v-286h-97v587h-74v77h74v96h97v-96h174v-77h-174v-141c47 72 129 95 194 95z" />
    <glyph glyph-name="i" unicode="i" horiz-adv-x="229" 
d="M60 657v103h109v-103h-109zM66 0v525h97v-525h-97z" />
    <glyph glyph-name="dotlessi" unicode="&#x131;" horiz-adv-x="269" 
d="M86 0v525h97v-525h-97z" />
    <glyph glyph-name="iacute" unicode="&#xed;" horiz-adv-x="269" 
d="M261 760l-181 -175h-72l119 175h134zM86 0v525h97v-525h-97z" />
    <glyph glyph-name="icircumflex" unicode="&#xee;" horiz-adv-x="269" 
d="M320 585h-74l-111 116l-113 -116h-74l130 175h112zM86 0v525h97v-525h-97z" />
    <glyph glyph-name="idieresis" unicode="&#xef;" horiz-adv-x="269" 
d="M0 670v90h85v-90h-85zM160 670v90h84v-90h-84zM86 0v525h97v-525h-97z" />
    <glyph glyph-name="i.loclTRK" horiz-adv-x="269" 
d="M135 640c-40 0 -72 30 -72 69c0 37 32 67 72 67c39 0 73 -30 73 -67c0 -39 -34 -69 -73 -69zM86 0v525h97v-525h-97z" />
    <glyph glyph-name="igrave" unicode="&#xec;" horiz-adv-x="269" 
d="M8 760h134l119 -175h-71zM86 0v525h97v-525h-97z" />
    <glyph glyph-name="imacron" unicode="&#x12b;" horiz-adv-x="269" 
d="M307 643h-345v77h345v-77zM86 0v525h97v-525h-97z" />
    <glyph glyph-name="iogonek" unicode="&#x12f;" horiz-adv-x="296" 
d="M230 760v-103h-109v103h109zM203 -140c9 0 19 0 33 2v-61c-14 -2 -31 -3 -51 -3c-90 0 -125 47 -125 89c0 56 60 95 90 113h-23v525h97v-525h-22c-54 -41 -71 -72 -71 -97c0 -27 24 -43 72 -43z" />
    <glyph glyph-name="j" unicode="j" horiz-adv-x="248" 
d="M79 657v103h109v-103h-109zM27 -240c-33 0 -65 6 -65 6v85s12 -3 35 -3c63 0 88 22 88 67v610h97v-605c0 -100 -41 -160 -155 -160z" />
    <glyph glyph-name="k" unicode="k" horiz-adv-x="520" 
d="M505 0h-116l-232 234v-234h-97v760h97v-469l208 234h116l-235 -262z" />
    <glyph glyph-name="uni0137" unicode="&#x137;" horiz-adv-x="520" 
d="M246 263l259 -263h-116l-232 234v-234h-97v760h97v-469l208 234h116zM162 -240l37 170h88l-70 -170h-55z" />
    <glyph glyph-name="l" unicode="l" horiz-adv-x="217" 
d="M60 0v760h97v-760h-97z" />
    <glyph glyph-name="lacute" unicode="&#x13a;" horiz-adv-x="217" 
d="M235 974l-181 -175h-72l119 175h134zM60 0v760h97v-760h-97z" />
    <glyph glyph-name="lcaron" unicode="&#x13e;" horiz-adv-x="281" 
d="M67 0v760h97v-760h-97zM390 760l-105 -175h-54l48 175h111z" />
    <glyph glyph-name="uni013C" unicode="&#x13c;" horiz-adv-x="217" 
d="M60 0v760h97v-760h-97zM42 -240l37 170h88l-70 -170h-55z" />
    <glyph glyph-name="lslash" unicode="&#x142;" horiz-adv-x="217" 
d="M269 525v-107l-112 -70v-348h-97v288l-110 -68v107l110 68v365h97v-305z" />
    <glyph glyph-name="m" unicode="m" horiz-adv-x="1017" 
d="M759 541c127 0 203 -71 203 -221v-320h-97v313c0 118 -63 144 -127 144c-103 0 -178 -63 -178 -171v-286h-97v313c0 118 -64 144 -128 144c-102 0 -178 -63 -178 -171v-286h-97v525h97v-79c46 69 120 95 199 95c89 0 152 -34 183 -105c61 81 142 105 220 105z" />
    <glyph glyph-name="n" unicode="n" horiz-adv-x="615" 
d="M60 0v525h97v-79c47 72 129 95 194 95c129 0 209 -88 209 -211v-330h-97v303c0 96 -47 154 -135 154c-92 0 -171 -63 -171 -171v-286h-97z" />
    <glyph glyph-name="nacute" unicode="&#x144;" horiz-adv-x="615" 
d="M434 760l-181 -175h-72l119 175h134zM60 0v525h97v-79c47 72 129 95 194 95c129 0 209 -88 209 -211v-330h-97v303c0 96 -47 154 -135 154c-92 0 -171 -63 -171 -171v-286h-97z" />
    <glyph glyph-name="ncaron" unicode="&#x148;" horiz-adv-x="615" 
d="M493 760l-130 -175h-112l-130 175h74l113 -116l111 116h74zM60 0v525h97v-79c47 72 129 95 194 95c129 0 209 -88 209 -211v-330h-97v303c0 96 -47 154 -135 154c-92 0 -171 -63 -171 -171v-286h-97z" />
    <glyph glyph-name="uni0146" unicode="&#x146;" horiz-adv-x="615" 
d="M60 0v525h97v-79c47 72 129 95 194 95c129 0 209 -88 209 -211v-330h-97v303c0 96 -47 154 -135 154c-92 0 -171 -63 -171 -171v-286h-97zM246 -240l37 170h88l-70 -170h-55z" />
    <glyph glyph-name="eng" unicode="&#x14b;" horiz-adv-x="615" 
d="M404 -240c-33 0 -65 6 -65 6v85s13 -3 36 -3c62 0 88 22 88 67v398c0 118 -64 144 -128 144c-102 0 -178 -63 -178 -171v-286h-97v525h97v-79c46 69 120 95 199 95c128 0 204 -71 204 -221v-400c0 -100 -44 -160 -156 -160z" />
    <glyph glyph-name="ntilde" unicode="&#xf1;" horiz-adv-x="615" 
d="M236 740c65 0 91 -62 133 -62c25 0 43 22 43 57h71c0 -88 -45 -130 -103 -130c-74 0 -96 63 -136 63c-24 0 -40 -23 -40 -58h-71c0 75 44 130 103 130zM60 0v525h97v-79c47 72 129 95 194 95c129 0 209 -88 209 -211v-330h-97v303c0 96 -47 154 -135 154
c-92 0 -171 -63 -171 -171v-286h-97z" />
    <glyph glyph-name="o" unicode="o" horiz-adv-x="608" 
d="M305 -16c-166 0 -278 122 -278 279c0 162 112 278 278 278c167 0 276 -116 276 -278c0 -157 -109 -279 -276 -279zM304 68c117 0 180 78 180 195c0 116 -63 194 -180 194s-179 -78 -179 -194c0 -117 62 -195 179 -195z" />
    <glyph glyph-name="oacute" unicode="&#xf3;" horiz-adv-x="608" 
d="M430 760l-181 -175h-72l119 175h134zM305 -16c-166 0 -278 122 -278 279c0 162 112 278 278 278c167 0 276 -116 276 -278c0 -157 -109 -279 -276 -279zM304 68c117 0 180 78 180 195c0 116 -63 194 -180 194s-179 -78 -179 -194c0 -117 62 -195 179 -195z" />
    <glyph glyph-name="ocircumflex" unicode="&#xf4;" horiz-adv-x="608" 
d="M489 585h-74l-111 116l-113 -116h-74l130 175h112zM305 -16c-166 0 -278 122 -278 279c0 162 112 278 278 278c167 0 276 -116 276 -278c0 -157 -109 -279 -276 -279zM304 68c117 0 180 78 180 195c0 116 -63 194 -180 194s-179 -78 -179 -194c0 -117 62 -195 179 -195z
" />
    <glyph glyph-name="odieresis" unicode="&#xf6;" horiz-adv-x="608" 
d="M169 670v90h85v-90h-85zM329 670v90h84v-90h-84zM305 -16c-166 0 -278 122 -278 279c0 162 112 278 278 278c167 0 276 -116 276 -278c0 -157 -109 -279 -276 -279zM304 68c117 0 180 78 180 195c0 116 -63 194 -180 194s-179 -78 -179 -194c0 -117 62 -195 179 -195z
" />
    <glyph glyph-name="ograve" unicode="&#xf2;" horiz-adv-x="608" 
d="M177 760h134l119 -175h-71zM305 -16c-166 0 -278 122 -278 279c0 162 112 278 278 278c167 0 276 -116 276 -278c0 -157 -109 -279 -276 -279zM304 68c117 0 180 78 180 195c0 116 -63 194 -180 194s-179 -78 -179 -194c0 -117 62 -195 179 -195z" />
    <glyph glyph-name="ohungarumlaut" unicode="&#x151;" horiz-adv-x="608" 
d="M315 760l-181 -175h-72l119 175h134zM544 760l-181 -175h-72l119 175h134zM305 -16c-166 0 -278 122 -278 279c0 162 112 278 278 278c167 0 276 -116 276 -278c0 -157 -109 -279 -276 -279zM304 68c117 0 180 78 180 195c0 116 -63 194 -180 194s-179 -78 -179 -194
c0 -117 62 -195 179 -195z" />
    <glyph glyph-name="omacron" unicode="&#x14d;" horiz-adv-x="608" 
d="M476 643h-345v77h345v-77zM305 -16c-166 0 -278 122 -278 279c0 162 112 278 278 278c167 0 276 -116 276 -278c0 -157 -109 -279 -276 -279zM304 68c117 0 180 78 180 195c0 116 -63 194 -180 194s-179 -78 -179 -194c0 -117 62 -195 179 -195z" />
    <glyph glyph-name="oslash" unicode="&#xf8;" horiz-adv-x="608" 
d="M493 475c56 -50 88 -124 88 -212c0 -157 -109 -279 -276 -279c-36 0 -70 6 -100 17l-69 -113h-87l89 147c-69 50 -111 132 -111 228c0 162 112 278 278 278c47 0 89 -9 126 -26l62 102h87zM125 263c0 -66 20 -120 58 -154l203 332c-23 10 -51 16 -82 16
c-117 0 -179 -78 -179 -194zM304 68c117 0 180 78 180 195c0 53 -13 99 -39 132l-195 -321c16 -4 34 -6 54 -6z" />
    <glyph glyph-name="otilde" unicode="&#xf5;" horiz-adv-x="608" 
d="M232 740c65 0 91 -62 133 -62c25 0 43 22 43 57h71c0 -88 -45 -130 -103 -130c-74 0 -96 63 -136 63c-24 0 -40 -23 -40 -58h-71c0 75 44 130 103 130zM305 -16c-166 0 -278 122 -278 279c0 162 112 278 278 278c167 0 276 -116 276 -278c0 -157 -109 -279 -276 -279z
M304 68c117 0 180 78 180 195c0 116 -63 194 -180 194s-179 -78 -179 -194c0 -117 62 -195 179 -195z" />
    <glyph glyph-name="oe" unicode="&#x153;" horiz-adv-x="1078" 
d="M316 -16c-177 0 -289 122 -289 279c0 162 112 278 290 278c106 0 187 -39 237 -103c46 64 123 103 226 103c146 0 244 -81 254 -250v-60l-1 -2l-426 -1c10 -97 69 -160 174 -160c91 0 147 47 157 104h96c-2 -91 -93 -188 -253 -188c-106 0 -183 40 -227 105
c-50 -64 -131 -105 -238 -105zM316 68c129 0 192 78 192 195c0 116 -63 194 -192 194s-191 -78 -191 -194c0 -117 62 -195 191 -195zM608 311h330c-17 109 -77 146 -157 146c-99 0 -157 -57 -173 -146z" />
    <glyph glyph-name="p" unicode="p" horiz-adv-x="641" 
d="M349 541c159 0 265 -111 265 -277c0 -168 -104 -280 -259 -280c-78 0 -158 33 -198 82v-306h-97v765h94v-71c45 53 123 87 195 87zM341 69c105 0 176 77 176 192c0 118 -71 196 -179 196c-109 0 -181 -68 -181 -171v-58c0 -95 73 -159 184 -159z" />
    <glyph glyph-name="thorn" unicode="&#xfe;" horiz-adv-x="641" 
d="M349 541c159 0 265 -111 265 -277c0 -168 -104 -280 -259 -280c-78 0 -158 33 -198 82v-306h-97v1000h94v-306c45 53 123 87 195 87zM341 69c105 0 176 77 176 192c0 118 -71 196 -179 196c-109 0 -181 -68 -181 -171v-58c0 -95 73 -159 184 -159z" />
    <glyph glyph-name="q" unicode="q" horiz-adv-x="667" 
d="M487 525h94v-765h-97v306c-40 -49 -120 -82 -197 -82c-156 0 -260 112 -260 280c0 166 106 277 265 277c73 0 150 -34 195 -87v71zM484 240v58c0 95 -73 158 -183 158c-106 0 -176 -76 -176 -191c0 -118 70 -196 178 -196c109 0 181 68 181 171z" />
    <glyph glyph-name="r" unicode="r" horiz-adv-x="369" 
d="M60 0v525h92v-99c23 41 60 77 103 95c32 13 64 17 106 17v-101h-25c-96 0 -179 -68 -179 -177v-260h-97z" />
    <glyph glyph-name="racute" unicode="&#x155;" horiz-adv-x="369" 
d="M301 760l-181 -175h-72l119 175h134zM60 0v525h92v-94c23 41 60 72 103 90c32 13 64 17 106 17v-101h-25c-96 0 -179 -68 -179 -177v-260h-97z" />
    <glyph glyph-name="rcaron" unicode="&#x159;" horiz-adv-x="369" 
d="M360 760l-130 -175h-112l-130 175h74l113 -116l111 116h74zM60 0v525h92v-94c23 41 60 72 103 90c32 13 64 17 106 17v-101h-25c-96 0 -179 -68 -179 -177v-260h-97z" />
    <glyph glyph-name="uni0157" unicode="&#x157;" horiz-adv-x="369" 
d="M60 0v525h92v-94c23 41 60 72 103 90c32 13 64 17 106 17v-101h-25c-96 0 -179 -68 -179 -177v-260h-97zM120 -240l37 170h88l-70 -170h-55z" />
    <glyph glyph-name="s" unicode="s" horiz-adv-x="566" 
d="M306 -16c-190 0 -268 84 -278 188h98c20 -83 92 -107 181 -107c85 0 130 22 130 71c0 55 -58 69 -130 84c-143 30 -247 54 -248 165c-1 114 111 156 229 156c150 0 224 -68 230 -176h-98c-8 77 -72 95 -141 95c-51 0 -124 -10 -124 -71c0 -46 43 -62 158 -84
c116 -22 218 -44 218 -165c0 -106 -78 -156 -225 -156z" />
    <glyph glyph-name="sacute" unicode="&#x15b;" horiz-adv-x="536" 
d="M390 760l-181 -175h-72l119 175h134zM306 -16c-190 0 -268 84 -278 188h98c20 -83 92 -107 181 -107c85 0 130 22 130 71c0 55 -58 69 -130 84c-143 30 -247 54 -248 165c-1 114 111 156 229 156c150 0 224 -68 230 -176h-98c-8 77 -72 95 -141 95
c-51 0 -124 -10 -124 -71c0 -46 43 -62 158 -84c116 -22 218 -44 218 -165c0 -106 -78 -156 -225 -156z" />
    <glyph glyph-name="scaron" unicode="&#x161;" horiz-adv-x="536" 
d="M449 760l-130 -175h-112l-130 175h74l113 -116l111 116h74zM306 -16c-190 0 -268 84 -278 188h98c20 -83 92 -107 181 -107c85 0 130 22 130 71c0 55 -58 69 -130 84c-143 30 -247 54 -248 165c-1 114 111 156 229 156c150 0 224 -68 230 -176h-98c-8 77 -72 95 -141 95
c-51 0 -124 -10 -124 -71c0 -46 43 -62 158 -84c116 -22 218 -44 218 -165c0 -106 -78 -156 -225 -156z" />
    <glyph glyph-name="scedilla" unicode="&#x15f;" horiz-adv-x="536" 
d="M306 -16h-23l-39 -35h14c52 0 86 -26 86 -65c0 -46 -41 -76 -97 -76h-63v47h55c30 0 50 11 50 28c0 15 -20 25 -50 25h-44v41l39 40c-138 18 -197 93 -206 183h98c20 -83 92 -107 181 -107c85 0 130 22 130 71c0 55 -58 69 -130 84c-143 30 -247 54 -248 165
c-1 114 111 156 229 156c150 0 224 -68 230 -176h-98c-8 77 -72 95 -141 95c-51 0 -124 -10 -124 -71c0 -46 43 -62 158 -84c116 -22 218 -44 218 -165c0 -106 -78 -156 -225 -156z" />
    <glyph glyph-name="uni0219" unicode="&#x219;" horiz-adv-x="536" 
d="M306 -16c-190 0 -268 84 -278 188h98c20 -83 92 -107 181 -107c85 0 130 22 130 71c0 55 -58 69 -130 84c-143 30 -247 54 -248 165c-1 114 111 156 229 156c150 0 224 -68 230 -176h-98c-8 77 -72 95 -141 95c-51 0 -124 -10 -124 -71c0 -46 43 -62 158 -84
c116 -22 218 -44 218 -165c0 -106 -78 -156 -225 -156zM202 -240l37 170h88l-70 -170h-55z" />
    <glyph glyph-name="germandbls" unicode="&#xdf;" horiz-adv-x="678" 
d="M500 326c76 -38 143 -76 143 -167c0 -95 -67 -175 -195 -175c-135 0 -209 89 -216 188h98c15 -65 62 -107 124 -107c61 0 96 41 96 87c0 62 -60 86 -125 113c-82 34 -145 67 -145 133c0 94 127 133 127 209c0 44 -45 81 -127 81c-114 0 -123 -72 -123 -117v-571h-97v576
c0 110 66 200 220 200c140 0 224 -69 224 -166c0 -113 -121 -162 -121 -205c0 -27 48 -44 117 -79z" />
    <glyph glyph-name="t" unicode="t" horiz-adv-x="365" 
d="M273 -10c-129 0 -174 51 -174 150v302h-78v73c70 0 83 27 83 89v56h92v-135h132v-83h-132v-282c0 -68 25 -87 98 -87c9 0 20 0 38 1v-81c-26 -2 -45 -3 -59 -3z" />
    <glyph glyph-name="tbar" unicode="&#x167;" horiz-adv-x="403" 
d="M294 78c22 0 55 3 55 3v-85s-46 -6 -83 -6c-111 0 -152 55 -152 150v84h-70v77h70v141h-70v78c52 0 75 32 75 94v46h92v-135h117v-83h-117v-141h117v-77h-117v-59c0 -66 23 -87 83 -87z" />
    <glyph glyph-name="tcaron" unicode="&#x165;" horiz-adv-x="340" 
d="M428 760l-105 -175h-54l48 175h111zM268 -10c-129 0 -174 51 -174 150v302h-78v73c70 0 83 27 83 89v56h92v-135h132v-83h-132v-282c0 -68 25 -87 98 -87c9 0 20 0 38 1v-81c-26 -2 -45 -3 -59 -3z" />
    <glyph glyph-name="uni0163" unicode="&#x163;" horiz-adv-x="365" 
d="M294 73c9 0 20 0 38 1v-81c-26 -2 -45 -3 -59 -3c-21 0 -40 1 -57 4l-50 -45h14c52 0 86 -26 86 -65c0 -46 -41 -76 -97 -76h-63v47h55c30 0 50 11 50 28c0 15 -20 25 -50 25h-44v41l56 57c-53 22 -74 67 -74 134v302h-78v73c70 0 83 27 83 89v56h92v-135h132v-83h-132
v-282c0 -68 25 -87 98 -87z" />
    <glyph glyph-name="uni021B" unicode="&#x21b;" horiz-adv-x="365" 
d="M273 -10c-129 0 -174 51 -174 150v302h-78v73c70 0 83 27 83 89v56h92v-135h132v-83h-132v-282c0 -68 25 -87 98 -87c9 0 20 0 38 1v-81c-26 -2 -45 -3 -59 -3zM124 -240l37 170h88l-70 -170h-55z" />
    <glyph glyph-name="u" unicode="u" horiz-adv-x="613" 
d="M257 -16c-128 0 -204 71 -204 221v320h97v-313c0 -118 64 -144 128 -144c102 0 178 63 178 171v286h97v-525h-97v89c-47 -79 -120 -105 -199 -105z" />
    <glyph glyph-name="uacute" unicode="&#xfa;" horiz-adv-x="613" 
d="M429 760l-181 -175h-72l119 175h134zM257 -16c-128 0 -204 71 -204 221v320h97v-313c0 -118 64 -144 128 -144c102 0 178 63 178 171v286h97v-525h-97v89c-47 -79 -120 -105 -199 -105z" />
    <glyph glyph-name="ucircumflex" unicode="&#xfb;" horiz-adv-x="613" 
d="M488 585h-74l-111 116l-113 -116h-74l130 175h112zM257 -16c-128 0 -204 71 -204 221v320h97v-313c0 -118 64 -144 128 -144c102 0 178 63 178 171v286h97v-525h-97v89c-47 -79 -120 -105 -199 -105z" />
    <glyph glyph-name="udieresis" unicode="&#xfc;" horiz-adv-x="613" 
d="M168 670v90h85v-90h-85zM328 670v90h84v-90h-84zM257 -16c-128 0 -204 71 -204 221v320h97v-313c0 -118 64 -144 128 -144c102 0 178 63 178 171v286h97v-525h-97v89c-47 -79 -120 -105 -199 -105z" />
    <glyph glyph-name="ugrave" unicode="&#xf9;" horiz-adv-x="613" 
d="M176 760h134l119 -175h-71zM257 -16c-128 0 -204 71 -204 221v320h97v-313c0 -118 64 -144 128 -144c102 0 178 63 178 171v286h97v-525h-97v89c-47 -79 -120 -105 -199 -105z" />
    <glyph glyph-name="uhungarumlaut" unicode="&#x171;" horiz-adv-x="613" 
d="M314 760l-181 -175h-72l119 175h134zM543 760l-181 -175h-72l119 175h134zM257 -16c-128 0 -204 71 -204 221v320h97v-313c0 -118 64 -144 128 -144c102 0 178 63 178 171v286h97v-525h-97v89c-47 -79 -120 -105 -199 -105z" />
    <glyph glyph-name="umacron" unicode="&#x16b;" horiz-adv-x="613" 
d="M475 643h-345v77h345v-77zM257 -16c-128 0 -204 71 -204 221v320h97v-313c0 -118 64 -144 128 -144c102 0 178 63 178 171v286h97v-525h-97v89c-47 -79 -120 -105 -199 -105z" />
    <glyph glyph-name="uogonek" unicode="&#x173;" horiz-adv-x="613" 
d="M530 -140c9 0 19 0 33 2v-61c-14 -2 -31 -3 -51 -3c-90 0 -125 47 -125 89c0 56 60 95 90 113h-21v89c-47 -79 -120 -105 -199 -105c-128 0 -204 71 -204 221v320h97v-313c0 -118 64 -144 128 -144c102 0 178 63 178 171v286h97v-525h-24c-54 -41 -71 -72 -71 -97
c0 -27 24 -43 72 -43z" />
    <glyph glyph-name="uring" unicode="&#x16f;" horiz-adv-x="613" 
d="M303 604c-56 0 -93 34 -93 86c0 50 37 83 93 83s93 -33 93 -83c0 -52 -37 -86 -93 -86zM303 652c24 0 41 15 41 37s-17 36 -41 36c-25 0 -42 -14 -42 -36s17 -37 42 -37zM257 -16c-128 0 -204 71 -204 221v320h97v-313c0 -118 64 -144 128 -144c102 0 178 63 178 171v286
h97v-525h-97v89c-47 -79 -120 -105 -199 -105z" />
    <glyph glyph-name="v" unicode="v" horiz-adv-x="563" 
d="M235 0l-220 525h109l133 -349l24 -57h2l22 57l134 349h109l-221 -525h-92z" />
    <glyph glyph-name="w" unicode="w" horiz-adv-x="954" 
d="M235 0l-220 525h109l157 -406h2l138 406h112l139 -406h2l156 406h109l-220 -525h-92l-148 416h-3l-149 -416h-92z" />
    <glyph glyph-name="wacute" unicode="&#x1e83;" horiz-adv-x="954" 
d="M604 760l-181 -175h-72l119 175h134zM235 0l-220 525h109l157 -406h2l138 406h112l139 -406h2l156 406h109l-220 -525h-92l-148 416h-3l-149 -416h-92z" />
    <glyph glyph-name="wcircumflex" unicode="&#x175;" horiz-adv-x="954" 
d="M663 585h-74l-111 116l-113 -116h-74l130 175h112zM235 0l-220 525h109l157 -406h2l138 406h112l139 -406h2l156 406h109l-220 -525h-92l-148 416h-3l-149 -416h-92z" />
    <glyph glyph-name="wdieresis" unicode="&#x1e85;" horiz-adv-x="954" 
d="M343 670v90h85v-90h-85zM503 670v90h84v-90h-84zM235 0l-220 525h109l157 -406h2l138 406h112l139 -406h2l156 406h109l-220 -525h-92l-148 416h-3l-149 -416h-92z" />
    <glyph glyph-name="wgrave" unicode="&#x1e81;" horiz-adv-x="954" 
d="M351 760h134l119 -175h-71zM235 0l-220 525h109l157 -406h2l138 406h112l139 -406h2l156 406h109l-220 -525h-92l-148 416h-3l-149 -416h-92z" />
    <glyph glyph-name="x" unicode="x" horiz-adv-x="515" 
d="M500 525l-185 -262l185 -263h-113l-129 191l-131 -191h-112l184 263l-184 262h112l126 -196l134 196h113z" />
    <glyph glyph-name="y" unicode="y" horiz-adv-x="563" 
d="M145 -240l90 240l-220 525h109l137 -360l20 -49h2l20 49l136 360h109l-203 -478l-107 -287h-93z" />
    <glyph glyph-name="yacute" unicode="&#xfd;" horiz-adv-x="563" 
d="M408 760l-181 -175h-72l119 175h134zM145 -240l90 240l-220 525h109l137 -360l20 -49h2l20 49l136 360h109l-203 -478l-107 -287h-93z" />
    <glyph glyph-name="ycircumflex" unicode="&#x177;" horiz-adv-x="563" 
d="M467 585h-74l-111 116l-113 -116h-74l130 175h112zM145 -240l90 240l-220 525h109l137 -360l20 -49h2l20 49l136 360h109l-203 -478l-107 -287h-93z" />
    <glyph glyph-name="ydieresis" unicode="&#xff;" horiz-adv-x="563" 
d="M147 670v90h85v-90h-85zM307 670v90h84v-90h-84zM145 -240l90 240l-220 525h109l137 -360l20 -49h2l20 49l136 360h109l-203 -478l-107 -287h-93z" />
    <glyph glyph-name="ygrave" unicode="&#x1ef3;" horiz-adv-x="563" 
d="M155 760h134l119 -175h-71zM145 -240l90 240l-220 525h109l137 -360l20 -49h2l20 49l136 360h109l-203 -478l-107 -287h-93z" />
    <glyph glyph-name="z" unicode="z" horiz-adv-x="592" 
d="M151 83h411v-83h-526v83l390 359h-385v83h499l1 -83z" />
    <glyph glyph-name="zacute" unicode="&#x17a;" horiz-adv-x="592" 
d="M426 760l-181 -175h-72l119 175h134zM151 83h411v-83h-526v83l390 359h-385v83h499l1 -83z" />
    <glyph glyph-name="zcaron" unicode="&#x17e;" horiz-adv-x="592" 
d="M485 760l-130 -175h-112l-130 175h74l113 -116l111 116h74zM151 83h411v-83h-526v83l390 359h-385v83h499l1 -83z" />
    <glyph glyph-name="zdotaccent" unicode="&#x17c;" horiz-adv-x="592" 
d="M300 640c-40 0 -72 30 -72 69c0 37 32 67 72 67c39 0 73 -30 73 -67c0 -39 -34 -69 -73 -69zM151 83h411v-83h-526v83l390 359h-385v83h499l1 -83z" />
    <glyph glyph-name="a.ss01" horiz-adv-x="648" 
d="M293 -16c-168 0 -259 121 -259 280c0 155 86 277 264 277c82 0 146 -26 193 -95v79h97v-525h-97v76c-47 -64 -118 -92 -198 -92zM310 69c108 0 181 63 181 171v58c0 97 -76 158 -183 158c-121 0 -184 -76 -184 -191c0 -117 64 -196 186 -196z" />
    <glyph glyph-name="aacute.ss01" horiz-adv-x="648" 
d="M430 759l-181 -175h-72l119 175h134zM293 -16c-168 0 -259 121 -259 280c0 155 86 277 264 277c82 0 146 -26 193 -95v79h97v-525h-97v76c-47 -64 -118 -92 -198 -92zM310 69c108 0 181 63 181 171v58c0 97 -76 158 -183 158c-121 0 -184 -76 -184 -191
c0 -117 64 -196 186 -196z" />
    <glyph glyph-name="abreve.ss01" horiz-adv-x="648" 
d="M428 759h85c0 -105 -79 -175 -199 -175c-119 0 -199 70 -199 175h85c0 -61 46 -101 114 -101c69 0 114 40 114 101zM293 -16c-168 0 -259 121 -259 280c0 155 86 277 264 277c82 0 146 -26 193 -95v79h97v-525h-97v76c-47 -64 -118 -92 -198 -92zM310 69
c108 0 181 63 181 171v58c0 97 -76 158 -183 158c-121 0 -184 -76 -184 -191c0 -117 64 -196 186 -196z" />
    <glyph glyph-name="acircumflex.ss01" horiz-adv-x="648" 
d="M497 584h-74l-111 116l-113 -116h-74l130 175h112zM293 -16c-168 0 -259 121 -259 280c0 155 86 277 264 277c82 0 146 -26 193 -95v79h97v-525h-97v76c-47 -64 -118 -92 -198 -92zM310 69c108 0 181 63 181 171v58c0 97 -76 158 -183 158c-121 0 -184 -76 -184 -191
c0 -117 64 -196 186 -196z" />
    <glyph glyph-name="adieresis.ss01" horiz-adv-x="648" 
d="M241 659c-27 0 -52 22 -52 52c0 27 25 49 52 49c33 0 53 -22 53 -49c0 -30 -24 -52 -53 -52zM395 659c-29 0 -53 22 -53 52c0 27 24 49 53 49c31 0 52 -22 52 -49c0 -30 -25 -52 -52 -52zM293 -16c-168 0 -259 121 -259 280c0 155 86 277 264 277c82 0 146 -26 193 -95
v79h97v-525h-97v76c-47 -64 -118 -92 -198 -92zM310 69c108 0 181 63 181 171v58c0 97 -76 158 -183 158c-121 0 -184 -76 -184 -191c0 -117 64 -196 186 -196z" />
    <glyph glyph-name="agrave.ss01" horiz-adv-x="648" 
d="M176 759h134l119 -175h-71zM293 -16c-168 0 -259 121 -259 280c0 155 86 277 264 277c82 0 146 -26 193 -95v79h97v-525h-97v76c-47 -64 -118 -92 -198 -92zM310 69c108 0 181 63 181 171v58c0 97 -76 158 -183 158c-121 0 -184 -76 -184 -191c0 -117 64 -196 186 -196z
" />
    <glyph glyph-name="amacron.ss01" horiz-adv-x="648" 
d="M486 642h-345v77h345v-77zM293 -16c-168 0 -259 121 -259 280c0 155 86 277 264 277c82 0 146 -26 193 -95v79h97v-525h-97v76c-47 -64 -118 -92 -198 -92zM310 69c108 0 181 63 181 171v58c0 97 -76 158 -183 158c-121 0 -184 -76 -184 -191c0 -117 64 -196 186 -196z
" />
    <glyph glyph-name="aogonek.ss01" horiz-adv-x="648" 
d="M515 0c-56 -41 -73 -73 -73 -98c0 -27 24 -43 72 -43c9 0 19 0 33 2v-61c-14 -2 -31 -3 -51 -3c-90 0 -125 47 -125 89c0 64 79 106 101 120h19v70c-47 -64 -118 -92 -198 -92c-168 0 -259 121 -259 280c0 155 86 277 264 277c82 0 146 -26 193 -95v79h97v-525h-73z
M310 69c108 0 181 63 181 171v58c0 97 -76 158 -183 158c-121 0 -184 -76 -184 -191c0 -117 64 -196 186 -196z" />
    <glyph glyph-name="aring.ss01" horiz-adv-x="648" 
d="M307 603c-56 0 -93 34 -93 86c0 50 37 83 93 83s93 -33 93 -83c0 -52 -37 -86 -93 -86zM307 651c24 0 41 15 41 37s-17 36 -41 36c-25 0 -42 -14 -42 -36s17 -37 42 -37zM293 -16c-168 0 -259 121 -259 280c0 155 86 277 264 277c82 0 146 -26 193 -95v79h97v-525h-97v76
c-47 -64 -118 -92 -198 -92zM310 69c108 0 181 63 181 171v58c0 97 -76 158 -183 158c-121 0 -184 -76 -184 -191c0 -117 64 -196 186 -196z" />
    <glyph glyph-name="atilde.ss01" horiz-adv-x="648" 
d="M240 739c65 0 91 -62 133 -62c25 0 43 22 43 57h71c0 -88 -45 -130 -103 -130c-74 0 -96 63 -136 63c-24 0 -40 -23 -40 -58h-71c0 75 44 130 103 130zM293 -16c-168 0 -259 121 -259 280c0 155 86 277 264 277c82 0 146 -26 193 -95v79h97v-525h-97v76
c-47 -64 -118 -92 -198 -92zM310 69c108 0 181 63 181 171v58c0 97 -76 158 -183 158c-121 0 -184 -76 -184 -191c0 -117 64 -196 186 -196z" />
    <glyph glyph-name="d.ss01" horiz-adv-x="667" 
d="M286 -16c-155 0 -259 114 -259 284c0 164 106 273 265 273c74 0 152 -34 192 -85v304h97v-760h-53l-44 66c-41 -49 -121 -82 -198 -82zM303 69c109 0 181 68 181 171v58c0 95 -73 158 -183 158c-106 0 -176 -76 -176 -191c0 -118 70 -196 178 -196z" />
    <glyph glyph-name="i.ss01" horiz-adv-x="249" 
d="M125 636c-35 0 -65 27 -65 63c0 34 30 61 65 61c38 0 64 -28 64 -61c0 -36 -30 -63 -64 -63zM77 0v525h97v-525h-97z" />
    <glyph glyph-name="idieresis.ss01" horiz-adv-x="269" 
d="M54 659c-27 0 -52 22 -52 52c0 27 25 49 52 49c33 0 53 -22 53 -49c0 -30 -24 -52 -53 -52zM208 659c-29 0 -53 22 -53 52c0 27 24 49 53 49c31 0 52 -22 52 -49c0 -30 -25 -52 -52 -52zM86 0v525h97v-525h-97z" />
    <glyph glyph-name="j.ss01" horiz-adv-x="258" 
d="M133 636c-35 0 -65 27 -65 63c0 34 30 61 65 61s65 -27 65 -61c0 -36 -30 -63 -65 -63zM27 -240c-33 0 -65 6 -65 6v85s12 -3 35 -3c63 0 88 22 88 67v610h97v-605c0 -100 -41 -160 -155 -160z" />
    <glyph glyph-name="k.ss01" horiz-adv-x="562" 
d="M547 0h-115l-134 190l-141 -190h-97v760h97v-602l270 367h111l-183 -249z" />
    <glyph glyph-name="uni0137.ss01" horiz-adv-x="562" 
d="M547 0h-115l-134 190l-141 -190h-97v760h97v-602l270 367h111l-183 -249zM245 -240l37 170h88l-70 -170h-55z" />
    <glyph glyph-name="l.ss01" horiz-adv-x="217" 
d="M60 0v760h64l33 -235v-525h-97z" />
    <glyph glyph-name="lacute.ss01" horiz-adv-x="254" 
d="M339 974l-181 -175h-72l119 175h134zM65 0v760h64l33 -235v-525h-97z" />
    <glyph glyph-name="lcaron.ss01" horiz-adv-x="251" 
d="M65 0v760h64l33 -235v-525h-97zM388 760l-105 -175h-54l48 175h111z" />
    <glyph glyph-name="uni013C.ss01" horiz-adv-x="251" 
d="M65 0v760h64l33 -235v-525h-97zM53 -240l37 170h88l-70 -170h-55z" />
    <glyph glyph-name="lslash.ss01" horiz-adv-x="217" 
d="M269 525v-107l-113 -70v-348h-97v288l-109 -68v107l109 68v365h64l33 -235v-70z" />
    <glyph glyph-name="n.ss01" horiz-adv-x="615" 
d="M60 0v525h500v-525h-97v428h-306v-428h-97z" />
    <glyph glyph-name="nacute.ss01" horiz-adv-x="615" 
d="M446 760l-181 -175h-72l119 175h134zM60 0v525h500v-525h-97v428h-306v-428h-97z" />
    <glyph glyph-name="ncaron.ss01" horiz-adv-x="615" 
d="M513 760l-130 -175h-112l-130 175h74l113 -116l111 116h74zM60 0v525h500v-525h-97v428h-306v-428h-97z" />
    <glyph glyph-name="uni0146.ss01" horiz-adv-x="615" 
d="M60 0v525h500v-525h-97v428h-306v-428h-97zM255 -240l37 170h88l-70 -170h-55z" />
    <glyph glyph-name="ntilde.ss01" horiz-adv-x="615" 
d="M256 740c65 0 91 -62 133 -62c25 0 43 22 43 57h71c0 -88 -45 -130 -103 -130c-74 0 -96 63 -136 63c-24 0 -40 -23 -40 -58h-71c0 75 44 130 103 130zM60 0v525h500v-525h-97v428h-306v-428h-97z" />
    <glyph glyph-name="q.ss01" horiz-adv-x="667" 
d="M484 -240v306c-41 -49 -121 -82 -198 -82c-155 0 -259 112 -259 280c0 166 106 277 264 277c75 0 153 -34 193 -85l44 69h53v-765h-97zM303 69c109 0 181 68 181 171v58c0 95 -73 158 -183 158c-106 0 -176 -76 -176 -191c0 -118 70 -196 178 -196z" />
    <glyph glyph-name="r.ss01" horiz-adv-x="380" 
d="M60 0v525h301v-97h-204v-428h-97z" />
    <glyph glyph-name="racute.ss01" horiz-adv-x="378" 
d="M356 760l-181 -175h-72l119 175h134zM61 0v525h301v-97h-204v-428h-97z" />
    <glyph glyph-name="rcaron.ss01" horiz-adv-x="377" 
d="M423 760l-130 -175h-112l-130 175h74l113 -116l111 116h74zM61 0v525h301v-97h-204v-428h-97z" />
    <glyph glyph-name="uni0157.ss01" horiz-adv-x="377" 
d="M70 0v525h301v-97h-204v-428h-97zM53 -240l37 170h88l-70 -170h-55z" />
    <glyph glyph-name="germandbls.ss01" horiz-adv-x="786" 
d="M477 -16c-156 0 -249 97 -252 188h96c8 -54 63 -104 155 -104c120 0 179 85 179 182c0 98 -59 167 -165 167c-70 0 -112 -30 -145 -81l-21 -37h-100l219 364h-286v-663h-97v760h481v-97l-119 -184h8c31 15 53 22 84 22c129 0 237 -105 237 -250
c0 -139 -97 -267 -274 -267z" />
    <glyph glyph-name="t.ss01" horiz-adv-x="361" 
d="M99 0v443h-78v82h78v135h97v-135h132v-82h-132v-443h-97z" />
    <glyph glyph-name="tbar.ss01" horiz-adv-x="371" 
d="M360 443h-132v-142h108v-77h-108v-224h-97v224h-79v77h79v142h-78v82h78v135h97v-135h132v-82z" />
    <glyph glyph-name="tcaron.ss01" horiz-adv-x="464" 
d="M433 760l-105 -175h-54l48 175h111zM99 0v443h-78v82h78v135h97v-135h132v-82h-132v-443h-97z" />
    <glyph glyph-name="uni0163.ss01" horiz-adv-x="334" 
d="M195 0h-27l-56 -51h14c52 0 86 -26 86 -65c0 -46 -41 -76 -97 -76h-63v47h55c30 0 50 11 50 28c0 15 -20 25 -50 25h-44v41l50 51h-15v443h-78v82h78v135h97v-135h132v-82h-132v-443z" />
    <glyph glyph-name="uni021B.ss01" horiz-adv-x="336" 
d="M100 0v443h-78v82h78v135h97v-135h132v-82h-132v-443h-97zM69 -240l37 170h88l-70 -170h-55z" />
    <glyph glyph-name="u.ss01" horiz-adv-x="672" 
d="M86 0v525h97v-428h306v428h97v-525h-500z" />
    <glyph glyph-name="uacute.ss01" horiz-adv-x="613" 
d="M414 760l-181 -175h-72l119 175h134zM53 0v525h97v-428h306v428h97v-525h-500z" />
    <glyph glyph-name="ucircumflex.ss01" horiz-adv-x="613" 
d="M481 585h-74l-111 116l-113 -116h-74l130 175h112zM53 0v525h97v-428h306v428h97v-525h-500z" />
    <glyph glyph-name="udieresis.ss01" horiz-adv-x="613" 
d="M159 670v90h85v-90h-85zM319 670v90h84v-90h-84zM53 0v525h97v-428h306v428h97v-525h-500z" />
    <glyph glyph-name="ugrave.ss01" horiz-adv-x="613" 
d="M160 760h134l119 -175h-71zM53 0v525h97v-428h306v428h97v-525h-500z" />
    <glyph glyph-name="uhungarumlaut.ss01" horiz-adv-x="613" 
d="M306 760l-181 -175h-72l119 175h134zM535 760l-181 -175h-72l119 175h134zM53 0v525h97v-428h306v428h97v-525h-500z" />
    <glyph glyph-name="umacron.ss01" horiz-adv-x="613" 
d="M470 643h-345v77h345v-77zM53 0v525h97v-428h306v428h97v-525h-500z" />
    <glyph glyph-name="uogonek.ss01" horiz-adv-x="613" 
d="M343 0c-54 -41 -71 -72 -71 -97c0 -27 24 -43 72 -43c9 0 19 0 33 2v-61c-14 -2 -31 -3 -51 -3c-90 0 -125 47 -125 89c0 56 60 95 90 113h-238v525h97v-428h306v428h97v-525h-210z" />
    <glyph glyph-name="uring.ss01" horiz-adv-x="613" 
d="M291 604c-56 0 -93 34 -93 86c0 50 37 83 93 83s93 -33 93 -83c0 -52 -37 -86 -93 -86zM291 652c24 0 41 15 41 37s-17 36 -41 36c-25 0 -42 -14 -42 -36s17 -37 42 -37zM53 0v525h97v-428h306v428h97v-525h-500z" />
    <glyph glyph-name="y.ss01" horiz-adv-x="565" 
d="M235 -240v240l-220 525h109l138 -361l19 -48h3l20 48l137 361h109l-220 -525v-240h-95z" />
    <glyph glyph-name="yacute.ss01" horiz-adv-x="521" 
d="M398 760l-181 -175h-72l119 175h134zM235 -240v240l-220 525h109l138 -361l19 -48h3l20 48l137 361h109l-220 -525v-240h-95z" />
    <glyph glyph-name="ycircumflex.ss01" horiz-adv-x="521" 
d="M465 585h-74l-111 116l-113 -116h-74l130 175h112zM235 -240v240l-220 525h109l138 -361l19 -48h3l20 48l137 361h109l-220 -525v-240h-95z" />
    <glyph glyph-name="ydieresis.ss01" horiz-adv-x="565" 
d="M161 670v90h85v-90h-85zM321 670v90h84v-90h-84zM235 -240v240l-220 525h109l138 -361l19 -48h3l20 48l137 361h109l-220 -525v-240h-95z" />
    <glyph glyph-name="ygrave.ss01" horiz-adv-x="565" 
d="M120 760h134l119 -175h-71zM235 -240v240l-220 525h109l138 -361l19 -48h3l20 48l137 361h109l-220 -525v-240h-95z" />
    <glyph glyph-name="A.sc" horiz-adv-x="778" 
d="M37 0l298 646h108l298 -646h-109l-83 175h-321l-82 -175h-109zM264 269h250l-125 261z" />
    <glyph glyph-name="Aacute.sc" horiz-adv-x="778" 
d="M515 881l-181 -175h-72l119 175h134zM37 0l298 646h108l298 -646h-109l-83 175h-321l-82 -175h-109zM264 269h250l-125 261z" />
    <glyph glyph-name="Abreve.sc" horiz-adv-x="778" 
d="M503 881h85c0 -105 -79 -175 -199 -175c-119 0 -199 70 -199 175h85c0 -61 46 -101 114 -101c69 0 114 40 114 101zM37 0l298 646h108l298 -646h-109l-83 175h-321l-82 -175h-109zM264 269h250l-125 261z" />
    <glyph glyph-name="Acircumflex.sc" horiz-adv-x="778" 
d="M574 706h-74l-111 116l-113 -116h-74l130 175h112zM37 0l298 646h108l298 -646h-109l-83 175h-321l-82 -175h-109zM264 269h250l-125 261z" />
    <glyph glyph-name="Adieresis.sc" horiz-adv-x="778" 
d="M267 791v90h85v-90h-85zM427 791v90h84v-90h-84zM37 0l298 646h108l298 -646h-109l-83 175h-321l-82 -175h-109zM264 269h250l-125 261z" />
    <glyph glyph-name="Agrave.sc" horiz-adv-x="778" 
d="M262 881h134l119 -175h-71zM37 0l298 646h108l298 -646h-109l-83 175h-321l-82 -175h-109zM264 269h250l-125 261z" />
    <glyph glyph-name="Amacron.sc" horiz-adv-x="778" 
d="M561 764h-345v77h345v-77zM37 0l298 646h108l298 -646h-109l-83 175h-321l-82 -175h-109zM264 269h250l-125 261z" />
    <glyph glyph-name="Aogonek.sc" horiz-adv-x="778" 
d="M599 -98c0 -27 24 -43 72 -43c9 0 19 0 33 2v-61c-14 -2 -31 -3 -51 -3c-90 0 -125 47 -125 89c0 64 79 106 101 120l-80 169h-321l-82 -175h-109l298 646h108l298 -646h-69c-56 -41 -73 -73 -73 -98zM264 269h250l-125 261z" />
    <glyph glyph-name="Aring.sc" horiz-adv-x="778" 
d="M389 725c-56 0 -93 34 -93 86c0 50 37 83 93 83s93 -33 93 -83c0 -52 -37 -86 -93 -86zM389 773c24 0 41 15 41 37s-17 36 -41 36c-25 0 -42 -14 -42 -36s17 -37 42 -37zM37 0l298 646h108l298 -646h-109l-83 175h-321l-82 -175h-109zM264 269h250l-125 261z" />
    <glyph glyph-name="Atilde.sc" horiz-adv-x="778" 
d="M317 861c65 0 91 -62 133 -62c25 0 43 22 43 57h71c0 -88 -45 -130 -103 -130c-74 0 -96 63 -136 63c-24 0 -40 -23 -40 -58h-71c0 75 44 130 103 130zM37 0l298 646h108l298 -646h-109l-83 175h-321l-82 -175h-109zM264 269h250l-125 261z" />
    <glyph glyph-name="AE.sc" horiz-adv-x="1174" 
d="M649 101h420v-101h-521v172h-297l-102 -172h-112l372 646h643v-101h-403v-158h363v-100h-363v-186zM469 545l-160 -272h239v272h-79z" />
    <glyph glyph-name="AEacute.sc" horiz-adv-x="1174" 
d="M720 881l-181 -175h-72l119 175h134zM649 101h420v-101h-521v172h-297l-102 -172h-112l372 646h643v-101h-403v-158h363v-100h-363v-186zM469 545l-160 -272h239v272h-79z" />
    <glyph glyph-name="B.sc" horiz-adv-x="719" 
d="M105 0v646h264c145 0 251 -54 251 -170c0 -63 -49 -114 -105 -128c74 -10 145 -74 145 -162c0 -114 -80 -186 -243 -186h-312zM204 382h146c106 0 171 27 171 84c0 56 -46 92 -154 92h-163v-176zM204 88h182c102 0 175 33 175 107c0 66 -64 105 -184 105h-173v-212z" />
    <glyph glyph-name="C.sc" horiz-adv-x="817" 
d="M421 -14c-214 0 -356 138 -356 334c0 200 143 340 359 340c180 0 312 -107 336 -252h-105c-19 93 -114 160 -238 160c-149 0 -247 -101 -247 -245s99 -245 250 -245c123 0 216 69 235 161h105c-24 -146 -157 -253 -339 -253z" />
    <glyph glyph-name="Cacute.sc" horiz-adv-x="817" 
d="M537 881l-181 -175h-72l119 175h134zM421 -14c-214 0 -356 138 -356 334c0 200 143 340 359 340c180 0 312 -107 336 -252h-105c-19 93 -114 160 -238 160c-149 0 -247 -101 -247 -245s99 -245 250 -245c123 0 216 69 235 161h105c-24 -146 -157 -253 -339 -253z" />
    <glyph glyph-name="Ccaron.sc" horiz-adv-x="817" 
d="M596 881l-130 -175h-112l-130 175h74l113 -116l111 116h74zM421 -14c-214 0 -356 138 -356 334c0 200 143 340 359 340c180 0 312 -107 336 -252h-105c-19 93 -114 160 -238 160c-149 0 -247 -101 -247 -245s99 -245 250 -245c123 0 216 69 235 161h105
c-24 -146 -157 -253 -339 -253z" />
    <glyph glyph-name="Ccedilla.sc" horiz-adv-x="817" 
d="M420 78c123 0 216 69 235 161h105c-24 -143 -152 -249 -328 -253l-41 -37h14c52 0 86 -26 86 -65c0 -46 -41 -76 -97 -76h-63v47h55c30 0 50 11 50 28c0 15 -20 25 -50 25h-44v41l38 39c-191 16 -315 149 -315 332c0 200 143 340 359 340c180 0 312 -107 336 -252h-105
c-19 93 -114 160 -238 160c-149 0 -247 -101 -247 -245s99 -245 250 -245z" />
    <glyph glyph-name="Cdotaccent.sc" horiz-adv-x="817" 
d="M411 761c-40 0 -72 30 -72 69c0 37 32 67 72 67c39 0 73 -30 73 -67c0 -39 -34 -69 -73 -69zM421 -14c-214 0 -356 138 -356 334c0 200 143 340 359 340c180 0 312 -107 336 -252h-105c-19 93 -114 160 -238 160c-149 0 -247 -101 -247 -245s99 -245 250 -245
c123 0 216 69 235 161h105c-24 -146 -157 -253 -339 -253z" />
    <glyph glyph-name="D.sc" horiz-adv-x="780" 
d="M398 -1l-293 1l1 646h275c206 0 340 -97 340 -325c0 -207 -103 -323 -323 -322zM205 92h174c142 0 237 65 237 232c0 150 -76 230 -237 230h-174v-462z" />
    <glyph glyph-name="Eth.sc" horiz-adv-x="780" 
d="M381 646c206 0 340 -97 340 -325c0 -207 -103 -323 -323 -322l-293 1v284h-81v77h82v285h275zM379 92c142 0 237 65 237 232c0 150 -76 230 -237 230h-174v-193h164v-77h-164v-192h174z" />
    <glyph glyph-name="Dcaron.sc" horiz-adv-x="780" 
d="M573 881l-130 -175h-112l-130 175h74l113 -116l111 116h74zM398 -1l-293 1l1 646h275c206 0 340 -97 340 -325c0 -207 -103 -323 -323 -322zM205 92h174c142 0 237 65 237 232c0 150 -76 230 -237 230h-174v-462z" />
    <glyph glyph-name="Dcroat.sc" horiz-adv-x="780" 
d="M381 646c206 0 340 -97 340 -325c0 -207 -103 -323 -323 -322l-293 1v284h-81v77h82v285h275zM379 92c142 0 237 65 237 232c0 150 -76 230 -237 230h-174v-193h164v-77h-164v-192h174z" />
    <glyph glyph-name="E.sc" horiz-adv-x="731" 
d="M204 96h422v-96h-521v646h504v-96h-405v-166h366v-94h-366v-194z" />
    <glyph glyph-name="Eacute.sc" horiz-adv-x="731" 
d="M491 881l-181 -175h-72l119 175h134zM204 96h422v-96h-521v646h504v-96h-405v-166h366v-94h-366v-194z" />
    <glyph glyph-name="Ecaron.sc" horiz-adv-x="731" 
d="M550 881l-130 -175h-112l-130 175h74l113 -116l111 116h74zM204 96h422v-96h-521v646h504v-96h-405v-166h366v-94h-366v-194z" />
    <glyph glyph-name="Ecircumflex.sc" horiz-adv-x="731" 
d="M550 706h-74l-111 116l-113 -116h-74l130 175h112zM204 96h422v-96h-521v646h504v-96h-405v-166h366v-94h-366v-194z" />
    <glyph glyph-name="Edieresis.sc" horiz-adv-x="731" 
d="M243 791v90h85v-90h-85zM403 791v90h84v-90h-84zM204 96h422v-96h-521v646h504v-96h-405v-166h366v-94h-366v-194z" />
    <glyph glyph-name="Edotaccent.sc" horiz-adv-x="731" 
d="M365 761c-40 0 -72 30 -72 69c0 37 32 67 72 67c39 0 73 -30 73 -67c0 -39 -34 -69 -73 -69zM204 96h422v-96h-521v646h504v-96h-405v-166h366v-94h-366v-194z" />
    <glyph glyph-name="Egrave.sc" horiz-adv-x="731" 
d="M238 881h134l119 -175h-71zM204 96h422v-96h-521v646h504v-96h-405v-166h366v-94h-366v-194z" />
    <glyph glyph-name="Emacron.sc" horiz-adv-x="731" 
d="M537 764h-345v77h345v-77zM204 96h422v-96h-521v646h504v-96h-405v-166h366v-94h-366v-194z" />
    <glyph glyph-name="Eogonek.sc" horiz-adv-x="731" 
d="M609 -141c9 0 19 0 33 2v-61c-14 -2 -31 -3 -51 -3c-90 0 -125 47 -125 89c0 57 62 96 91 114h-452v646h504v-96h-405v-166h366v-94h-366v-194h422v-96h-16c-56 -41 -73 -73 -73 -98c0 -27 24 -43 72 -43z" />
    <glyph glyph-name="F.sc" horiz-adv-x="631" 
d="M601 550h-396v-166h347v-94h-347v-290h-100v646h496v-96z" />
    <glyph glyph-name="G.sc" horiz-adv-x="836" 
d="M452 -14c-233 0 -387 135 -387 338c0 204 144 336 358 336c176 0 311 -94 337 -230h-105c-22 82 -116 138 -236 138c-150 0 -249 -96 -249 -245c0 -148 111 -245 283 -245c84 0 168 27 209 71v96h-263v92h361v-223c-58 -77 -182 -128 -308 -128z" />
    <glyph glyph-name="Gbreve.sc" horiz-adv-x="836" 
d="M543 881h85c0 -105 -79 -175 -199 -175c-119 0 -199 70 -199 175h85c0 -61 46 -101 114 -101c69 0 114 40 114 101zM452 -14c-233 0 -387 135 -387 338c0 204 144 336 358 336c176 0 311 -94 337 -230h-105c-22 82 -116 138 -236 138c-150 0 -249 -96 -249 -245
c0 -148 111 -245 283 -245c84 0 168 27 209 71v96h-263v92h361v-223c-58 -77 -182 -128 -308 -128z" />
    <glyph glyph-name="uni0122.sc" horiz-adv-x="836" 
d="M452 -14c-233 0 -387 135 -387 338c0 204 144 336 358 336c176 0 311 -94 337 -230h-105c-22 82 -116 138 -236 138c-150 0 -249 -96 -249 -245c0 -148 111 -245 283 -245c84 0 168 27 209 71v96h-263v92h361v-223c-58 -77 -182 -128 -308 -128zM367 -240l37 170h88
l-70 -170h-55z" />
    <glyph glyph-name="Gdotaccent.sc" horiz-adv-x="836" 
d="M429 761c-40 0 -72 30 -72 69c0 37 32 67 72 67c39 0 73 -30 73 -67c0 -39 -34 -69 -73 -69zM452 -14c-233 0 -387 135 -387 338c0 204 144 336 358 336c176 0 311 -94 337 -230h-105c-22 82 -116 138 -236 138c-150 0 -249 -96 -249 -245c0 -148 111 -245 283 -245
c84 0 168 27 209 71v96h-263v92h361v-223c-58 -77 -182 -128 -308 -128z" />
    <glyph glyph-name="H.sc" horiz-adv-x="777" 
d="M572 646h100v-646h-100v288h-367v-288h-100v646h100v-262h367v262z" />
    <glyph glyph-name="Hbar.sc" horiz-adv-x="777" 
d="M734 529v-77h-62v-452h-100v288h-367v-288h-100v452h-60v77h60v117h100v-117h367v117h100v-117h62zM572 384v68h-367v-68h367z" />
    <glyph glyph-name="I.sc" horiz-adv-x="272" 
d="M86 0v646h100v-646h-100z" />
    <glyph glyph-name="Iacute.sc" horiz-adv-x="272" 
d="M261 881l-181 -175h-72l119 175h134zM86 0v646h100v-646h-100z" />
    <glyph glyph-name="Icircumflex.sc" horiz-adv-x="272" 
d="M320 706h-74l-111 116l-113 -116h-74l130 175h112zM86 0v646h100v-646h-100z" />
    <glyph glyph-name="Idieresis.sc" horiz-adv-x="272" 
d="M12 791v90h85v-90h-85zM172 791v90h84v-90h-84zM86 0v646h100v-646h-100z" />
    <glyph glyph-name="Idotaccent.sc" horiz-adv-x="272" 
d="M135 761c-40 0 -72 30 -72 69c0 37 32 67 72 67c39 0 73 -30 73 -67c0 -39 -34 -69 -73 -69zM86 0v646h100v-646h-100z" />
    <glyph glyph-name="Igrave.sc" horiz-adv-x="272" 
d="M8 881h134l119 -175h-71zM86 0v646h100v-646h-100z" />
    <glyph glyph-name="Imacron.sc" horiz-adv-x="272" 
d="M307 764h-345v77h345v-77zM86 0v646h100v-646h-100z" />
    <glyph glyph-name="Iogonek.sc" horiz-adv-x="272" 
d="M175 -141c9 0 19 0 33 2v-61c-14 -2 -31 -3 -51 -3c-90 0 -125 47 -125 89c0 57 62 96 91 114h-37v646h100v-646h-10c-56 -41 -73 -73 -73 -98c0 -27 24 -43 72 -43z" />
    <glyph glyph-name="J.sc" horiz-adv-x="607" 
d="M287 -14c-157 0 -249 74 -260 213h101c12 -81 60 -121 152 -121c133 0 139 84 139 245v323h102v-339c0 -189 -16 -321 -234 -321z" />
    <glyph glyph-name="K.sc" horiz-adv-x="682" 
d="M645 0h-126l-314 298v-298h-100v646h100v-292l299 292h126l-328 -317z" />
    <glyph glyph-name="uni0136.sc" horiz-adv-x="682" 
d="M302 329l343 -329h-126l-314 298v-298h-100v646h100v-292l299 292h126zM268 -240l37 170h88l-70 -170h-55z" />
    <glyph glyph-name="L.sc" horiz-adv-x="704" 
d="M204 96h395v-96h-494v646h99v-550z" />
    <glyph glyph-name="Lacute.sc" horiz-adv-x="626" 
d="M439 881l-181 -175h-72l119 175h134zM204 96h395v-96h-494v646h99v-550z" />
    <glyph glyph-name="Lcaron.sc" horiz-adv-x="714" 
d="M214 96h395v-96h-494v646h99v-550zM567 646l-95 -149h-60l43 149h112z" />
    <glyph glyph-name="uni013B.sc" horiz-adv-x="626" 
d="M204 96h395v-96h-494v646h99v-550zM251 -240l37 170h88l-70 -170h-55z" />
    <glyph glyph-name="Lslash.sc" horiz-adv-x="626" 
d="M204 96h395v-96h-494v311l-105 -65v107l105 65v228h99v-166l115 71v-107l-115 -71v-277z" />
    <glyph glyph-name="M.sc" horiz-adv-x="879" 
d="M105 0v646h110l225 -533l224 533h110v-646h-99v436l-182 -436h-107l-182 436v-436h-99z" />
    <glyph glyph-name="N.sc" horiz-adv-x="777" 
d="M105 0v646h99l368 -489v489h100v-646h-104l-363 469v-469h-100z" />
    <glyph glyph-name="Nacute.sc" horiz-adv-x="777" 
d="M513 881l-181 -175h-72l119 175h134zM105 0v646h99l368 -489v489h100v-646h-104l-363 469v-469h-100z" />
    <glyph glyph-name="Ncaron.sc" horiz-adv-x="777" 
d="M572 881l-130 -175h-112l-130 175h74l113 -116l111 116h74zM105 0v646h99l368 -489v489h100v-646h-104l-363 469v-469h-100z" />
    <glyph glyph-name="uni0145.sc" horiz-adv-x="777" 
d="M105 0v646h99l368 -489v489h100v-646h-104l-363 469v-469h-100zM325 -240l37 170h88l-70 -170h-55z" />
    <glyph glyph-name="Eng.sc" horiz-adv-x="777" 
d="M481 -204c-169 0 -202 100 -202 160h103c0 -18 5 -76 95 -76c84 0 91 54 93 114l-363 475v-469h-102v646h102l363 -489v489h102v-646c0 -95 -12 -204 -191 -204z" />
    <glyph glyph-name="Ntilde.sc" horiz-adv-x="777" 
d="M315 861c65 0 91 -62 133 -62c25 0 43 22 43 57h71c0 -88 -45 -130 -103 -130c-74 0 -96 63 -136 63c-24 0 -40 -23 -40 -58h-71c0 75 44 130 103 130zM105 0v646h99l368 -489v489h100v-646h-104l-363 469v-469h-100z" />
    <glyph glyph-name="O.sc" horiz-adv-x="855" 
d="M429 -14c-219 0 -364 139 -364 337s145 337 364 337c217 0 361 -139 361 -337s-144 -337 -361 -337zM427 78c157 0 258 104 258 245s-101 245 -258 245c-156 0 -257 -104 -257 -245s101 -245 257 -245z" />
    <glyph glyph-name="Oacute.sc" horiz-adv-x="855" 
d="M553 881l-181 -175h-72l119 175h134zM429 -14c-219 0 -364 139 -364 337s145 337 364 337c217 0 361 -139 361 -337s-144 -337 -361 -337zM427 78c157 0 258 104 258 245s-101 245 -258 245c-156 0 -257 -104 -257 -245s101 -245 257 -245z" />
    <glyph glyph-name="Ocircumflex.sc" horiz-adv-x="855" 
d="M612 706h-74l-111 116l-113 -116h-74l130 175h112zM429 -14c-219 0 -364 139 -364 337s145 337 364 337c217 0 361 -139 361 -337s-144 -337 -361 -337zM427 78c157 0 258 104 258 245s-101 245 -258 245c-156 0 -257 -104 -257 -245s101 -245 257 -245z" />
    <glyph glyph-name="Odieresis.sc" horiz-adv-x="855" 
d="M306 791v90h85v-90h-85zM466 791v90h84v-90h-84zM429 -14c-219 0 -364 139 -364 337s145 337 364 337c217 0 361 -139 361 -337s-144 -337 -361 -337zM427 78c157 0 258 104 258 245s-101 245 -258 245c-156 0 -257 -104 -257 -245s101 -245 257 -245z" />
    <glyph glyph-name="Ograve.sc" horiz-adv-x="855" 
d="M300 881h134l119 -175h-71zM429 -14c-219 0 -364 139 -364 337s145 337 364 337c217 0 361 -139 361 -337s-144 -337 -361 -337zM427 78c157 0 258 104 258 245s-101 245 -258 245c-156 0 -257 -104 -257 -245s101 -245 257 -245z" />
    <glyph glyph-name="Ohungarumlaut.sc" horiz-adv-x="855" 
d="M438 881l-181 -175h-72l119 175h134zM667 881l-181 -175h-72l119 175h134zM429 -14c-219 0 -364 139 -364 337s145 337 364 337c217 0 361 -139 361 -337s-144 -337 -361 -337zM427 78c157 0 258 104 258 245s-101 245 -258 245c-156 0 -257 -104 -257 -245
s101 -245 257 -245z" />
    <glyph glyph-name="Omacron.sc" horiz-adv-x="855" 
d="M599 764h-345v77h345v-77zM429 -14c-219 0 -364 139 -364 337s145 337 364 337c217 0 361 -139 361 -337s-144 -337 -361 -337zM427 78c157 0 258 104 258 245s-101 245 -258 245c-156 0 -257 -104 -257 -245s101 -245 257 -245z" />
    <glyph glyph-name="Oslash.sc" horiz-adv-x="855" 
d="M659 592c83 -59 131 -154 131 -269c0 -198 -144 -337 -361 -337c-64 0 -121 12 -171 33l-94 -134h-86l118 169c-83 60 -131 155 -131 269c0 198 145 337 364 337c63 0 119 -12 168 -33l94 134h86zM170 323c0 -77 30 -143 83 -187l288 411c-33 13 -72 21 -114 21
c-156 0 -257 -104 -257 -245zM427 78c157 0 258 104 258 245c0 77 -30 143 -83 187l-288 -411c33 -13 71 -21 113 -21z" />
    <glyph glyph-name="Otilde.sc" horiz-adv-x="855" 
d="M355 861c65 0 91 -62 133 -62c25 0 43 22 43 57h71c0 -88 -45 -130 -103 -130c-74 0 -96 63 -136 63c-24 0 -40 -23 -40 -58h-71c0 75 44 130 103 130zM429 -14c-219 0 -364 139 -364 337s145 337 364 337c217 0 361 -139 361 -337s-144 -337 -361 -337zM427 78
c157 0 258 104 258 245s-101 245 -258 245c-156 0 -257 -104 -257 -245s101 -245 257 -245z" />
    <glyph glyph-name="OE.sc" horiz-adv-x="1312" 
d="M427 -14c-218 0 -362 139 -362 337s144 337 362 337c109 0 196 -30 259 -85v72h505v-96h-402v-164h363v-97h-363v-192h418v-97h-521v71c-63 -56 -150 -86 -259 -86zM426 78c157 0 258 104 258 245s-101 245 -258 245c-155 0 -257 -104 -257 -245s102 -245 257 -245z" />
    <glyph glyph-name="P.sc" horiz-adv-x="679" 
d="M105 0v646h283c139 0 232 -61 232 -186c0 -114 -77 -184 -234 -184h-182v-276h-99zM204 364h163c94 0 154 29 154 96c0 60 -48 98 -154 98h-163v-194z" />
    <glyph glyph-name="Thorn.sc" horiz-adv-x="679" 
d="M360 517c126 0 260 -29 260 -186s-130 -184 -252 -184h-161v-147h-102v646h102v-129h153zM358 242c73 0 156 3 156 89s-84 90 -156 90h-151v-179h151z" />
    <glyph glyph-name="Q.sc" horiz-adv-x="855" 
d="M790 323c0 -117 -50 -213 -135 -272l135 -107h-131l-84 66c-44 -16 -93 -24 -146 -24c-219 0 -364 139 -364 337s145 337 364 337c217 0 361 -139 361 -337zM427 78c19 0 38 2 56 5l-123 96h132l81 -64c71 43 113 118 113 208c0 141 -102 245 -259 245
c-156 0 -257 -104 -257 -245s101 -245 257 -245z" />
    <glyph glyph-name="R.sc" horiz-adv-x="677" 
d="M105 0v646h264c156 0 251 -58 251 -178c0 -96 -90 -163 -238 -170c-18 -1 -39 -1 -56 -1l325 -297h-123l-324 294v-294h-99zM204 378h176c71 0 140 27 140 89c0 56 -48 91 -155 91h-161v-180z" />
    <glyph glyph-name="Racute.sc" horiz-adv-x="677" 
d="M464 881l-181 -175h-72l119 175h134zM105 0v646h264c156 0 251 -58 251 -178c0 -96 -90 -163 -238 -170c-18 -1 -39 -1 -56 -1l325 -297h-123l-324 294v-294h-99zM204 378h176c71 0 140 27 140 89c0 56 -48 91 -155 91h-161v-180z" />
    <glyph glyph-name="Rcaron.sc" horiz-adv-x="677" 
d="M523 881l-130 -175h-112l-130 175h74l113 -116l111 116h74zM105 0v646h264c156 0 251 -58 251 -178c0 -96 -90 -163 -238 -170c-18 -1 -39 -1 -56 -1l325 -297h-123l-324 294v-294h-99zM204 378h176c71 0 140 27 140 89c0 56 -48 91 -155 91h-161v-180z" />
    <glyph glyph-name="uni0156.sc" horiz-adv-x="677" 
d="M105 0v646h264c156 0 251 -58 251 -178c0 -96 -90 -163 -238 -170c-18 -1 -39 -1 -56 -1l325 -297h-123l-324 294v-294h-99zM204 378h176c71 0 140 27 140 89c0 56 -48 91 -155 91h-161v-180zM276 -240l37 170h88l-70 -170h-55z" />
    <glyph glyph-name="S.sc" horiz-adv-x="712" 
d="M380 -20c-221 0 -317 106 -329 229h104c30 -110 121 -141 242 -141c97 0 161 29 161 97c0 67 -84 87 -164 107c-158 39 -297 63 -301 196c-4 140 146 190 269 190c174 0 266 -89 270 -214h-102c-10 103 -104 126 -179 126c-47 0 -155 -11 -155 -92c0 -63 57 -82 175 -108
c117 -26 281 -47 281 -197c0 -134 -91 -193 -272 -193z" />
    <glyph glyph-name="Sacute.sc" horiz-adv-x="712" 
d="M475 873l-181 -175h-72l119 175h134zM380 -20c-221 0 -317 106 -329 229h104c30 -110 121 -141 242 -141c97 0 161 29 161 97c0 67 -84 87 -164 107c-158 39 -297 63 -301 196c-4 140 146 190 269 190c174 0 266 -89 270 -214h-102c-10 103 -104 126 -179 126
c-47 0 -155 -11 -155 -92c0 -63 57 -82 175 -108c117 -26 281 -47 281 -197c0 -134 -91 -193 -272 -193z" />
    <glyph glyph-name="Scaron.sc" horiz-adv-x="712" 
d="M534 873l-130 -175h-112l-130 175h74l113 -116l111 116h74zM380 -20c-221 0 -317 106 -329 229h104c30 -110 121 -141 242 -141c97 0 161 29 161 97c0 67 -84 87 -164 107c-158 39 -297 63 -301 196c-4 140 146 190 269 190c174 0 266 -89 270 -214h-102
c-10 103 -104 126 -179 126c-47 0 -155 -11 -155 -92c0 -63 57 -82 175 -108c117 -26 281 -47 281 -197c0 -134 -91 -193 -272 -193z" />
    <glyph glyph-name="Scedilla.sc" horiz-adv-x="712" 
d="M380 -20h-16l-35 -31h14c52 0 86 -26 86 -65c0 -46 -41 -76 -97 -76h-63v47h55c30 0 50 11 50 28c0 15 -20 25 -50 25h-44v41l34 34c-174 20 -252 116 -263 226h104c30 -110 121 -141 242 -141c97 0 161 29 161 97c0 67 -84 87 -164 107c-158 39 -297 63 -301 196
c-4 140 146 190 269 190c174 0 266 -89 270 -214h-102c-10 103 -104 126 -179 126c-47 0 -155 -11 -155 -92c0 -63 57 -82 175 -108c117 -26 281 -47 281 -197c0 -134 -91 -193 -272 -193z" />
    <glyph glyph-name="uni0218.sc" horiz-adv-x="712" 
d="M380 -20c-221 0 -317 106 -329 229h104c30 -110 121 -141 242 -141c97 0 161 29 161 97c0 67 -84 87 -164 107c-158 39 -297 63 -301 196c-4 140 146 190 269 190c174 0 266 -89 270 -214h-102c-10 103 -104 126 -179 126c-47 0 -155 -11 -155 -92c0 -63 57 -82 175 -108
c117 -26 281 -47 281 -197c0 -134 -91 -193 -272 -193zM287 -240l37 170h88l-70 -170h-55z" />
    <glyph glyph-name="T.sc" horiz-adv-x="634" 
d="M597 550h-230v-550h-99v550h-231v96h559z" />
    <glyph glyph-name="Tbar.sc" horiz-adv-x="634" 
d="M367 550v-189h122v-77h-122v-284h-99v284h-124v77h124v189h-231v96h559l1 -96h-230z" />
    <glyph glyph-name="Tcaron.sc" horiz-adv-x="634" 
d="M502 881l-130 -175h-112l-130 175h74l113 -116l111 116h74zM597 550h-230v-550h-99v550h-231v96h559z" />
    <glyph glyph-name="uni0162.sc" horiz-adv-x="634" 
d="M311 -51c52 0 86 -26 86 -65c0 -46 -41 -76 -97 -76h-63v47h55c30 0 50 11 50 28c0 15 -20 25 -50 25h-44v41l50 51h-30v550h-231v96h559l1 -96h-230v-526h13l-13 -12v-12h-14l-56 -51h14z" />
    <glyph glyph-name="uni021A.sc" horiz-adv-x="634" 
d="M597 550h-230v-550h-99v550h-231v96h559zM255 -240l37 170h88l-70 -170h-55z" />
    <glyph glyph-name="U.sc" horiz-adv-x="777" 
d="M389 -14c-260 0 -284 142 -284 309v351h100v-333c0 -134 14 -235 184 -235c169 0 183 101 183 235v333h100v-351c0 -169 -25 -309 -283 -309z" />
    <glyph glyph-name="Uacute.sc" horiz-adv-x="748" 
d="M513 881l-181 -175h-72l119 175h134zM389 -14c-260 0 -284 142 -284 309v351h100v-333c0 -134 14 -235 184 -235c169 0 183 101 183 235v333h100v-351c0 -169 -25 -309 -283 -309z" />
    <glyph glyph-name="Ucircumflex.sc" horiz-adv-x="748" 
d="M572 706h-74l-111 116l-113 -116h-74l130 175h112zM389 -14c-260 0 -284 142 -284 309v351h100v-333c0 -134 14 -235 184 -235c169 0 183 101 183 235v333h100v-351c0 -169 -25 -309 -283 -309z" />
    <glyph glyph-name="Udieresis.sc" horiz-adv-x="748" 
d="M266 791v90h85v-90h-85zM426 791v90h84v-90h-84zM389 -14c-260 0 -284 142 -284 309v351h100v-333c0 -134 14 -235 184 -235c169 0 183 101 183 235v333h100v-351c0 -169 -25 -309 -283 -309z" />
    <glyph glyph-name="Ugrave.sc" horiz-adv-x="748" 
d="M260 881h134l119 -175h-71zM389 -14c-260 0 -284 142 -284 309v351h100v-333c0 -134 14 -235 184 -235c169 0 183 101 183 235v333h100v-351c0 -169 -25 -309 -283 -309z" />
    <glyph glyph-name="Uhungarumlaut.sc" horiz-adv-x="748" 
d="M398 881l-181 -175h-72l119 175h134zM627 881l-181 -175h-72l119 175h134zM389 -14c-260 0 -284 142 -284 309v351h100v-333c0 -134 14 -235 184 -235c169 0 183 101 183 235v333h100v-351c0 -169 -25 -309 -283 -309z" />
    <glyph glyph-name="Umacron.sc" horiz-adv-x="748" 
d="M559 764h-345v77h345v-77zM389 -14c-260 0 -284 142 -284 309v351h100v-333c0 -134 14 -235 184 -235c169 0 183 101 183 235v333h100v-351c0 -169 -25 -309 -283 -309z" />
    <glyph glyph-name="Uogonek.sc" horiz-adv-x="748" 
d="M572 646h100v-351c0 -165 -24 -303 -266 -309c-41 -34 -55 -62 -55 -84c0 -27 24 -43 72 -43c9 0 19 0 33 2v-61c-14 -2 -31 -3 -51 -3c-90 0 -125 47 -125 89c0 46 40 80 71 101c-224 14 -246 150 -246 308v351h100v-333c0 -134 14 -235 184 -235c169 0 183 101 183 235
v333z" />
    <glyph glyph-name="Uring.sc" horiz-adv-x="748" 
d="M387 725c-56 0 -93 34 -93 86c0 50 37 83 93 83s93 -33 93 -83c0 -52 -37 -86 -93 -86zM387 773c24 0 41 15 41 37s-17 36 -41 36c-25 0 -42 -14 -42 -36s17 -37 42 -37zM389 -14c-260 0 -284 142 -284 309v351h100v-333c0 -134 14 -235 184 -235c169 0 183 101 183 235
v333h100v-351c0 -169 -25 -309 -283 -309z" />
    <glyph glyph-name="V.sc" horiz-adv-x="758" 
d="M325 0l-298 646h112l240 -530l240 530h112l-298 -646h-108z" />
    <glyph glyph-name="W.sc" horiz-adv-x="1099" 
d="M236 0l-209 646h112l152 -530l194 530h128l194 -530l153 530h112l-210 -646h-109l-204 543l-204 -543h-109z" />
    <glyph glyph-name="Wacute.sc" horiz-adv-x="1099" 
d="M675 881l-181 -175h-72l119 175h134zM236 0l-209 646h112l152 -530l194 530h128l194 -530l153 530h112l-210 -646h-109l-204 543l-204 -543h-109z" />
    <glyph glyph-name="Wcircumflex.sc" horiz-adv-x="1099" 
d="M734 706h-74l-111 116l-113 -116h-74l130 175h112zM236 0l-209 646h112l152 -530l194 530h128l194 -530l153 530h112l-210 -646h-109l-204 543l-204 -543h-109z" />
    <glyph glyph-name="Wdieresis.sc" horiz-adv-x="1099" 
d="M427 791v90h85v-90h-85zM587 791v90h84v-90h-84zM236 0l-209 646h112l152 -530l194 530h128l194 -530l153 530h112l-210 -646h-109l-204 543l-204 -543h-109z" />
    <glyph glyph-name="Wgrave.sc" horiz-adv-x="1099" 
d="M422 881h134l119 -175h-71zM236 0l-209 646h112l152 -530l194 530h128l194 -530l153 530h112l-210 -646h-109l-204 543l-204 -543h-109z" />
    <glyph glyph-name="X.sc" horiz-adv-x="693" 
d="M656 0h-120l-190 249l-189 -249h-120l250 326l-235 320h120l174 -240l176 240h119l-235 -320z" />
    <glyph glyph-name="Y.sc" horiz-adv-x="691" 
d="M296 0v224l-263 422h113l200 -331l199 331h113l-263 -422v-224h-99z" />
    <glyph glyph-name="Yacute.sc" horiz-adv-x="691" 
d="M472 881l-181 -175h-72l119 175h134zM296 0v224l-263 422h113l200 -331l199 331h113l-263 -422v-224h-99z" />
    <glyph glyph-name="Ycircumflex.sc" horiz-adv-x="691" 
d="M531 706h-74l-111 116l-113 -116h-74l130 175h112zM296 0v224l-263 422h113l200 -331l199 331h113l-263 -422v-224h-99z" />
    <glyph glyph-name="Ydieresis.sc" horiz-adv-x="691" 
d="M221 791v90h85v-90h-85zM381 791v90h84v-90h-84zM296 0v224l-263 422h113l200 -331l199 331h113l-263 -422v-224h-99z" />
    <glyph glyph-name="Ygrave.sc" horiz-adv-x="691" 
d="M219 881h134l119 -175h-71zM296 0v224l-263 422h113l200 -331l199 331h113l-263 -422v-224h-99z" />
    <glyph glyph-name="Z.sc" horiz-adv-x="667" 
d="M172 96h448v-96h-566v96l409 454h-399v96h516l1 -96z" />
    <glyph glyph-name="Zacute.sc" horiz-adv-x="667" 
d="M463 881l-181 -175h-72l119 175h134zM172 96h448v-96h-566v96l409 454h-399v96h516l1 -96z" />
    <glyph glyph-name="Zcaron.sc" horiz-adv-x="667" 
d="M522 881l-130 -175h-112l-130 175h74l113 -116l111 116h74zM172 96h448v-96h-566v96l409 454h-399v96h516l1 -96z" />
    <glyph glyph-name="Zdotaccent.sc" horiz-adv-x="667" 
d="M337 761c-40 0 -72 30 -72 69c0 37 32 67 72 67c39 0 73 -30 73 -67c0 -39 -34 -69 -73 -69zM172 96h448v-96h-566v96l409 454h-399v96h516l1 -96z" />
    <glyph glyph-name="a.dnom" horiz-adv-x="481" 
d="M191 -309c-119 0 -158 65 -158 125c0 39 17 71 51 95c38 26 101 42 236 42h25v23c0 48 -26 80 -99 80c-79 0 -103 -34 -104 -63h-86c2 60 40 134 192 134c111 0 185 -42 185 -179v-146v-49v-58h-79v63h-1c-32 -38 -93 -67 -162 -67zM211 -242c91 0 135 50 135 79v58h-29
c-108 0 -198 -13 -198 -77c0 -38 31 -60 92 -60z" />
    <glyph glyph-name="b.dnom" horiz-adv-x="533" 
d="M289 127c125 0 208 -87 208 -218c0 -133 -82 -222 -204 -222c-59 0 -125 26 -155 64v-51h-84v600h87v-240c36 41 93 67 148 67zM278 -239c79 0 132 58 132 145c0 89 -53 148 -134 148s-135 -51 -135 -129v-43c0 -72 54 -121 137 -121z" />
    <glyph glyph-name="c.dnom" horiz-adv-x="491" 
d="M254 -313c-142 0 -218 96 -218 221c0 129 78 219 216 219c117 0 198 -65 205 -162h-86c-12 61 -53 89 -117 89c-87 0 -131 -57 -131 -146s44 -148 131 -148c64 0 105 36 117 81h86c-9 -77 -77 -154 -203 -154z" />
    <glyph glyph-name="d.dnom" horiz-adv-x="531" 
d="M394 300h87v-600h-85v51c-31 -38 -95 -64 -154 -64c-122 0 -204 89 -204 222c0 131 83 218 208 218c56 0 112 -26 148 -67v240zM394 -109v42c0 73 -54 121 -135 121s-134 -58 -134 -145c0 -89 54 -148 135 -148s134 52 134 130z" />
    <glyph glyph-name="e.dnom" horiz-adv-x="491" 
d="M254 -313c-142 0 -218 95 -218 221c0 129 79 219 214 219c120 0 207 -72 207 -186v-61l-332 -1c8 -72 51 -119 129 -119c64 0 105 35 117 64h86c-9 -60 -77 -137 -203 -137zM126 -57h245c0 76 -54 111 -122 111c-67 0 -123 -35 -123 -111z" />
    <glyph glyph-name="f.dnom" horiz-adv-x="273" 
d="M79 -300v339h-60v76h60v60c0 85 35 138 129 138c31 0 51 -4 56 -5v-71c-5 1 -10 3 -28 3c-49 0 -70 -19 -70 -57v-68h94v-76h-94v-339h-87z" />
    <glyph glyph-name="g.dnom" horiz-adv-x="522" 
d="M394 115h87v-381c0 -176 -88 -224 -209 -224c-118 0 -193 44 -217 143h87c15 -49 65 -70 127 -70c94 0 125 46 125 149v26c-35 -48 -89 -71 -152 -71c-131 0 -204 94 -204 224c0 119 61 216 199 216c64 0 121 -21 157 -73v61zM394 -109v42c0 75 -58 121 -137 121
c-89 0 -138 -56 -138 -145c0 -90 50 -148 140 -148c80 0 135 47 135 130z" />
    <glyph glyph-name="h.dnom" horiz-adv-x="509" 
d="M54 -300v600h87v-248c37 57 100 75 153 75c102 0 165 -67 165 -167v-260h-87v232c0 79 -36 122 -102 122c-70 0 -129 -49 -129 -133v-221h-87z" />
    <glyph glyph-name="i.dnom" horiz-adv-x="204" 
d="M54 211v89h96v-89h-96zM58 -300v415h87v-415h-87z" />
    <glyph glyph-name="j.dnom" horiz-adv-x="218" 
d="M62 211v89h96v-89h-96zM25 -490c-31 0 -56 5 -56 5v72s9 -2 28 -2c49 0 69 20 69 56v474h87v-476c0 -79 -35 -129 -128 -129z" />
    <glyph glyph-name="k.dnom" horiz-adv-x="423" 
d="M412 -300h-100l-171 178v-178h-87v600h87v-370l154 185h100l-177 -207z" />
    <glyph glyph-name="l.dnom" horiz-adv-x="195" 
d="M54 -300v600h87v-600h-87z" />
    <glyph glyph-name="m.dnom" horiz-adv-x="839" 
d="M620 127c101 0 161 -57 161 -175v-252h-87v239c0 94 -48 115 -97 115c-77 0 -134 -49 -134 -133v-221h-87v239c0 94 -48 115 -97 115c-77 0 -134 -49 -134 -133v-221h-87v415h87v-63c36 55 94 75 156 75c71 0 121 -27 146 -83c48 65 111 83 173 83z" />
    <glyph glyph-name="n.dnom" horiz-adv-x="521" 
d="M58 -300v415h87v-63c37 57 100 75 153 75c102 0 165 -68 165 -168v-259h-87v232c0 79 -36 122 -102 122c-70 0 -129 -49 -129 -133v-221h-87z" />
    <glyph glyph-name="o.dnom" horiz-adv-x="515" 
d="M258 -313c-133 0 -222 96 -222 221c0 128 89 219 222 219c134 0 221 -91 221 -219c0 -125 -87 -221 -221 -221zM257 -240c87 0 135 58 135 148c0 89 -48 146 -135 146c-86 0 -134 -57 -134 -146c0 -90 48 -148 134 -148z" />
    <glyph glyph-name="p.dnom" horiz-adv-x="537" 
d="M293 127c125 0 208 -87 208 -218c0 -133 -82 -222 -204 -222c-59 0 -121 26 -152 64v-241h-87v605h85v-55c35 41 95 67 150 67zM282 -239c79 0 132 58 132 145c0 89 -53 148 -134 148s-135 -51 -135 -129v-43c0 -72 54 -121 137 -121z" />
    <glyph glyph-name="q.dnom" horiz-adv-x="546" 
d="M394 115h85v-605h-87v241c-32 -38 -93 -64 -152 -64c-122 0 -204 89 -204 222c0 131 83 218 207 218c57 0 116 -26 151 -67v55zM392 -109v42c0 73 -55 121 -137 121c-79 0 -132 -58 -132 -145c0 -89 53 -148 134 -148s135 52 135 130z" />
    <glyph glyph-name="r.dnom" horiz-adv-x="312" 
d="M58 -300v415h83v-75c18 33 46 58 80 72c25 10 51 13 85 13v-90h-19c-80 0 -142 -54 -142 -140v-195h-87z" />
    <glyph glyph-name="s.dnom" horiz-adv-x="442" 
d="M236 -313c-135 0 -198 65 -206 149h86c15 -59 62 -79 124 -79c50 0 83 17 83 54s-47 49 -92 61c-96 25 -176 48 -178 132c-1 90 87 123 170 123c111 0 170 -56 174 -139h-86c-6 56 -54 70 -94 70c-27 0 -80 -8 -80 -50c0 -37 38 -48 110 -67c71 -19 160 -35 160 -125
c0 -88 -62 -129 -171 -129z" />
    <glyph glyph-name="t.dnom" horiz-adv-x="298" 
d="M218 -308c-104 0 -141 42 -141 123v224h-60v67c54 0 65 21 65 69v46h82v-106h102v-76h-102v-204c0 -52 21 -66 77 -66h30v-74c-21 -2 -37 -3 -53 -3z" />
    <glyph glyph-name="u.dnom" horiz-adv-x="514" 
d="M204 -313c-102 0 -162 57 -162 176v252h87v-239c0 -94 48 -116 98 -116c76 0 133 50 133 134v221h87v-415h-87v69c-37 -61 -93 -82 -156 -82z" />
    <glyph glyph-name="v.dnom" horiz-adv-x="454" 
d="M184 -300l-173 415h95l102 -270l18 -44h2l17 44l102 270h96l-175 -415h-84z" />
    <glyph glyph-name="w.dnom" horiz-adv-x="763" 
d="M184 -300l-173 415h95l120 -314h2l106 314h94l107 -314h2l119 314h96l-174 -415h-84l-111 321h-3l-112 -321h-84z" />
    <glyph glyph-name="x.dnom" horiz-adv-x="415" 
d="M404 115l-144 -207l144 -208h-97l-99 148l-100 -148h-97l143 208l-143 207h97l96 -151l103 151h97z" />
    <glyph glyph-name="y.dnom" horiz-adv-x="454" 
d="M112 -490l72 190l-173 415h95l105 -277l15 -39h2l15 39l104 277h96l-161 -380l-85 -225h-85z" />
    <glyph glyph-name="z.dnom" horiz-adv-x="472" 
d="M130 -227h318v-73h-419v73l300 269h-296v73h397l1 -73z" />
    <glyph glyph-name="a.numr" horiz-adv-x="481" 
d="M191 336c-119 0 -158 65 -158 125c0 39 17 71 51 95c38 26 101 42 236 42h25v23c0 48 -26 80 -99 80c-79 0 -103 -34 -104 -63h-86c2 60 40 134 192 134c111 0 185 -42 185 -179v-146v-49v-58h-79v63h-1c-32 -38 -93 -67 -162 -67zM211 403c91 0 135 50 135 79v58h-29
c-108 0 -198 -13 -198 -77c0 -38 31 -60 92 -60z" />
    <glyph glyph-name="b.numr" horiz-adv-x="533" 
d="M289 772c125 0 208 -87 208 -218c0 -133 -82 -222 -204 -222c-59 0 -125 26 -155 64v-51h-84v600h87v-240c36 41 93 67 148 67zM278 406c79 0 132 58 132 145c0 89 -53 148 -134 148s-135 -51 -135 -129v-43c0 -72 54 -121 137 -121z" />
    <glyph glyph-name="c.numr" horiz-adv-x="491" 
d="M254 332c-142 0 -218 96 -218 221c0 129 78 219 216 219c117 0 198 -65 205 -162h-86c-12 61 -53 89 -117 89c-87 0 -131 -57 -131 -146s44 -148 131 -148c64 0 105 36 117 81h86c-9 -77 -77 -154 -203 -154z" />
    <glyph glyph-name="d.numr" horiz-adv-x="531" 
d="M394 945h87v-600h-85v51c-31 -38 -95 -64 -154 -64c-122 0 -204 89 -204 222c0 131 83 218 208 218c56 0 112 -26 148 -67v240zM394 536v42c0 73 -54 121 -135 121s-134 -58 -134 -145c0 -89 54 -148 135 -148s134 52 134 130z" />
    <glyph glyph-name="e.numr" horiz-adv-x="491" 
d="M254 332c-142 0 -218 95 -218 221c0 129 79 219 214 219c120 0 207 -72 207 -186v-61l-332 -1c8 -72 51 -119 129 -119c64 0 105 35 117 64h86c-9 -60 -77 -137 -203 -137zM126 588h245c0 76 -54 111 -122 111c-67 0 -123 -35 -123 -111z" />
    <glyph glyph-name="f.numr" horiz-adv-x="273" 
d="M79 345v339h-60v76h60v60c0 85 35 138 129 138c31 0 51 -4 56 -5v-71c-5 1 -10 3 -28 3c-49 0 -70 -19 -70 -57v-68h94v-76h-94v-339h-87z" />
    <glyph glyph-name="g.numr" horiz-adv-x="522" 
d="M394 760h87v-381c0 -176 -88 -224 -209 -224c-118 0 -193 44 -217 143h87c15 -49 65 -70 127 -70c94 0 125 46 125 149v26c-35 -48 -89 -71 -152 -71c-131 0 -204 94 -204 224c0 119 61 216 199 216c64 0 121 -21 157 -73v61zM394 536v42c0 75 -58 121 -137 121
c-89 0 -138 -56 -138 -145c0 -90 50 -148 140 -148c80 0 135 47 135 130z" />
    <glyph glyph-name="h.numr" horiz-adv-x="509" 
d="M54 345v600h87v-248c37 57 100 75 153 75c102 0 165 -67 165 -167v-260h-87v232c0 79 -36 122 -102 122c-70 0 -129 -49 -129 -133v-221h-87z" />
    <glyph glyph-name="i.numr" horiz-adv-x="204" 
d="M54 856v89h96v-89h-96zM58 345v415h87v-415h-87z" />
    <glyph glyph-name="j.numr" horiz-adv-x="212" 
d="M62 856v89h96v-89h-96zM25 155c-31 0 -56 5 -56 5v72s9 -2 28 -2c49 0 69 20 69 56v474h87v-476c0 -79 -35 -129 -128 -129z" />
    <glyph glyph-name="k.numr" horiz-adv-x="423" 
d="M412 345h-100l-171 178v-178h-87v600h87v-370l154 185h100l-177 -207z" />
    <glyph glyph-name="l.numr" horiz-adv-x="195" 
d="M54 345v600h87v-600h-87z" />
    <glyph glyph-name="m.numr" horiz-adv-x="839" 
d="M620 772c101 0 161 -57 161 -175v-252h-87v239c0 94 -48 115 -97 115c-77 0 -134 -49 -134 -133v-221h-87v239c0 94 -48 115 -97 115c-77 0 -134 -49 -134 -133v-221h-87v415h87v-63c36 55 94 75 156 75c71 0 121 -27 146 -83c48 65 111 83 173 83z" />
    <glyph glyph-name="n.numr" horiz-adv-x="521" 
d="M58 345v415h87v-63c37 57 100 75 153 75c102 0 165 -68 165 -168v-259h-87v232c0 79 -36 122 -102 122c-70 0 -129 -49 -129 -133v-221h-87z" />
    <glyph glyph-name="o.numr" horiz-adv-x="515" 
d="M258 332c-133 0 -222 96 -222 221c0 128 89 219 222 219c134 0 221 -91 221 -219c0 -125 -87 -221 -221 -221zM257 405c87 0 135 58 135 148c0 89 -48 146 -135 146c-86 0 -134 -57 -134 -146c0 -90 48 -148 134 -148z" />
    <glyph glyph-name="p.numr" horiz-adv-x="537" 
d="M293 772c125 0 208 -87 208 -218c0 -133 -82 -222 -204 -222c-59 0 -121 26 -152 64v-241h-87v605h85v-55c35 41 95 67 150 67zM282 406c79 0 132 58 132 145c0 89 -53 148 -134 148s-135 -51 -135 -129v-43c0 -72 54 -121 137 -121z" />
    <glyph glyph-name="q.numr" horiz-adv-x="546" 
d="M394 760h85v-605h-87v241c-32 -38 -93 -64 -152 -64c-122 0 -204 89 -204 222c0 131 83 218 207 218c57 0 116 -26 151 -67v55zM392 536v42c0 73 -55 121 -137 121c-79 0 -132 -58 -132 -145c0 -89 53 -148 134 -148s135 52 135 130z" />
    <glyph glyph-name="r.numr" horiz-adv-x="312" 
d="M58 345v415h83v-75c18 33 46 58 80 72c25 10 51 13 85 13v-90h-19c-80 0 -142 -54 -142 -140v-195h-87z" />
    <glyph glyph-name="s.numr" horiz-adv-x="442" 
d="M236 332c-135 0 -198 65 -206 149h86c15 -59 62 -79 124 -79c50 0 83 17 83 54s-47 49 -92 61c-96 25 -176 48 -178 132c-1 90 87 123 170 123c111 0 170 -56 174 -139h-86c-6 56 -54 70 -94 70c-27 0 -80 -8 -80 -50c0 -37 38 -48 110 -67c71 -19 160 -35 160 -125
c0 -88 -62 -129 -171 -129z" />
    <glyph glyph-name="t.numr" horiz-adv-x="298" 
d="M218 337c-104 0 -141 42 -141 123v224h-60v67c54 0 65 21 65 69v46h82v-106h102v-76h-102v-204c0 -52 21 -66 77 -66h30v-74c-21 -2 -37 -3 -53 -3z" />
    <glyph glyph-name="u.numr" horiz-adv-x="514" 
d="M204 332c-102 0 -162 57 -162 176v252h87v-239c0 -94 48 -116 98 -116c76 0 133 50 133 134v221h87v-415h-87v69c-37 -61 -93 -82 -156 -82z" />
    <glyph glyph-name="v.numr" horiz-adv-x="454" 
d="M184 345l-173 415h95l102 -270l18 -44h2l17 44l102 270h96l-175 -415h-84z" />
    <glyph glyph-name="w.numr" horiz-adv-x="763" 
d="M184 345l-173 415h95l120 -314h2l106 314h94l107 -314h2l119 314h96l-174 -415h-84l-111 321h-3l-112 -321h-84z" />
    <glyph glyph-name="x.numr" horiz-adv-x="415" 
d="M404 760l-144 -207l144 -208h-97l-99 148l-100 -148h-97l143 208l-143 207h97l96 -151l103 151h97z" />
    <glyph glyph-name="y.numr" horiz-adv-x="454" 
d="M112 155l72 190l-173 415h95l105 -277l15 -39h2l15 39l104 277h96l-161 -380l-85 -225h-85z" />
    <glyph glyph-name="z.numr" horiz-adv-x="472" 
d="M130 418h318v-73h-419v73l300 269h-296v73h397l1 -73z" />
    <glyph glyph-name="a.subs" horiz-adv-x="481" 
d="M191 -309c-119 0 -158 65 -158 125c0 39 17 71 51 95c38 26 101 42 236 42h25v23c0 48 -26 80 -99 80c-79 0 -103 -34 -104 -63h-86c2 60 40 134 192 134c111 0 185 -42 185 -179v-146v-49v-58h-79v63h-1c-32 -38 -93 -67 -162 -67zM211 -242c91 0 135 50 135 79v58h-29
c-108 0 -198 -13 -198 -77c0 -38 31 -60 92 -60z" />
    <glyph glyph-name="b.subs" horiz-adv-x="533" 
d="M289 127c125 0 208 -87 208 -218c0 -133 -82 -222 -204 -222c-59 0 -125 26 -155 64v-51h-84v600h87v-240c36 41 93 67 148 67zM278 -239c79 0 132 58 132 145c0 89 -53 148 -134 148s-135 -51 -135 -129v-43c0 -72 54 -121 137 -121z" />
    <glyph glyph-name="c.subs" horiz-adv-x="491" 
d="M254 -313c-142 0 -218 96 -218 221c0 129 78 219 216 219c117 0 198 -65 205 -162h-86c-12 61 -53 89 -117 89c-87 0 -131 -57 -131 -146s44 -148 131 -148c64 0 105 36 117 81h86c-9 -77 -77 -154 -203 -154z" />
    <glyph glyph-name="d.subs" horiz-adv-x="531" 
d="M394 300h87v-600h-85v51c-31 -38 -95 -64 -154 -64c-122 0 -204 89 -204 222c0 131 83 218 208 218c56 0 112 -26 148 -67v240zM394 -109v42c0 73 -54 121 -135 121s-134 -58 -134 -145c0 -89 54 -148 135 -148s134 52 134 130z" />
    <glyph glyph-name="e.subs" horiz-adv-x="491" 
d="M254 -313c-142 0 -218 95 -218 221c0 129 79 219 214 219c120 0 207 -72 207 -186v-61l-332 -1c8 -72 51 -119 129 -119c64 0 105 35 117 64h86c-9 -60 -77 -137 -203 -137zM126 -57h245c0 76 -54 111 -122 111c-67 0 -123 -35 -123 -111z" />
    <glyph glyph-name="f.subs" horiz-adv-x="273" 
d="M79 -300v339h-60v76h60v60c0 85 35 138 129 138c31 0 51 -4 56 -5v-71c-5 1 -10 3 -28 3c-49 0 -70 -19 -70 -57v-68h94v-76h-94v-339h-87z" />
    <glyph glyph-name="g.subs" horiz-adv-x="522" 
d="M394 115h87v-381c0 -176 -88 -224 -209 -224c-118 0 -193 44 -217 143h87c15 -49 65 -70 127 -70c94 0 125 46 125 149v26c-35 -48 -89 -71 -152 -71c-131 0 -204 94 -204 224c0 119 61 216 199 216c64 0 121 -21 157 -73v61zM394 -109v42c0 75 -58 121 -137 121
c-89 0 -138 -56 -138 -145c0 -90 50 -148 140 -148c80 0 135 47 135 130z" />
    <glyph glyph-name="h.subs" horiz-adv-x="509" 
d="M54 -300v600h87v-248c37 57 100 75 153 75c102 0 165 -67 165 -167v-260h-87v232c0 79 -36 122 -102 122c-70 0 -129 -49 -129 -133v-221h-87z" />
    <glyph glyph-name="i.subs" horiz-adv-x="204" 
d="M54 211v89h96v-89h-96zM58 -300v415h87v-415h-87z" />
    <glyph glyph-name="j.subs" horiz-adv-x="212" 
d="M62 211v89h96v-89h-96zM25 -490c-31 0 -56 5 -56 5v72s9 -2 28 -2c49 0 69 20 69 56v474h87v-476c0 -79 -35 -129 -128 -129z" />
    <glyph glyph-name="k.subs" horiz-adv-x="423" 
d="M412 -300h-100l-171 178v-178h-87v600h87v-370l154 185h100l-177 -207z" />
    <glyph glyph-name="l.subs" horiz-adv-x="195" 
d="M54 -300v600h87v-600h-87z" />
    <glyph glyph-name="m.subs" horiz-adv-x="839" 
d="M620 127c101 0 161 -57 161 -175v-252h-87v239c0 94 -48 115 -97 115c-77 0 -134 -49 -134 -133v-221h-87v239c0 94 -48 115 -97 115c-77 0 -134 -49 -134 -133v-221h-87v415h87v-63c36 55 94 75 156 75c71 0 121 -27 146 -83c48 65 111 83 173 83z" />
    <glyph glyph-name="n.subs" horiz-adv-x="521" 
d="M58 -300v415h87v-63c37 57 100 75 153 75c102 0 165 -68 165 -168v-259h-87v232c0 79 -36 122 -102 122c-70 0 -129 -49 -129 -133v-221h-87z" />
    <glyph glyph-name="o.subs" horiz-adv-x="515" 
d="M258 -313c-133 0 -222 96 -222 221c0 128 89 219 222 219c134 0 221 -91 221 -219c0 -125 -87 -221 -221 -221zM257 -240c87 0 135 58 135 148c0 89 -48 146 -135 146c-86 0 -134 -57 -134 -146c0 -90 48 -148 134 -148z" />
    <glyph glyph-name="p.subs" horiz-adv-x="537" 
d="M293 127c125 0 208 -87 208 -218c0 -133 -82 -222 -204 -222c-59 0 -121 26 -152 64v-241h-87v605h85v-55c35 41 95 67 150 67zM282 -239c79 0 132 58 132 145c0 89 -53 148 -134 148s-135 -51 -135 -129v-43c0 -72 54 -121 137 -121z" />
    <glyph glyph-name="q.subs" horiz-adv-x="546" 
d="M394 115h85v-605h-87v241c-32 -38 -93 -64 -152 -64c-122 0 -204 89 -204 222c0 131 83 218 207 218c57 0 116 -26 151 -67v55zM392 -109v42c0 73 -55 121 -137 121c-79 0 -132 -58 -132 -145c0 -89 53 -148 134 -148s135 52 135 130z" />
    <glyph glyph-name="r.subs" horiz-adv-x="312" 
d="M58 -300v415h83v-75c18 33 46 58 80 72c25 10 51 13 85 13v-90h-19c-80 0 -142 -54 -142 -140v-195h-87z" />
    <glyph glyph-name="s.subs" horiz-adv-x="442" 
d="M236 -313c-135 0 -198 65 -206 149h86c15 -59 62 -79 124 -79c50 0 83 17 83 54s-47 49 -92 61c-96 25 -176 48 -178 132c-1 90 87 123 170 123c111 0 170 -56 174 -139h-86c-6 56 -54 70 -94 70c-27 0 -80 -8 -80 -50c0 -37 38 -48 110 -67c71 -19 160 -35 160 -125
c0 -88 -62 -129 -171 -129z" />
    <glyph glyph-name="t.subs" horiz-adv-x="298" 
d="M218 -308c-104 0 -141 42 -141 123v224h-60v67c54 0 65 21 65 69v46h82v-106h102v-76h-102v-204c0 -52 21 -66 77 -66h30v-74c-21 -2 -37 -3 -53 -3z" />
    <glyph glyph-name="u.subs" horiz-adv-x="514" 
d="M204 -313c-102 0 -162 57 -162 176v252h87v-239c0 -94 48 -116 98 -116c76 0 133 50 133 134v221h87v-415h-87v69c-37 -61 -93 -82 -156 -82z" />
    <glyph glyph-name="v.subs" horiz-adv-x="454" 
d="M184 -300l-173 415h95l102 -270l18 -44h2l17 44l102 270h96l-175 -415h-84z" />
    <glyph glyph-name="w.subs" horiz-adv-x="763" 
d="M184 -300l-173 415h95l120 -314h2l106 314h94l107 -314h2l119 314h96l-174 -415h-84l-111 321h-3l-112 -321h-84z" />
    <glyph glyph-name="x.subs" horiz-adv-x="415" 
d="M404 115l-144 -207l144 -208h-97l-99 148l-100 -148h-97l143 208l-143 207h97l96 -151l103 151h97z" />
    <glyph glyph-name="y.subs" horiz-adv-x="454" 
d="M112 -490l72 190l-173 415h95l105 -277l15 -39h2l15 39l104 277h96l-161 -380l-85 -225h-85z" />
    <glyph glyph-name="z.subs" horiz-adv-x="472" 
d="M130 -227h318v-73h-419v73l300 269h-296v73h397l1 -73z" />
    <glyph glyph-name="a.sups" horiz-adv-x="481" 
d="M191 336c-119 0 -158 65 -158 125c0 39 17 71 51 95c38 26 101 42 236 42h25v23c0 48 -26 80 -99 80c-79 0 -103 -34 -104 -63h-86c2 60 40 134 192 134c111 0 185 -42 185 -179v-146v-49v-58h-79v63h-1c-32 -38 -93 -67 -162 -67zM211 403c91 0 135 50 135 79v58h-29
c-108 0 -198 -13 -198 -77c0 -38 31 -60 92 -60z" />
    <glyph glyph-name="b.sups" horiz-adv-x="533" 
d="M289 772c125 0 208 -87 208 -218c0 -133 -82 -222 -204 -222c-59 0 -125 26 -155 64v-51h-84v600h87v-240c36 41 93 67 148 67zM278 406c79 0 132 58 132 145c0 89 -53 148 -134 148s-135 -51 -135 -129v-43c0 -72 54 -121 137 -121z" />
    <glyph glyph-name="c.sups" horiz-adv-x="491" 
d="M254 332c-142 0 -218 96 -218 221c0 129 78 219 216 219c117 0 198 -65 205 -162h-86c-12 61 -53 89 -117 89c-87 0 -131 -57 -131 -146s44 -148 131 -148c64 0 105 36 117 81h86c-9 -77 -77 -154 -203 -154z" />
    <glyph glyph-name="d.sups" horiz-adv-x="531" 
d="M394 945h87v-600h-85v51c-31 -38 -95 -64 -154 -64c-122 0 -204 89 -204 222c0 131 83 218 208 218c56 0 112 -26 148 -67v240zM394 536v42c0 73 -54 121 -135 121s-134 -58 -134 -145c0 -89 54 -148 135 -148s134 52 134 130z" />
    <glyph glyph-name="e.sups" horiz-adv-x="491" 
d="M254 332c-142 0 -218 95 -218 221c0 129 79 219 214 219c120 0 207 -72 207 -186v-61l-332 -1c8 -72 51 -119 129 -119c64 0 105 35 117 64h86c-9 -60 -77 -137 -203 -137zM126 588h245c0 76 -54 111 -122 111c-67 0 -123 -35 -123 -111z" />
    <glyph glyph-name="f.sups" horiz-adv-x="273" 
d="M79 345v339h-60v76h60v60c0 85 35 138 129 138c31 0 51 -4 56 -5v-71c-5 1 -10 3 -28 3c-49 0 -70 -19 -70 -57v-68h94v-76h-94v-339h-87z" />
    <glyph glyph-name="g.sups" horiz-adv-x="522" 
d="M394 760h87v-381c0 -176 -88 -224 -209 -224c-118 0 -193 44 -217 143h87c15 -49 65 -70 127 -70c94 0 125 46 125 149v26c-35 -48 -89 -71 -152 -71c-131 0 -204 94 -204 224c0 119 61 216 199 216c64 0 121 -21 157 -73v61zM394 536v42c0 75 -58 121 -137 121
c-89 0 -138 -56 -138 -145c0 -90 50 -148 140 -148c80 0 135 47 135 130z" />
    <glyph glyph-name="h.sups" horiz-adv-x="509" 
d="M54 345v600h87v-248c37 57 100 75 153 75c102 0 165 -67 165 -167v-260h-87v232c0 79 -36 122 -102 122c-70 0 -129 -49 -129 -133v-221h-87z" />
    <glyph glyph-name="i.sups" horiz-adv-x="204" 
d="M54 856v89h96v-89h-96zM58 345v415h87v-415h-87z" />
    <glyph glyph-name="j.sups" horiz-adv-x="212" 
d="M62 856v89h96v-89h-96zM25 155c-31 0 -56 5 -56 5v72s9 -2 28 -2c49 0 69 20 69 56v474h87v-476c0 -79 -35 -129 -128 -129z" />
    <glyph glyph-name="k.sups" horiz-adv-x="423" 
d="M412 345h-100l-171 178v-178h-87v600h87v-370l154 185h100l-177 -207z" />
    <glyph glyph-name="l.sups" horiz-adv-x="195" 
d="M54 345v600h87v-600h-87z" />
    <glyph glyph-name="m.sups" horiz-adv-x="839" 
d="M620 772c101 0 161 -57 161 -175v-252h-87v239c0 94 -48 115 -97 115c-77 0 -134 -49 -134 -133v-221h-87v239c0 94 -48 115 -97 115c-77 0 -134 -49 -134 -133v-221h-87v415h87v-63c36 55 94 75 156 75c71 0 121 -27 146 -83c48 65 111 83 173 83z" />
    <glyph glyph-name="n.sups" horiz-adv-x="521" 
d="M58 345v415h87v-63c37 57 100 75 153 75c102 0 165 -68 165 -168v-259h-87v232c0 79 -36 122 -102 122c-70 0 -129 -49 -129 -133v-221h-87z" />
    <glyph glyph-name="o.sups" horiz-adv-x="515" 
d="M258 332c-133 0 -222 96 -222 221c0 128 89 219 222 219c134 0 221 -91 221 -219c0 -125 -87 -221 -221 -221zM257 405c87 0 135 58 135 148c0 89 -48 146 -135 146c-86 0 -134 -57 -134 -146c0 -90 48 -148 134 -148z" />
    <glyph glyph-name="p.sups" horiz-adv-x="537" 
d="M293 772c125 0 208 -87 208 -218c0 -133 -82 -222 -204 -222c-59 0 -121 26 -152 64v-241h-87v605h85v-55c35 41 95 67 150 67zM282 406c79 0 132 58 132 145c0 89 -53 148 -134 148s-135 -51 -135 -129v-43c0 -72 54 -121 137 -121z" />
    <glyph glyph-name="q.sups" horiz-adv-x="546" 
d="M394 760h85v-605h-87v241c-32 -38 -93 -64 -152 -64c-122 0 -204 89 -204 222c0 131 83 218 207 218c57 0 116 -26 151 -67v55zM392 536v42c0 73 -55 121 -137 121c-79 0 -132 -58 -132 -145c0 -89 53 -148 134 -148s135 52 135 130z" />
    <glyph glyph-name="r.sups" horiz-adv-x="312" 
d="M58 345v415h83v-75c18 33 46 58 80 72c25 10 51 13 85 13v-90h-19c-80 0 -142 -54 -142 -140v-195h-87z" />
    <glyph glyph-name="s.sups" horiz-adv-x="442" 
d="M236 332c-135 0 -198 65 -206 149h86c15 -59 62 -79 124 -79c50 0 83 17 83 54s-47 49 -92 61c-96 25 -176 48 -178 132c-1 90 87 123 170 123c111 0 170 -56 174 -139h-86c-6 56 -54 70 -94 70c-27 0 -80 -8 -80 -50c0 -37 38 -48 110 -67c71 -19 160 -35 160 -125
c0 -88 -62 -129 -171 -129z" />
    <glyph glyph-name="t.sups" horiz-adv-x="298" 
d="M218 337c-104 0 -141 42 -141 123v224h-60v67c54 0 65 21 65 69v46h82v-106h102v-76h-102v-204c0 -52 21 -66 77 -66h30v-74c-21 -2 -37 -3 -53 -3z" />
    <glyph glyph-name="u.sups" horiz-adv-x="514" 
d="M204 332c-102 0 -162 57 -162 176v252h87v-239c0 -94 48 -116 98 -116c76 0 133 50 133 134v221h87v-415h-87v69c-37 -61 -93 -82 -156 -82z" />
    <glyph glyph-name="v.sups" horiz-adv-x="454" 
d="M184 345l-173 415h95l102 -270l18 -44h2l17 44l102 270h96l-175 -415h-84z" />
    <glyph glyph-name="w.sups" horiz-adv-x="763" 
d="M184 345l-173 415h95l120 -314h2l106 314h94l107 -314h2l119 314h96l-174 -415h-84l-111 321h-3l-112 -321h-84z" />
    <glyph glyph-name="x.sups" horiz-adv-x="415" 
d="M404 760l-144 -207l144 -208h-97l-99 148l-100 -148h-97l143 208l-143 207h97l96 -151l103 151h97z" />
    <glyph glyph-name="y.sups" horiz-adv-x="454" 
d="M112 155l72 190l-173 415h95l105 -277l15 -39h2l15 39l104 277h96l-161 -380l-85 -225h-85z" />
    <glyph glyph-name="z.sups" horiz-adv-x="472" 
d="M130 418h318v-73h-419v73l300 269h-296v73h397l1 -73z" />
    <glyph glyph-name="zero" unicode="0" horiz-adv-x="768" 
d="M385 -16c-246 0 -343 186 -343 396s97 396 343 396c247 0 341 -186 341 -396s-94 -396 -341 -396zM384 76c171 0 244 138 244 304s-73 304 -244 304c-170 0 -244 -138 -244 -304s74 -304 244 -304z" />
    <glyph glyph-name="one" unicode="1" horiz-adv-x="395" 
d="M196 0v663h-166v97h263v-760h-97z" />
    <glyph glyph-name="two" unicode="2" horiz-adv-x="740" 
d="M88 -1v97c192 106 282 165 349 216c108 81 147 147 147 219c0 97 -74 155 -204 155c-154 0 -241 -78 -241 -193c0 -18 2 -29 11 -60h-97c-9 30 -11 43 -11 66c0 169 124 277 334 277c195 0 311 -93 311 -242c0 -105 -58 -190 -186 -286c-57 -43 -124 -87 -245 -152h442
v-97h-610z" />
    <glyph glyph-name="three" unicode="3" horiz-adv-x="741" 
d="M361 -16c-166 0 -286 63 -319 183h101c28 -67 111 -94 227 -94c189 0 232 71 232 155c0 110 -80 163 -283 163h-69v94l263 178h-413v97h531v-107l-271 -177h18c197 0 321 -86 321 -245c0 -121 -66 -247 -338 -247z" />
    <glyph glyph-name="four" unicode="4" horiz-adv-x="724" 
d="M682 264v-97h-176v-167h-97v167h-367v107l314 486h106l-314 -496h261v192h97v-192h176z" />
    <glyph glyph-name="five" unicode="5" horiz-adv-x="733" 
d="M350 -16c-170 0 -298 71 -308 175h105c6 -52 97 -85 200 -85c154 0 246 72 246 179c0 110 -96 184 -226 184c-102 0 -171 -47 -197 -107h-114l122 430h441v-97h-372l-57 -194c38 35 116 58 197 58c181 0 304 -113 304 -272c0 -164 -130 -271 -341 -271z" />
    <glyph glyph-name="six" unicode="6" horiz-adv-x="733" 
d="M363 -15c-217 0 -301 141 -301 357c0 255 124 432 325 432c131 0 229 -71 241 -181h-105c-9 59 -71 95 -139 95c-124 0 -208 -116 -225 -289c49 70 130 113 235 113c164 0 277 -103 277 -258c0 -163 -119 -269 -308 -269zM371 74c120 0 203 69 203 175
c0 105 -82 174 -203 174s-203 -68 -203 -174c0 -105 81 -175 203 -175z" />
    <glyph glyph-name="seven" unicode="7" horiz-adv-x="601" 
d="M96 0l360 663h-414v97h517v-97l-357 -663h-106z" />
    <glyph glyph-name="eight" unicode="8" horiz-adv-x="737" 
d="M369 -18c-239 0 -327 126 -327 234c0 84 44 155 154 190c-91 45 -114 104 -114 156c0 101 88 211 287 211c206 0 287 -109 287 -206c0 -56 -25 -116 -115 -161c110 -35 154 -104 154 -190c0 -108 -84 -234 -326 -234zM368 446c136 0 184 56 184 118s-48 122 -184 122
s-187 -60 -187 -122s51 -118 187 -118zM368 71c175 0 227 79 227 141c0 67 -50 141 -227 141c-173 0 -228 -66 -228 -141c0 -62 52 -141 228 -141z" />
    <glyph glyph-name="nine" unicode="9" horiz-adv-x="729" 
d="M345 -16c-160 0 -282 71 -298 177h106c8 -54 83 -90 189 -90c141 0 249 107 249 268v18c-56 -63 -163 -105 -263 -105c-166 0 -286 104 -286 260c0 158 135 264 318 264c193 0 327 -107 327 -370c0 -253 -141 -422 -342 -422zM357 342c136 0 227 67 227 168
c0 106 -91 176 -227 176c-135 0 -225 -70 -225 -176c0 -101 90 -168 225 -168z" />
    <glyph glyph-name="zero.lf" horiz-adv-x="768" 
d="M385 -16c-246 0 -343 186 -343 396s97 396 343 396c247 0 341 -186 341 -396s-94 -396 -341 -396zM384 76c171 0 244 138 244 304s-73 304 -244 304c-170 0 -244 -138 -244 -304s74 -304 244 -304z" />
    <glyph glyph-name="one.lf" horiz-adv-x="768" 
d="M433 97h293v-97h-684v97h294v566h-262v97h359v-663z" />
    <glyph glyph-name="two.lf" horiz-adv-x="768" 
d="M88 -1v97c203 109 267 157 334 206c101 74 176 136 176 231c0 87 -73 153 -219 153c-175 0 -240 -91 -240 -201c0 -28 4 -60 11 -82h-97c-6 23 -11 52 -11 86c0 159 92 287 335 287c216 0 319 -101 319 -245c0 -87 -37 -173 -216 -298c-58 -41 -131 -86 -224 -137h470
v-97h-638z" />
    <glyph glyph-name="three.lf" horiz-adv-x="816" 
d="M357 -16c-174 0 -294 63 -327 183h101c28 -67 111 -93 226 -93c195 0 260 72 260 156c0 108 -106 161 -331 161h-69v87l317 185h-432v97h566v-107l-328 -185h8c230 0 366 -87 366 -232c0 -118 -91 -252 -357 -252z" />
    <glyph glyph-name="four.lf" horiz-adv-x="816" 
d="M714 264v-97h-187v-167h-97v167h-400v107l337 486h106l-337 -496h294v192h97v-192h187z" />
    <glyph glyph-name="five.lf" horiz-adv-x="816" 
d="M352 -16c-195 0 -310 73 -322 175h105c8 -54 101 -85 214 -85c201 0 267 97 267 191c0 99 -76 188 -240 188c-121 0 -194 -50 -230 -107h-114l128 414h447v-97h-384l-63 -198c48 57 120 78 216 78c239 0 338 -127 338 -279c0 -149 -95 -280 -362 -280z" />
    <glyph glyph-name="six.lf" horiz-adv-x="816" 
d="M380 -16c-209 0 -350 122 -350 375c0 236 122 417 364 417c152 0 263 -73 277 -182h-106c-9 57 -78 95 -172 95c-158 0 -233 -105 -254 -251c54 62 151 105 263 105c181 0 312 -111 312 -277c0 -169 -132 -282 -334 -282zM381 74c142 0 238 78 238 191s-96 188 -238 188
s-235 -74 -235 -188s93 -191 235 -191z" />
    <glyph glyph-name="seven.lf" horiz-adv-x="816" 
d="M211 0l389 663h-570v97h684v-97l-394 -663h-109z" />
    <glyph glyph-name="eight.lf" horiz-adv-x="816" 
d="M373 -16c-257 0 -343 123 -343 232c0 82 45 155 152 191c-87 40 -112 100 -112 161c0 106 84 208 303 208c220 0 303 -102 303 -208c0 -61 -24 -121 -113 -161c104 -36 151 -105 151 -190c0 -111 -85 -233 -341 -233zM372 447c154 0 203 61 203 121s-49 121 -203 121
s-203 -61 -203 -121s49 -121 203 -121zM372 71c192 0 243 81 243 146s-52 136 -243 136s-243 -71 -243 -136s51 -146 243 -146z" />
    <glyph glyph-name="nine.lf" horiz-adv-x="818" 
d="M339 -16c-160 0 -280 71 -295 177h106c10 -55 100 -90 196 -90c165 0 261 103 267 256c-54 -63 -159 -105 -272 -105c-183 0 -311 111 -311 275c0 168 132 279 330 279c214 0 356 -129 356 -374c0 -252 -152 -418 -377 -418zM362 312c144 0 244 75 244 187
s-100 187 -244 187s-235 -75 -235 -187s91 -187 235 -187z" />
    <glyph glyph-name="zero.osf" horiz-adv-x="723" 
d="M364 -16c-183 0 -304 118 -304 296c0 190 121 316 301 316c181 0 302 -126 302 -316c0 -178 -120 -296 -299 -296zM360 67c124 0 207 85 207 213c0 140 -83 234 -206 234s-205 -94 -205 -234c0 -128 81 -213 204 -213z" />
    <glyph glyph-name="one.osf" horiz-adv-x="484" 
d="M295 97h154v-97h-395v97h149v386l-133 -74v106l133 80h92v-498z" />
    <glyph glyph-name="two.osf" horiz-adv-x="662" 
d="M95 0v97c115 62 223 112 298 164c63 43 99 84 99 137s-36 112 -162 112c-144 0 -175 -78 -175 -155h-94c0 137 86 241 267 241c171 0 256 -91 256 -195c0 -78 -50 -137 -126 -190c-56 -39 -127 -76 -204 -114h352v-97h-511z" />
    <glyph glyph-name="three.osf" horiz-adv-x="610" 
d="M63 -179v85h80c211 0 318 47 318 166c0 101 -84 146 -269 146h-58v77l271 214h-373v87h492v-87l-272 -212v-2c182 0 305 -74 305 -227c0 -135 -93 -247 -387 -247h-107z" />
    <glyph glyph-name="four.osf" horiz-adv-x="639" 
d="M600 98v-98h-82v-177h-97v177h-383v98l373 498h107v-498h82zM140 98h281v361z" />
    <glyph glyph-name="five.osf" horiz-adv-x="699" 
d="M336 -180c-157 0 -285 71 -296 175h106c8 -55 107 -85 189 -85c141 0 213 90 213 185c0 101 -82 178 -201 178c-80 0 -144 -36 -176 -107h-117l122 430h399v-97h-325l-60 -194c37 33 103 58 180 58c168 0 276 -118 276 -269c0 -139 -92 -274 -310 -274z" />
    <glyph glyph-name="six.osf" horiz-adv-x="756" 
d="M395 -16c-218 0 -324 146 -324 374c0 220 98 418 341 418c148 0 232 -100 243 -182h-106c-12 61 -72 95 -146 95c-134 0 -210 -111 -234 -271c59 81 170 105 249 105c179 0 281 -121 281 -264c0 -140 -95 -275 -304 -275zM395 74c140 0 207 99 207 185s-66 174 -207 174
c-138 0 -206 -86 -206 -173s67 -186 206 -186z" />
    <glyph glyph-name="seven.osf" horiz-adv-x="571" 
d="M88 -163l339 663h-393v97h496v-97l-336 -663h-106z" />
    <glyph glyph-name="eight.osf" horiz-adv-x="769" 
d="M333 -18c-239 0 -327 126 -327 234c0 84 44 155 154 190c-91 45 -114 104 -114 156c0 101 88 211 287 211c206 0 287 -109 287 -206c0 -56 -25 -116 -115 -161c110 -35 154 -104 154 -190c0 -108 -84 -234 -326 -234zM332 446c136 0 184 56 184 118s-48 122 -184 122
s-187 -60 -187 -122s51 -118 187 -118zM332 71c175 0 227 79 227 141c0 67 -50 141 -227 141c-173 0 -228 -66 -228 -141c0 -62 52 -141 228 -141z" />
    <glyph glyph-name="nine.osf" horiz-adv-x="749" 
d="M349 -180c-182 0 -264 100 -275 180h106c10 -56 92 -93 181 -93c126 0 204 76 210 240c-71 -80 -161 -105 -235 -105c-174 0 -273 129 -273 276c0 148 99 278 304 278c211 0 308 -135 308 -382c0 -190 -53 -394 -326 -394zM360 132c133 0 204 93 204 187
s-71 187 -204 187c-134 0 -200 -93 -200 -187s66 -187 200 -187z" />
    <glyph glyph-name="zero.ss01" horiz-adv-x="808" 
d="M405 -16c-244 0 -343 186 -343 396s99 396 343 396c245 0 341 -186 341 -396s-96 -396 -341 -396zM404 81c171 0 247 138 247 299s-76 299 -247 299s-246 -138 -246 -299s75 -299 246 -299z" />
    <glyph glyph-name="one.ss01" horiz-adv-x="364" 
d="M225 0v646l-183 -143v117l183 140h97v-760h-97z" />
    <glyph glyph-name="two.ss01" horiz-adv-x="790" 
d="M78 -1v97l223 124c-188 31 -271 141 -271 278c0 147 96 278 327 278c230 0 331 -130 331 -282c0 -99 -39 -187 -194 -266l-261 -132h454v-97h-609zM361 306c160 0 230 92 230 189s-69 191 -232 191s-232 -95 -232 -188s69 -192 234 -192z" />
    <glyph glyph-name="three.ss01" horiz-adv-x="738" 
d="M368 -16c-225 0 -326 124 -326 292c0 113 43 203 194 270l265 117h-459v97h611v-97l-224 -118c180 0 267 -128 267 -276c0 -156 -96 -285 -328 -285zM369 74c163 0 232 92 232 199s-69 196 -232 196c-162 0 -231 -89 -231 -196s69 -199 231 -199z" />
    <glyph glyph-name="four.ss01" horiz-adv-x="702" 
d="M660 264v-97h-82v-167h-97v167h-439v107l428 486h108v-496h82zM148 264h333v364z" />
    <glyph glyph-name="five.ss01" horiz-adv-x="739" 
d="M371 -16c-231 0 -329 130 -329 283c0 40 6 77 14 111c30 127 58 255 87 382h447v-97h-369l-44 -182c59 51 132 63 201 63c227 0 319 -128 319 -279s-96 -281 -326 -281zM369 74c163 0 232 94 232 191s-69 189 -232 189c-162 0 -231 -92 -231 -189s69 -191 231 -191z" />
    <glyph glyph-name="six.ss01" horiz-adv-x="740" 
d="M373 -16c-212 0 -331 113 -331 282c0 110 52 194 292 482l10 12h122l-205 -249c39 19 84 31 141 31c157 0 296 -91 296 -273c0 -154 -98 -285 -325 -285zM368 74c163 0 234 94 234 191s-73 189 -232 189c-142 0 -231 -75 -231 -188c0 -98 66 -192 229 -192z" />
    <glyph glyph-name="seven.ss01" horiz-adv-x="603" 
d="M124 0c37 221 171 442 327 663h-409v97h519v-107c-161 -218 -291 -435 -328 -653h-109z" />
    <glyph glyph-name="nine.ss01" horiz-adv-x="739" 
d="M97 0v97h421l44 182c-59 -51 -115 -63 -188 -63c-238 0 -332 128 -332 279s95 281 326 281c230 0 329 -130 329 -283c0 -40 -6 -77 -14 -111l-88 -382h-498zM370 306c163 0 232 92 232 189s-69 191 -232 191s-231 -94 -231 -191s68 -189 231 -189z" />
    <glyph glyph-name="zero.tf" horiz-adv-x="809" 
d="M386 -16c-246 0 -343 186 -343 396s97 396 343 396c247 0 341 -186 341 -396s-94 -396 -341 -396zM385 76c171 0 244 138 244 304s-73 304 -244 304c-170 0 -244 -138 -244 -304s74 -304 244 -304z" />
    <glyph glyph-name="one.tf" horiz-adv-x="809" 
d="M434 97h293v-97h-684v97h294v566h-262v97h359v-663z" />
    <glyph glyph-name="two.tf" horiz-adv-x="809" 
d="M89 -1v97c203 109 267 157 334 206c101 74 176 136 176 231c0 87 -73 153 -219 153c-175 0 -240 -91 -240 -201c0 -28 4 -60 11 -82h-97c-6 23 -11 52 -11 86c0 159 92 287 335 287c216 0 319 -101 319 -245c0 -87 -37 -173 -216 -298c-58 -41 -131 -86 -224 -137h470
v-97h-638z" />
    <glyph glyph-name="three.tf" horiz-adv-x="809" 
d="M370 -16c-174 0 -294 63 -327 183h101c28 -67 111 -93 226 -93c195 0 260 72 260 156c0 108 -106 161 -331 161h-69v87l317 185h-432v97h566v-107l-328 -185h8c230 0 366 -87 366 -232c0 -118 -91 -252 -357 -252z" />
    <glyph glyph-name="four.tf" horiz-adv-x="809" 
d="M727 264v-97h-187v-167h-97v167h-400v107l337 486h106l-337 -496h294v192h97v-192h187z" />
    <glyph glyph-name="five.tf" horiz-adv-x="809" 
d="M365 -16c-195 0 -310 73 -322 175h105c8 -54 101 -85 214 -85c201 0 267 97 267 191c0 99 -76 188 -240 188c-121 0 -194 -50 -230 -107h-114l128 414h447v-97h-384l-63 -198c48 57 120 78 216 78c239 0 338 -127 338 -279c0 -149 -95 -280 -362 -280z" />
    <glyph glyph-name="six.tf" horiz-adv-x="809" 
d="M393 -16c-209 0 -350 122 -350 375c0 236 122 417 364 417c152 0 263 -73 277 -182h-106c-9 57 -78 95 -172 95c-158 0 -233 -105 -254 -251c54 62 151 105 263 105c181 0 312 -111 312 -277c0 -169 -132 -282 -334 -282zM394 74c142 0 238 78 238 191s-96 188 -238 188
s-235 -74 -235 -188s93 -191 235 -191z" />
    <glyph glyph-name="seven.tf" horiz-adv-x="809" 
d="M224 0l389 663h-570v97h684v-97l-394 -663h-109z" />
    <glyph glyph-name="eight.tf" horiz-adv-x="809" 
d="M386 -16c-257 0 -343 123 -343 232c0 82 45 155 152 191c-87 40 -112 100 -112 161c0 106 84 208 303 208c220 0 303 -102 303 -208c0 -61 -24 -121 -113 -161c104 -36 151 -105 151 -190c0 -111 -85 -233 -341 -233zM385 447c154 0 203 61 203 121s-49 121 -203 121
s-203 -61 -203 -121s49 -121 203 -121zM385 71c192 0 243 81 243 146s-52 136 -243 136s-243 -71 -243 -136s51 -146 243 -146z" />
    <glyph glyph-name="nine.tf" horiz-adv-x="811" 
d="M352 -16c-160 0 -280 71 -295 177h106c10 -55 100 -90 196 -90c165 0 261 103 267 256c-54 -63 -159 -105 -272 -105c-183 0 -311 111 -311 275c0 168 132 279 330 279c214 0 356 -129 356 -374c0 -252 -152 -418 -377 -418zM375 312c144 0 244 75 244 187
s-100 187 -244 187s-235 -75 -235 -187s91 -187 235 -187z" />
    <glyph glyph-name="zero.dnom" horiz-adv-x="449" 
d="M225 -9c-133 0 -193 99 -193 218s60 218 193 218c134 0 192 -99 192 -218s-58 -218 -192 -218zM225 52c85 0 123 70 123 157s-38 157 -123 157s-124 -70 -124 -157s39 -157 124 -157z" />
    <glyph glyph-name="one.dnom" horiz-adv-x="230" 
d="M108 0v351h-91v67h158v-418h-67z" />
    <glyph glyph-name="two.dnom" horiz-adv-x="430" 
d="M55 -1v68c98 55 151 89 190 117c55 40 76 73 76 108c0 47 -38 74 -101 74c-73 0 -119 -34 -119 -95c0 -11 1 -17 5 -33h-68c-5 16 -6 23 -6 35c0 92 66 154 187 154c112 0 173 -53 173 -132c0 -54 -30 -96 -92 -145c-32 -25 -70 -49 -134 -83h232v-68h-343z" />
    <glyph glyph-name="three.dnom" horiz-adv-x="436" 
d="M213 -9c-98 0 -164 38 -181 109h71c13 -35 56 -49 114 -49c93 0 119 35 119 78c0 52 -39 79 -141 79h-48v58l142 88h-226v64h306v-72l-142 -85h8c102 0 169 -48 169 -132c0 -71 -44 -138 -191 -138z" />
    <glyph glyph-name="four.dnom" horiz-adv-x="425" 
d="M393 152v-67h-90v-85h-66v85h-205v73l167 260h75l-167 -266h130v99h66v-99h90z" />
    <glyph glyph-name="five.dnom" horiz-adv-x="431" 
d="M209 -9c-98 0 -172 43 -177 106h72c3 -27 49 -46 103 -46c77 0 124 36 124 90s-49 91 -114 91c-51 0 -87 -24 -101 -55h-76l67 241h252v-64h-203l-29 -96c21 19 61 32 106 32c99 0 166 -62 166 -149c0 -91 -73 -150 -190 -150z" />
    <glyph glyph-name="six.dnom" horiz-adv-x="413" 
d="M206 -8c-121 0 -174 77 -174 198c0 139 72 236 186 236c76 0 132 -41 139 -105h-71c-6 31 -37 48 -72 48c-64 0 -107 -59 -114 -148c26 37 71 61 129 61c90 0 152 -57 152 -141c0 -90 -69 -149 -175 -149zM208 51c60 0 102 34 102 87c0 52 -41 86 -102 86
c-60 0 -101 -34 -101 -86s40 -87 101 -87z" />
    <glyph glyph-name="seven.dnom" horiz-adv-x="361" 
d="M62 0l194 351h-224v67h297v-67l-193 -351h-74z" />
    <glyph glyph-name="eight.dnom" horiz-adv-x="462" 
d="M231 -10c-137 0 -185 69 -185 129c0 50 30 89 86 104c-46 21 -64 53 -64 87c0 56 48 116 163 116c118 0 163 -59 163 -114c0 -35 -19 -68 -64 -89c56 -15 86 -53 86 -104c0 -60 -47 -129 -185 -129zM230 251c67 0 93 27 93 58c0 32 -26 61 -93 61c-66 0 -93 -29 -93 -61
c0 -31 27 -58 93 -58zM230 50c86 0 114 37 114 69c0 34 -26 70 -114 70c-85 0 -114 -33 -114 -70c0 -32 29 -69 114 -69z" />
    <glyph glyph-name="nine.dnom" horiz-adv-x="424" 
d="M202 -9c-94 0 -160 43 -169 102h73c5 -27 43 -45 95 -45c74 0 123 59 123 132v10c-27 -32 -81 -52 -135 -52c-96 0 -157 60 -157 142s67 147 177 147c113 0 183 -64 183 -205c0 -136 -73 -231 -190 -231zM208 196c67 0 112 33 112 83c0 53 -45 88 -112 88
s-111 -35 -111 -88c0 -50 44 -83 111 -83z" />
    <glyph glyph-name="zero.numr" horiz-adv-x="411" 
d="M206 331c-121 0 -178 99 -178 218s57 218 178 218c120 0 177 -99 177 -218s-57 -218 -177 -218zM205 392c73 0 108 70 108 157s-35 157 -108 157c-72 0 -107 -70 -107 -157s35 -157 107 -157z" />
    <glyph glyph-name="one.numr" horiz-adv-x="214" 
d="M98 340v351h-83v67h150v-418h-67z" />
    <glyph glyph-name="two.numr" horiz-adv-x="391" 
d="M47 339v68c87 55 137 88 172 117c49 41 68 74 68 109c0 46 -34 73 -89 73c-59 0 -101 -33 -101 -98c0 -16 2 -33 5 -45h-69c-3 13 -5 31 -5 46c0 97 59 158 171 158c104 0 159 -52 159 -132c0 -54 -26 -97 -80 -145c-27 -24 -64 -49 -121 -83h206v-68h-316z" />
    <glyph glyph-name="three.numr" horiz-adv-x="399" 
d="M196 331c-92 0 -153 38 -168 109h71c12 -35 49 -49 99 -49c80 0 105 35 105 78c0 52 -34 79 -123 79h-48v58l129 88h-205v64h284v-73l-125 -84h6c91 0 149 -48 150 -132c0 -71 -44 -138 -175 -138z" />
    <glyph glyph-name="four.numr" horiz-adv-x="389" 
d="M361 492v-67h-79v-85h-67v85h-187v73l150 260h75l-150 -266h112v99h67v-99h79z" />
    <glyph glyph-name="five.numr" horiz-adv-x="393" 
d="M192 331c-90 0 -159 43 -164 106h72c3 -27 43 -46 90 -46c67 0 108 36 108 90s-42 91 -99 91c-44 0 -77 -24 -89 -55h-75l62 241h233v-64h-185l-25 -96c20 19 55 32 96 32c89 0 149 -62 149 -149c0 -91 -66 -150 -173 -150z" />
    <glyph glyph-name="six.numr" horiz-adv-x="379" 
d="M190 332c-110 0 -162 77 -162 198c0 139 67 236 172 236c72 0 122 -41 130 -105h-70c-6 31 -34 48 -64 48c-56 0 -94 -59 -99 -148c22 37 63 61 116 61c82 0 138 -57 138 -141c0 -90 -64 -149 -161 -149zM191 391c52 0 88 34 88 87c0 52 -36 86 -88 86s-88 -34 -88 -86
s35 -87 88 -87z" />
    <glyph glyph-name="seven.numr" horiz-adv-x="331" 
d="M55 340l175 351h-202v67h275v-67l-173 -351h-75z" />
    <glyph glyph-name="eight.numr" horiz-adv-x="462" 
d="M231 325c-137 0 -185 69 -185 129c0 50 30 89 86 104c-46 21 -64 53 -64 87c0 56 48 116 163 116c118 0 163 -59 163 -114c0 -35 -19 -68 -64 -89c56 -15 86 -53 86 -104c0 -60 -47 -129 -185 -129zM230 586c67 0 93 27 93 58c0 32 -26 61 -93 61c-66 0 -93 -29 -93 -61
c0 -31 27 -58 93 -58zM230 385c86 0 114 37 114 69c0 34 -26 70 -114 70c-85 0 -114 -33 -114 -70c0 -32 29 -69 114 -69z" />
    <glyph glyph-name="nine.numr" horiz-adv-x="386" 
d="M184 331c-88 0 -148 43 -155 102h72c5 -27 38 -45 82 -45c66 0 107 59 107 132v10c-24 -32 -71 -52 -119 -52c-89 0 -143 60 -143 142s58 147 162 147c105 0 168 -64 168 -205c0 -136 -64 -231 -174 -231zM189 536c58 0 96 33 96 83c0 53 -38 88 -96 88
c-57 0 -95 -35 -95 -88c0 -50 38 -83 95 -83z" />
    <glyph glyph-name="uni2070" unicode="&#x2070;" horiz-adv-x="411" 
d="M206 331c-121 0 -178 99 -178 218s57 218 178 218c120 0 177 -99 177 -218s-57 -218 -177 -218zM205 392c73 0 108 70 108 157s-35 157 -108 157c-72 0 -107 -70 -107 -157s35 -157 107 -157z" />
    <glyph glyph-name="uni00B9" unicode="&#xb9;" horiz-adv-x="214" 
d="M98 340v351h-83v67h150v-418h-67z" />
    <glyph glyph-name="uni00B2" unicode="&#xb2;" horiz-adv-x="399" 
d="M51 339v68c87 55 137 88 172 117c49 41 68 74 68 109c0 46 -34 73 -89 73c-59 0 -101 -33 -101 -98c0 -16 2 -33 5 -45h-69c-3 13 -5 31 -5 46c0 97 59 158 171 158c104 0 159 -52 159 -132c0 -54 -26 -97 -80 -145c-27 -24 -64 -49 -121 -83h206v-68h-316z" />
    <glyph glyph-name="uni00B3" unicode="&#xb3;" horiz-adv-x="407" 
d="M200 331c-92 0 -153 38 -168 109h71c12 -35 49 -49 99 -49c80 0 105 35 105 78c0 52 -34 79 -123 79h-48v58l129 88h-205v64h284v-73l-125 -84h6c91 0 149 -48 150 -132c0 -71 -44 -138 -175 -138z" />
    <glyph glyph-name="uni2074" unicode="&#x2074;" horiz-adv-x="397" 
d="M365 492v-67h-79v-85h-67v85h-187v73l150 260h75l-150 -266h112v99h67v-99h79z" />
    <glyph glyph-name="uni2075" unicode="&#x2075;" horiz-adv-x="401" 
d="M196 331c-90 0 -159 43 -164 106h72c3 -27 43 -46 90 -46c67 0 108 36 108 90s-42 91 -99 91c-44 0 -77 -24 -89 -55h-75l62 241h233v-64h-185l-25 -96c20 19 55 32 96 32c89 0 149 -62 149 -149c0 -91 -66 -150 -173 -150z" />
    <glyph glyph-name="uni2076" unicode="&#x2076;" horiz-adv-x="379" 
d="M190 332c-110 0 -162 77 -162 198c0 139 67 236 172 236c72 0 122 -41 130 -105h-70c-6 31 -34 48 -64 48c-56 0 -94 -59 -99 -148c22 37 63 61 116 61c82 0 138 -57 138 -141c0 -90 -64 -149 -161 -149zM191 391c52 0 88 34 88 87c0 52 -36 86 -88 86s-88 -34 -88 -86
s35 -87 88 -87z" />
    <glyph glyph-name="uni2077" unicode="&#x2077;" horiz-adv-x="339" 
d="M59 340l175 351h-202v67h275v-67l-173 -351h-75z" />
    <glyph glyph-name="uni2078" unicode="&#x2078;" horiz-adv-x="420" 
d="M211 330c-127 0 -171 69 -171 129c0 50 29 89 79 104c-40 21 -59 53 -59 87c0 56 43 116 151 116c109 0 150 -59 150 -114c0 -35 -19 -68 -59 -89c49 -15 78 -53 78 -104c0 -60 -41 -129 -169 -129zM210 591c56 0 80 27 80 58c0 32 -24 61 -80 61s-81 -29 -81 -61
c0 -31 25 -58 81 -58zM210 390c73 0 98 37 98 69c0 34 -23 70 -98 70c-73 0 -98 -33 -98 -70c0 -32 25 -69 98 -69z" />
    <glyph glyph-name="uni2079" unicode="&#x2079;" horiz-adv-x="394" 
d="M188 331c-88 0 -148 43 -155 102h72c5 -27 38 -45 82 -45c66 0 107 59 107 132v10c-24 -32 -71 -52 -119 -52c-89 0 -143 60 -143 142s58 147 162 147c105 0 168 -64 168 -205c0 -136 -64 -231 -174 -231zM193 536c58 0 96 33 96 83c0 53 -38 88 -96 88
c-57 0 -95 -35 -95 -88c0 -50 38 -83 95 -83z" />
    <glyph glyph-name="fraction" unicode="&#x2044;" horiz-adv-x="235" 
d="M-150 -16l461 792h74l-461 -792h-74z" />
    <glyph glyph-name="onehalf" unicode="&#xbd;" horiz-adv-x="843" 
d="M86 -16l461 792h74l-461 -792h-74zM98 342v349h-83v69h152v-418h-69zM451 -1v68c98 55 151 89 190 117c55 40 76 73 76 108c0 47 -38 74 -101 74c-73 0 -119 -34 -119 -95c0 -11 1 -17 5 -33h-68c-5 16 -6 23 -6 35c0 92 66 154 187 154c112 0 173 -53 173 -132
c0 -54 -30 -96 -92 -145c-32 -25 -70 -49 -134 -83h232v-68h-343z" />
    <glyph glyph-name="onequarter" unicode="&#xbc;" horiz-adv-x="826" 
d="M86 -16l461 792h74l-461 -792h-74zM98 342v349h-83v69h152v-418h-69zM777 152v-67h-90v-85h-66v85h-205v73l167 260h75l-167 -266h130v99h66v-99h90z" />
    <glyph glyph-name="threequarters" unicode="&#xbe;" horiz-adv-x="929" 
d="M210 -16l461 792h74l-461 -792h-74zM209 332c-98 0 -164 38 -181 109h71c13 -35 56 -49 114 -49c93 0 119 35 119 78c0 52 -39 79 -141 79h-48v58l142 88h-226v64h306v-72l-142 -85h8c102 0 169 -48 169 -132c0 -71 -44 -138 -191 -138zM901 152v-67h-90v-85h-66v85h-205
v73l167 260h75l-167 -266h130v99h66v-99h90z" />
    <glyph glyph-name="oneeighth" unicode="&#x215b;" horiz-adv-x="865" 
d="M86 -16l461 792h74l-461 -792h-74zM98 342v349h-83v69h152v-418h-69zM631 -10c-137 0 -185 69 -185 129c0 50 30 89 86 104c-46 21 -64 53 -64 87c0 56 48 116 163 116c118 0 163 -59 163 -114c0 -35 -19 -68 -64 -89c56 -15 86 -53 86 -104c0 -60 -47 -129 -185 -129z
M630 251c67 0 93 27 93 58c0 32 -26 61 -93 61c-66 0 -93 -29 -93 -61c0 -31 27 -58 93 -58zM630 50c86 0 114 37 114 69c0 34 -26 70 -114 70c-85 0 -114 -33 -114 -70c0 -32 29 -69 114 -69z" />
    <glyph glyph-name="threeeighths" unicode="&#x215c;" horiz-adv-x="947" 
d="M189 -16l461 792h74l-461 -792h-74zM199 333c-100 0 -167 48 -171 106h74c3 -30 52 -44 98 -44c74 0 99 36 99 76c0 50 -41 78 -132 78h-38v59l128 83h-205v69h297v-74l-135 -85l4 -2c82 0 150 -45 150 -126c0 -65 -43 -140 -169 -140zM734 -10c-137 0 -185 69 -185 129
c0 50 30 89 86 104c-46 21 -64 53 -64 87c0 56 48 116 163 116c118 0 163 -59 163 -114c0 -35 -19 -68 -64 -89c56 -15 86 -53 86 -104c0 -60 -47 -129 -185 -129zM733 251c67 0 93 27 93 58c0 32 -26 61 -93 61c-66 0 -93 -29 -93 -61c0 -31 27 -58 93 -58zM733 50
c86 0 114 37 114 69c0 34 -26 70 -114 70c-85 0 -114 -33 -114 -70c0 -32 29 -69 114 -69z" />
    <glyph glyph-name="fiveeighths" unicode="&#x215d;" horiz-adv-x="1015" 
d="M257 -16l461 792h74l-461 -792h-74zM205 333c-98 0 -172 43 -177 106h72c3 -27 49 -46 103 -46c77 0 124 36 124 90s-49 91 -114 91c-51 0 -87 -24 -101 -55h-76l67 241h252v-64h-203l-29 -96c21 19 61 32 106 32c99 0 166 -62 166 -149c0 -91 -73 -150 -190 -150z
M802 -10c-137 0 -185 69 -185 129c0 50 30 89 86 104c-46 21 -64 53 -64 87c0 56 48 116 163 116c118 0 163 -59 163 -114c0 -35 -19 -68 -64 -89c56 -15 86 -53 86 -104c0 -60 -47 -129 -185 -129zM801 251c67 0 93 27 93 58c0 32 -26 61 -93 61c-66 0 -93 -29 -93 -61
c0 -31 27 -58 93 -58zM801 50c86 0 114 37 114 69c0 34 -26 70 -114 70c-85 0 -114 -33 -114 -70c0 -32 29 -69 114 -69z" />
    <glyph glyph-name="seveneighths" unicode="&#x215e;" horiz-adv-x="854" 
d="M96 -16l461 792h74l-461 -792h-74zM55 342l179 349h-206v69h281v-74l-177 -344h-77zM641 -10c-137 0 -185 69 -185 129c0 50 30 89 86 104c-46 21 -64 53 -64 87c0 56 48 116 163 116c118 0 163 -59 163 -114c0 -35 -19 -68 -64 -89c56 -15 86 -53 86 -104
c0 -60 -47 -129 -185 -129zM640 251c67 0 93 27 93 58c0 32 -26 61 -93 61c-66 0 -93 -29 -93 -61c0 -31 27 -58 93 -58zM640 50c86 0 114 37 114 69c0 34 -26 70 -114 70c-85 0 -114 -33 -114 -70c0 -32 29 -69 114 -69z" />
    <glyph glyph-name="period" unicode="." horiz-adv-x="234" 
d="M56 0v113h122v-113h-122z" />
    <glyph glyph-name="comma" unicode="," horiz-adv-x="234" 
d="M57 -113l44 113h-45v113h122v-113l-56 -113h-65z" />
    <glyph glyph-name="colon" unicode=":" horiz-adv-x="234" 
d="M56 402v113h122v-113h-122zM56 0v113h122v-113h-122z" />
    <glyph glyph-name="semicolon" unicode=";" horiz-adv-x="234" 
d="M56 402v113h122v-113h-122zM57 -113l44 113h-45v113h122v-113l-56 -113h-65z" />
    <glyph glyph-name="ellipsis" unicode="&#x2026;" horiz-adv-x="629" 
d="M56 0v113h122v-113h-122zM254 0v113h121v-113h-121zM451 0v113h122v-113h-122z" />
    <glyph glyph-name="exclam" unicode="!" horiz-adv-x="292" 
d="M98 197v563h97v-563h-97zM85 0v113h122v-113h-122z" />
    <glyph glyph-name="exclamdown" unicode="&#xa1;" horiz-adv-x="292" 
d="M85 647v113h122v-113h-122zM98 0v563h97v-563h-97z" />
    <glyph glyph-name="question" unicode="?" horiz-adv-x="618" 
d="M230 178v17c0 82 21 136 95 199c55 47 139 90 139 171c0 71 -62 121 -154 121c-106 0 -172 -67 -162 -175h-93c-13 159 91 265 258 265c149 0 247 -84 247 -210s-102 -174 -174 -232c-44 -36 -54 -63 -59 -105c-2 -16 -3 -32 -3 -51h-94zM215 0v113h122v-113h-122z" />
    <glyph glyph-name="questiondown" unicode="&#xbf;" horiz-adv-x="618" 
d="M403 760v-113h-122v113h122zM388 582v-17c0 -82 -21 -136 -95 -199c-55 -47 -139 -90 -139 -171c0 -71 62 -121 154 -121c106 0 172 67 162 175h93c14 -159 -91 -265 -258 -265c-149 0 -247 84 -247 210s102 174 174 232c44 36 55 63 60 105c2 16 2 32 2 51h94z" />
    <glyph glyph-name="periodcentered" unicode="&#xb7;" horiz-adv-x="234" 
d="M56 205v113h122v-113h-122z" />
    <glyph glyph-name="bullet" unicode="&#x2022;" horiz-adv-x="325" 
d="M163 165c-60 0 -107 44 -107 101c0 55 47 99 107 99c56 0 106 -44 106 -99c0 -57 -50 -101 -106 -101z" />
    <glyph glyph-name="asterisk" unicode="*" horiz-adv-x="578" 
d="M153 336l-54 43l149 146l-190 70l30 61l175 -81l-9 185h69l-8 -185l174 81l30 -61l-188 -70l148 -146l-54 -43l-136 158z" />
    <glyph glyph-name="numbersign" unicode="#" horiz-adv-x="806" 
d="M123 0l60 227h-133v67h149l43 164h-126v67h142l63 235h80l-63 -235h185l63 235h80l-63 -235h151v-67h-167l-42 -164h154v-67h-170l-61 -227h-80l61 227h-186l-60 -227h-80zM279 294h186l42 164h-185z" />
    <glyph glyph-name="slash" unicode="/" horiz-adv-x="413" 
d="M11 -116l305 876h86l-305 -876h-86z" />
    <glyph glyph-name="backslash" unicode="\" horiz-adv-x="413" 
d="M402 -116h-86l-305 876h86z" />
    <glyph glyph-name="period.ss01" horiz-adv-x="235" 
d="M106 0c-40 0 -72 30 -72 69c0 37 32 67 72 67c39 0 73 -30 73 -67c0 -39 -34 -69 -73 -69z" />
    <glyph glyph-name="comma.ss01" horiz-adv-x="235" 
d="M179 71c0 -21 -13 -64 -25 -103c-11 -36 -23 -64 -28 -81h-55l31 113c-38 3 -68 32 -68 68c0 38 32 68 72 68s73 -30 73 -65z" />
    <glyph glyph-name="colon.ss01" horiz-adv-x="235" 
d="M106 391c-40 0 -72 30 -72 69c0 37 32 67 72 67c39 0 73 -30 73 -67c0 -39 -34 -69 -73 -69zM106 0c-40 0 -72 30 -72 69c0 37 32 67 72 67c39 0 73 -30 73 -67c0 -39 -34 -69 -73 -69z" />
    <glyph glyph-name="semicolon.ss01" horiz-adv-x="235" 
d="M106 391c-40 0 -73 30 -73 69c0 37 33 67 73 67c39 0 73 -30 73 -67c0 -39 -34 -69 -73 -69zM179 71c0 -21 -13 -64 -25 -103c-11 -36 -21 -64 -28 -81h-55l31 113c-38 3 -68 32 -68 68c0 38 32 68 72 68c39 0 73 -30 73 -65z" />
    <glyph glyph-name="ellipsis.ss01" horiz-adv-x="653" 
d="M106 0c-40 0 -72 30 -72 69c0 37 32 67 72 67c39 0 73 -30 73 -67c0 -39 -34 -69 -73 -69zM316 0c-40 0 -72 30 -72 69c0 37 32 67 72 67c39 0 73 -30 73 -67c0 -39 -34 -69 -73 -69zM524 0c-40 0 -72 30 -72 69c0 37 32 67 72 67c39 0 73 -30 73 -67
c0 -39 -34 -69 -73 -69z" />
    <glyph glyph-name="exclam.ss01" horiz-adv-x="315" 
d="M119 197l-10 563h97l-10 -563h-77zM157 0c-40 0 -72 30 -72 69c0 37 32 67 72 67c39 0 73 -30 73 -67c0 -39 -34 -69 -73 -69z" />
    <glyph glyph-name="exclamdown.ss01" horiz-adv-x="315" 
d="M157 760c39 0 73 -30 73 -69c0 -37 -34 -67 -73 -67c-40 0 -72 30 -72 67c0 39 32 69 72 69zM119 563h77l10 -563h-97z" />
    <glyph glyph-name="question.ss01" horiz-adv-x="618" 
d="M230 178v17c0 82 21 136 95 199c55 47 139 90 139 171c0 71 -62 121 -154 121c-106 0 -172 -67 -162 -175h-93c-13 159 91 265 258 265c149 0 247 -84 247 -210s-102 -174 -174 -232c-44 -36 -54 -63 -59 -105c-2 -16 -3 -32 -3 -51h-94zM280 0c-40 0 -72 30 -72 69
c0 37 32 67 72 67c39 0 73 -30 73 -67c0 -39 -34 -69 -73 -69z" />
    <glyph glyph-name="questiondown.ss01" horiz-adv-x="618" 
d="M340 760c40 0 72 -30 72 -69c0 -37 -32 -67 -72 -67c-39 0 -73 30 -73 67c0 39 34 69 73 69zM388 582v-17c0 -82 -21 -136 -95 -199c-55 -47 -139 -90 -139 -171c0 -71 62 -121 154 -121c106 0 172 67 162 175h93c14 -159 -91 -265 -258 -265c-149 0 -247 84 -247 210
s102 174 174 232c44 36 55 63 60 105c2 16 2 32 2 51h94z" />
    <glyph glyph-name="parenleft" unicode="(" horiz-adv-x="310" 
d="M201 -116c-187 275 -187 549 0 824h75c-165 -275 -165 -549 0 -824h-75z" />
    <glyph glyph-name="parenright" unicode=")" horiz-adv-x="310" 
d="M109 -116h-75c165 275 165 549 0 824h75c187 -275 187 -549 0 -824z" />
    <glyph glyph-name="braceleft" unicode="{" horiz-adv-x="355" 
d="M274 -116c-148 0 -164 95 -165 217c-1 135 -2 147 -68 147v94c66 0 67 12 68 147c1 122 17 217 165 217h44v-72h-34c-120 0 -105 -129 -111 -236c-3 -59 -11 -85 -67 -98v-10c57 -13 64 -40 67 -98c6 -111 -7 -236 111 -236h34v-72h-44z" />
    <glyph glyph-name="braceright" unicode="}" horiz-adv-x="355" 
d="M81 -116h-44v72h34c119 0 104 125 111 236c4 58 10 85 67 98v10c-56 13 -63 39 -67 98c-6 107 9 236 -111 236h-34v72h44c148 0 164 -95 165 -217c1 -135 2 -147 68 -147v-94c-66 0 -67 -12 -68 -147c-1 -122 -17 -217 -165 -217z" />
    <glyph glyph-name="bracketleft" unicode="[" horiz-adv-x="399" 
d="M361 631h-167v-670h167v-77h-252v824h252v-77z" />
    <glyph glyph-name="bracketright" unicode="]" horiz-adv-x="399" 
d="M38 -116v77h167v670h-167v77h252v-824h-252z" />
    <glyph glyph-name="hyphen" unicode="-" horiz-adv-x="560" 
d="M500 217h-440v87h440v-87z" />
    <glyph glyph-name="endash" unicode="&#x2013;" horiz-adv-x="739" 
d="M86 217v87h567v-87h-567z" />
    <glyph glyph-name="emdash" unicode="&#x2014;" horiz-adv-x="1272" 
d="M86 304h1100v-87h-1100v87z" />
    <glyph glyph-name="underscore" unicode="_" horiz-adv-x="898" 
d="M119 -141v71h660v-71h-660z" />
    <glyph glyph-name="quotesinglbase" unicode="&#x201a;" horiz-adv-x="230" 
d="M58 -113l43 113h-45v113h118v-113l-54 -113h-62z" />
    <glyph glyph-name="quotedblbase" unicode="&#x201e;" horiz-adv-x="408" 
d="M58 -113l43 113h-45v113h118v-113l-54 -113h-62zM236 -113l43 113h-45v113h118v-113l-54 -113h-62z" />
    <glyph glyph-name="quotedblleft" unicode="&#x201c;" horiz-adv-x="408" 
d="M56 526v113l54 113h62l-43 -113h45v-113h-118zM234 526v113l54 113h62l-43 -113h45v-113h-118z" />
    <glyph glyph-name="quotedblright" unicode="&#x201d;" horiz-adv-x="408" 
d="M58 525l43 113h-45v113h118v-113l-54 -113h-62zM236 525l43 113h-45v113h118v-113l-54 -113h-62z" />
    <glyph glyph-name="quoteleft" unicode="&#x2018;" horiz-adv-x="230" 
d="M172 752l-43 -113h45v-113h-118v113l54 113h62z" />
    <glyph glyph-name="quoteright" unicode="&#x2019;" horiz-adv-x="230" 
d="M58 525l43 113h-45v113h118v-113l-54 -113h-62z" />
    <glyph glyph-name="guillemotleft" unicode="&#xab;" horiz-adv-x="605" 
d="M338 487l-198 -222l198 -222h-105l-198 222l198 222h105zM571 487l-198 -222l198 -222h-105l-198 222l198 222h105z" />
    <glyph glyph-name="guillemotright" unicode="&#xbb;" horiz-adv-x="605" 
d="M34 43l198 222l-198 222h105l198 -222l-198 -222h-105zM267 43l198 222l-198 222h105l198 -222l-198 -222h-105z" />
    <glyph glyph-name="guilsinglleft" unicode="&#x2039;" horiz-adv-x="372" 
d="M338 487l-198 -222l198 -222h-105l-198 222l198 222h105z" />
    <glyph glyph-name="guilsinglright" unicode="&#x203a;" horiz-adv-x="372" 
d="M34 487h105l198 -222l-198 -222h-105l198 222z" />
    <glyph glyph-name="quotedbl" unicode="&#x22;" horiz-adv-x="471" 
d="M133 425l-21 193v133h88v-133l-21 -193h-46zM292 425l-21 193v133h88v-133l-21 -193h-46z" />
    <glyph glyph-name="quotesingle" unicode="'" horiz-adv-x="312" 
d="M133 425l-21 193v133h88v-133l-21 -193h-46z" />
    <glyph glyph-name="space" unicode=" " horiz-adv-x="265" 
 />
    <glyph glyph-name="uni2009" unicode="&#x2009;" horiz-adv-x="200" 
 />
    <glyph glyph-name="cent" unicode="&#xa2;" horiz-adv-x="548" 
d="M213 0v106c-122 27 -186 125 -186 247c0 125 65 219 186 245v107h107v-104c107 -16 178 -85 184 -180h-87c-15 74 -64 107 -142 107c-106 0 -160 -70 -160 -175c0 -106 52 -177 160 -177c78 0 127 42 142 94h87c-9 -73 -69 -150 -184 -167v-103h-107z" />
    <glyph glyph-name="currency" unicode="&#xa4;" horiz-adv-x="679" 
d="M103 65l-76 76l88 80c-25 38 -38 84 -38 134c0 49 12 94 35 131l-85 78l76 76l77 -72c42 25 92 39 149 39c64 0 118 -17 161 -47l86 80l76 -76l-98 -90c17 -35 26 -75 26 -119c0 -45 -10 -86 -29 -123l100 -91l-75 -76l-91 82c-41 -29 -95 -46 -156 -46
c-55 0 -104 14 -144 39zM328 178c106 0 164 70 164 177c0 105 -58 175 -164 175c-105 0 -162 -70 -162 -175c0 -107 57 -177 162 -177z" />
    <glyph glyph-name="dollar" unicode="$" horiz-adv-x="750" 
d="M714 201c0 -132 -109 -200 -290 -205v-143h-97v148c-205 25 -282 139 -292 251h90c25 -97 65 -150 202 -164v247c-156 29 -278 64 -278 203c0 144 131 200 278 209v106h97v-108c212 -22 272 -148 279 -275h-88c-15 126 -72 174 -191 186v-244c164 -31 290 -69 290 -211z
M138 545c0 -72 64 -92 189 -114v228c-93 -3 -189 -25 -189 -114zM424 84c114 3 203 25 203 110c0 78 -76 100 -203 121v-231z" />
    <glyph glyph-name="Euro" unicode="&#x20ac;" horiz-adv-x="794" 
d="M606 -16c-209 0 -321 97 -365 230h-179l20 74h141c-3 24 -5 48 -5 73c0 9 0 17 1 26h-127l21 73h114c32 156 144 278 379 278c36 0 90 -3 135 -11v-88c-33 6 -91 12 -135 12c-165 0 -254 -82 -286 -191h270l-19 -73h-262c-1 -9 -1 -19 -1 -28c0 -24 2 -48 7 -71h247
l-21 -74h-203c42 -85 127 -143 267 -143c45 0 103 6 136 12v-88c-45 -8 -99 -11 -135 -11z" />
    <glyph glyph-name="sterling" unicode="&#xa3;" horiz-adv-x="623" 
d="M35 -1v86c79 6 212 86 207 184c-1 19 -6 36 -15 52h-191v76h133c-42 46 -89 92 -89 158c0 68 44 183 307 183c64 0 111 -7 160 -24v-80c-21 8 -77 28 -155 28c-88 0 -219 -25 -219 -114c0 -51 53 -96 96 -151h237v-76h-193c8 -20 14 -41 14 -65c2 -91 -68 -160 -131 -171
v-2h407v-84h-568z" />
    <glyph glyph-name="yen" unicode="&#xa5;" horiz-adv-x="786" 
d="M759 724l-286 -419h125v-64h-160v-56h160v-64h-160v-121h-91v121h-159v64h159v56h-159v64h125l-286 419h103l263 -389l262 389h104z" />
    <glyph glyph-name="cent.tf" horiz-adv-x="794" 
d="M351 0v106c-170 27 -257 125 -257 248c0 125 90 219 257 245v107h107v-104c144 -16 240 -85 248 -180h-87c-23 74 -92 107 -205 107c-156 0 -231 -70 -231 -175c0 -107 72 -178 231 -178c113 0 181 42 204 94h88c-12 -73 -92 -150 -248 -167v-103h-107z" />
    <glyph glyph-name="currency.tf" horiz-adv-x="795" 
d="M139 65l-76 76l94 80c-27 38 -43 84 -43 135c0 49 13 94 40 131l-91 78l76 76l82 -72c46 25 101 39 164 39c71 0 132 -17 179 -47l92 80l76 -76l-105 -90c18 -35 28 -75 28 -119c0 -46 -11 -87 -32 -124l108 -91l-75 -76l-98 82c-46 -29 -104 -46 -173 -46
c-61 0 -115 14 -158 39zM384 178c120 0 183 70 183 178c0 105 -63 175 -183 175c-118 0 -180 -70 -180 -175c0 -108 62 -178 180 -178z" />
    <glyph glyph-name="dollar.tf" horiz-adv-x="794" 
d="M714 201c0 -132 -109 -200 -290 -205v-143h-97v148c-205 25 -282 139 -292 251h90c25 -97 65 -150 202 -164v247c-156 29 -278 64 -278 203c0 144 131 200 278 209v106h97v-108c212 -22 272 -148 279 -275h-88c-15 126 -72 174 -191 186v-244c164 -31 290 -69 290 -211z
M138 545c0 -72 64 -92 189 -114v228c-93 -3 -189 -25 -189 -114zM424 84c114 3 203 25 203 110c0 78 -76 100 -203 121v-231z" />
    <glyph glyph-name="Euro.tf" horiz-adv-x="795" 
d="M607 -16c-210 0 -321 97 -366 230h-179l20 74h141c-3 24 -5 48 -5 73c0 10 0 18 1 27h-127l21 73h114c32 156 145 278 380 278c36 0 89 -3 134 -11v-88c-32 6 -91 12 -134 12c-166 0 -255 -82 -287 -191h270l-19 -73h-262c-1 -9 -1 -20 -1 -29c0 -24 2 -48 7 -71h247
l-20 -74h-203c41 -85 127 -143 266 -143c45 0 104 6 136 12v-88c-45 -8 -98 -11 -134 -11z" />
    <glyph glyph-name="sterling.tf" horiz-adv-x="794" 
d="M86 -1v86c96 6 259 86 249 184c-2 19 -11 36 -23 52h-225v77h158c-50 46 -106 92 -106 158c0 68 46 183 351 183c73 0 128 -7 183 -24v-80c-25 8 -88 28 -178 28c-103 0 -262 -25 -262 -114c0 -51 63 -96 116 -151h278v-77h-228c11 -20 19 -41 21 -65
c5 -91 -81 -160 -156 -171v-2h473v-84h-651z" />
    <glyph glyph-name="yen.tf" horiz-adv-x="795" 
d="M766 724l-288 -419h127v-64h-162v-56h162v-64h-162v-121h-92v121h-160v64h160v56h-160v64h125l-287 419h104l266 -389l263 389h104z" />
    <glyph glyph-name="plus" unicode="+" horiz-adv-x="618" 
d="M562 292v-67h-220v-197h-67v197h-219v67h219v196h67v-196h220z" />
    <glyph glyph-name="minus" unicode="&#x2212;" horiz-adv-x="618" 
d="M562 227h-506v67h506v-67z" />
    <glyph glyph-name="multiply" unicode="&#xd7;" horiz-adv-x="518" 
d="M462 119l-47 -48l-157 140l-155 -140l-47 48l155 139l-155 139l48 47l154 -138l156 138l46 -47l-154 -139z" />
    <glyph glyph-name="divide" unicode="&#xf7;" horiz-adv-x="644" 
d="M258 402v113h122v-113h-122zM572 224h-506v67h506v-67zM258 0v113h122v-113h-122z" />
    <glyph glyph-name="equal" unicode="=" horiz-adv-x="760" 
d="M127 347v67h506v-67h-506zM127 128v67h506v-67h-506z" />
    <glyph glyph-name="notequal" unicode="&#x2260;" horiz-adv-x="676" 
d="M591 347h-182l-55 -152h237v-67h-260l-44 -128h-80l44 128h-166v67h189l55 152h-244v67h264l40 111h80l-40 -111h162v-67z" />
    <glyph glyph-name="greater" unicode="&#x3e;" horiz-adv-x="566" 
d="M70 0v83l395 236l-395 236v80l431 -265v-102z" />
    <glyph glyph-name="less" unicode="&#x3c;" horiz-adv-x="567" 
d="M495 0l-431 268v102l431 265v-80l-395 -236l395 -236v-83z" />
    <glyph glyph-name="greaterequal" unicode="&#x2265;" horiz-adv-x="641" 
d="M121 67h455v-67h-506v107l449 216l-427 216v71l462 -236v-102z" />
    <glyph glyph-name="lessequal" unicode="&#x2264;" horiz-adv-x="642" 
d="M519 67l-433 205v102l462 236v-71l-427 -216l449 -216v-107h-506v67h455z" />
    <glyph glyph-name="plusminus" unicode="&#xb1;" horiz-adv-x="619" 
d="M57 0v67h218v158h-219v67h219v196h67v-196h220v-67h-220v-158h221v-67h-506z" />
    <glyph glyph-name="approxequal" unicode="&#x2248;" horiz-adv-x="738" 
d="M484 299c-108 0 -142 95 -216 95c-27 0 -73 -14 -73 -74v-16h-68v15c0 74 54 137 140 137c109 0 143 -95 221 -95c28 0 55 13 55 68v12h68v-10c0 -65 -38 -132 -127 -132zM484 109c-108 0 -142 95 -216 95c-27 0 -73 -14 -73 -74v-16h-68v15c0 74 54 137 140 137
c109 0 143 -95 221 -95c28 0 55 13 55 68v12h68v-10c0 -65 -38 -132 -127 -132z" />
    <glyph glyph-name="asciitilde" unicode="~" horiz-adv-x="738" 
d="M484 299c-108 0 -142 95 -216 95c-27 0 -73 -14 -73 -74v-16h-68v15c0 74 54 137 140 137c109 0 143 -95 221 -95c28 0 55 13 55 68v12h68v-10c0 -65 -38 -132 -127 -132z" />
    <glyph glyph-name="logicalnot" unicode="&#xac;" horiz-adv-x="618" 
d="M495 30v197h-439v67h506v-264h-67z" />
    <glyph glyph-name="asciicircum" unicode="^" horiz-adv-x="525" 
d="M376 380l-113 284l-113 -284h-83l143 327h106l141 -327h-81z" />
    <glyph glyph-name="emptyset" unicode="&#x2205;" horiz-adv-x="785" 
d="M582 509c79 -50 127 -133 127 -237c0 -173 -127 -288 -316 -288c-50 0 -95 7 -134 21l-83 -129h-75l101 159c-79 50 -126 133 -126 237c0 173 127 288 317 288c48 0 93 -7 132 -21l83 129h75zM140 272c0 -78 35 -141 95 -180l257 390c-30 9 -63 14 -99 14
c-151 0 -253 -90 -253 -224zM393 48c151 0 252 90 252 224c0 78 -35 141 -96 180l-257 -390c30 -9 64 -14 101 -14z" />
    <glyph glyph-name="infinity" unicode="&#x221e;" horiz-adv-x="965" 
d="M249 84c-125 0 -222 81 -222 203c0 121 97 201 222 201c98 0 179 -47 233 -121c55 74 135 121 234 121c125 0 222 -80 222 -201c0 -122 -97 -203 -222 -203c-99 0 -180 48 -234 122c-54 -74 -134 -122 -233 -122zM258 148c86 0 151 55 187 138c-38 87 -102 138 -185 138
c-88 0 -162 -54 -162 -138c0 -83 71 -138 160 -138zM708 148c88 0 159 55 159 138c0 84 -75 138 -162 138c-85 0 -149 -51 -187 -138c36 -83 101 -138 190 -138z" />
    <glyph glyph-name="integral" unicode="&#x222b;" horiz-adv-x="624" 
d="M508 776c38 0 67 -6 66 -6l-15 -85s-12 3 -36 3c-62 0 -92 -22 -100 -67l-121 -621c-21 -109 -78 -169 -185 -169c-39 0 -68 6 -67 6l16 85c1 0 14 -3 35 -3c62 0 92 22 101 67l121 621c21 109 77 169 185 169z" />
    <glyph glyph-name="product" unicode="&#x220f;" horiz-adv-x="831" 
d="M109 -116v876h613v-876h-85v789h-443v-789h-85z" />
    <glyph glyph-name="summation" unicode="&#x2211;" horiz-adv-x="831" 
d="M711 673h-517l247 -331l-247 -371h528v-87h-613v97l237 361l-237 321v97h602v-87z" />
    <glyph glyph-name="radical" unicode="&#x221a;" horiz-adv-x="786" 
d="M734 760v-87h-154l-310 -787h-92l-163 383h103l82 -212l24 -57h2l22 57l266 703h220z" />
    <glyph glyph-name="partialdiff" unicode="&#x2202;" horiz-adv-x="721" 
d="M346 -16c-161 0 -262 92 -262 239c0 164 129 270 288 270c120 0 179 -57 210 -112c5 199 -65 306 -228 306c-96 0 -200 -38 -212 -162h-80c20 143 140 235 304 235c202 0 293 -135 293 -376c0 -288 -138 -400 -313 -400zM349 56c137 0 204 94 204 195
c0 95 -61 167 -185 167c-118 0 -203 -67 -203 -187c0 -106 66 -175 184 -175z" />
    <glyph glyph-name="percent" unicode="%" horiz-adv-x="1058" 
d="M209 340c-134 0 -194 99 -194 218s60 218 194 218c133 0 193 -99 193 -218s-60 -218 -193 -218zM216 -16l507 792h75l-507 -792h-75zM208 401c84 0 123 70 123 157s-39 157 -123 157c-83 0 -122 -70 -122 -157s39 -157 122 -157zM815 -9c-136 0 -194 102 -194 218
s58 218 194 218c137 0 194 -102 194 -218s-57 -218 -194 -218zM815 56c86 0 122 74 122 153s-36 153 -122 153s-122 -74 -122 -153s36 -153 122 -153z" />
    <glyph glyph-name="perthousand" unicode="&#x2030;" horiz-adv-x="1550" 
d="M209 340c-136 0 -194 102 -194 218s58 218 194 218c137 0 194 -102 194 -218s-57 -218 -194 -218zM230 -16l507 792h75l-508 -792h-74zM209 405c86 0 122 74 122 153s-36 153 -122 153s-122 -74 -122 -153s36 -153 122 -153zM815 -9c-136 0 -194 102 -194 218
s58 218 194 218c137 0 194 -102 194 -218s-57 -218 -194 -218zM1307 -9c-136 0 -194 102 -194 218s58 218 194 218c137 0 194 -102 194 -218s-57 -218 -194 -218zM815 56c86 0 122 74 122 153s-36 153 -122 153s-122 -74 -122 -153s36 -153 122 -153zM1307 56
c86 0 122 74 122 153s-36 153 -122 153s-122 -74 -122 -153s36 -153 122 -153z" />
    <glyph glyph-name="arrowup" unicode="&#x2191;" horiz-adv-x="526" 
d="M238 0v595l-153 -126l178 291l178 -291l-154 126v-595h-49z" />
    <glyph glyph-name="uni2197" unicode="&#x2197;" horiz-adv-x="1009" 
d="M119 0l-34 39l701 625l-213 8l351 88l-99 -322l-7 185z" />
    <glyph glyph-name="arrowright" unicode="&#x2192;" horiz-adv-x="930" 
d="M85 319h595l-126 153l291 -178l-291 -178l126 154h-595v49z" />
    <glyph glyph-name="uni2198" unicode="&#x2198;" horiz-adv-x="1009" 
d="M119 760l699 -623l7 185l99 -322l-351 88l213 8l-701 625z" />
    <glyph glyph-name="arrowdown" unicode="&#x2193;" horiz-adv-x="526" 
d="M238 760h49v-595l154 126l-178 -291l-178 291l153 -126v595z" />
    <glyph glyph-name="uni2199" unicode="&#x2199;" horiz-adv-x="1009" 
d="M890 760l34 -39l-701 -625l213 -8l-351 -88l99 322l7 -185z" />
    <glyph glyph-name="arrowleft" unicode="&#x2190;" horiz-adv-x="930" 
d="M845 319v-49h-595l126 -154l-291 178l291 178l-126 -153h595z" />
    <glyph glyph-name="uni2196" unicode="&#x2196;" horiz-adv-x="1009" 
d="M890 0l-699 623l-7 -185l-99 322l351 -88l-213 -8l701 -625z" />
    <glyph glyph-name="arrowboth" unicode="&#x2194;" horiz-adv-x="1233" 
d="M1148 294l-291 -178l126 154h-733l126 -154l-291 178l291 178l-126 -153h733l-126 153z" />
    <glyph glyph-name="arrowupdn" unicode="&#x2195;" horiz-adv-x="526" 
d="M263 0l-178 291l153 -126v430l-153 -126l178 291l178 -291l-154 126v-430l154 126z" />
    <glyph glyph-name="lozenge" unicode="&#x25ca;" horiz-adv-x="530" 
d="M213 -16l-198 327l198 327h106l196 -327l-196 -327h-106zM266 27l168 284l-168 284l-168 -284z" />
    <glyph glyph-name="at" unicode="@" horiz-adv-x="1089" 
d="M620 -158c-332 0 -553 194 -553 482c0 265 189 443 473 443c288 0 482 -185 482 -466c0 -184 -85 -309 -211 -309c-96 0 -170 72 -170 192c-25 -61 -73 -88 -136 -88c-113 0 -192 88 -192 222c0 132 73 220 185 220c59 0 105 -25 134 -63v49h96v-311
c0 -86 35 -141 87 -141c64 0 108 90 108 215c0 237 -154 392 -384 392c-221 0 -373 -140 -373 -354c0 -233 180 -387 452 -387h86v-96h-84zM521 169c66 0 107 55 107 136v22c0 82 -41 136 -107 136s-112 -57 -112 -145c0 -90 46 -149 112 -149z" />
    <glyph glyph-name="ampersand" unicode="&#x26;" horiz-adv-x="727" 
d="M691 0h-96l-51 65c-49 -39 -132 -65 -219 -65c-173 0 -290 109 -290 255c0 115 76 204 185 242l-117 146v117h483v-87h-396l118 -147c42 9 109 15 168 15h46v-84h-46c-35 0 -82 -3 -119 -7l176 -228c12 36 21 96 21 148h92c1 -90 -20 -185 -52 -238zM326 84
c67 0 130 22 166 56l-224 285c-81 -26 -142 -86 -142 -169c0 -97 81 -172 200 -172z" />
    <glyph glyph-name="paragraph" unicode="&#xb6;" horiz-adv-x="825" 
d="M549 0h-101v342h-148c-85 0 -230 20 -230 207c0 191 154 211 244 211h235v-760zM639 0v760h101v-760h-101z" />
    <glyph glyph-name="section" unicode="&#xa7;" horiz-adv-x="578" 
d="M451 197c56 -21 92 -64 92 -118c0 -89 -94 -154 -237 -154c-153 0 -268 74 -278 188h97c16 -62 81 -107 183 -107c78 0 141 26 141 66c0 51 -100 76 -162 91c-90 21 -244 55 -244 163c0 52 37 98 89 119c-51 18 -89 60 -89 116c0 89 93 155 229 155
c155 0 253 -84 261 -202h-96c-10 74 -72 121 -167 121c-79 0 -133 -31 -133 -67c0 -51 106 -76 164 -88c56 -11 242 -45 242 -161c0 -54 -39 -100 -92 -122zM137 342c0 -47 70 -87 173 -96c91 -8 139 15 139 54c0 49 -76 87 -169 97c-85 9 -143 -13 -143 -55z" />
    <glyph glyph-name="copyright" unicode="&#xa9;" horiz-adv-x="843" 
d="M422 124c-216 0 -360 131 -360 327s144 327 360 327c215 0 359 -131 359 -327s-144 -327 -359 -327zM422 162c194 0 322 116 322 289c0 174 -128 289 -322 289c-193 0 -323 -115 -323 -289c0 -173 130 -289 323 -289zM436 273c-108 0 -176 71 -176 178
c0 106 68 179 171 179c84 0 149 -49 153 -125h-38c-10 50 -57 83 -116 83c-78 0 -130 -55 -130 -137s51 -136 132 -136c60 0 106 28 114 68h38c2 -64 -62 -110 -148 -110z" />
    <glyph glyph-name="registered" unicode="&#xae;" horiz-adv-x="592" 
d="M296 358c-140 0 -234 85 -234 213c0 129 94 214 234 214s234 -85 234 -214c0 -128 -94 -213 -234 -213zM296 392c121 0 202 72 202 179c0 109 -81 180 -202 180s-203 -71 -203 -180c0 -107 82 -179 203 -179zM222 469v207h79c38 0 77 -14 77 -61c0 -38 -26 -55 -81 -57
l92 -89h-43l-91 88v-88h-33zM255 586h46c25 0 43 8 43 29c0 24 -20 31 -43 31h-46v-60z" />
    <glyph glyph-name="trademark" unicode="&#x2122;" horiz-adv-x="442" 
d="M179 760v-23h-65v-167h-20v167h-64v23h149zM354 760h23v-190h-21v132l-47 -132h-35l-48 132v-132h-20v190h23l61 -164z" />
    <glyph glyph-name="degree" unicode="&#xb0;" horiz-adv-x="467" 
d="M234 537c-79 0 -132 48 -132 119c0 72 53 120 132 120c78 0 130 -48 130 -120c0 -71 -52 -119 -130 -119zM234 585c44 0 74 28 74 71s-30 71 -74 71c-45 0 -75 -28 -75 -71s30 -71 75 -71z" />
    <glyph glyph-name="bar" unicode="|" horiz-adv-x="351" 
d="M127 -240v1000h97v-1000h-97z" />
    <glyph glyph-name="brokenbar" unicode="&#xa6;" horiz-adv-x="351" 
d="M127 355v408h97v-408h-97zM127 -240v445h97v-445h-97z" />
    <glyph glyph-name="dagger" unicode="&#x2020;" horiz-adv-x="610" 
d="M257 -240v335h-205v67h205v598h97v-598h204v-67h-204v-335h-97z" />
    <glyph glyph-name="daggerdbl" unicode="&#x2021;" horiz-adv-x="634" 
d="M570 301h-204v-139h204v-67h-204v-335h-97v335h-205v67h205v139h-205v67h205v392h97v-392h204v-67z" />
    <glyph glyph-name="uni0308" unicode="&#x308;" 
d="M-300 670v90h85v-90h-85zM-140 670v90h84v-90h-84z" />
    <glyph glyph-name="uni0307" unicode="&#x307;" 
d="M-144 640c-40 0 -72 30 -72 69c0 37 32 67 72 67c39 0 73 -30 73 -67c0 -39 -34 -69 -73 -69z" />
    <glyph glyph-name="gravecomb" unicode="&#x300;" 
d="M-284 760h134l119 -175h-71z" />
    <glyph glyph-name="acutecomb" unicode="&#x301;" 
d="M-20 760l-181 -175h-72l119 175h134z" />
    <glyph glyph-name="uni030B" unicode="&#x30b;" 
d="M-249 760l-181 -175h-72l119 175h134zM-20 760l-181 -175h-72l119 175h134z" />
    <glyph glyph-name="uni0302" unicode="&#x302;" 
d="M-56 585h-74l-111 116l-113 -116h-74l130 175h112z" />
    <glyph glyph-name="uni030C" unicode="&#x30c;" 
d="M-56 760l-130 -175h-112l-130 175h74l113 -116l111 116h74z" />
    <glyph glyph-name="uni0306" unicode="&#x306;" 
d="M-138 760h85c0 -105 -79 -175 -199 -175c-119 0 -199 70 -199 175h85c0 -61 46 -101 114 -101c69 0 114 40 114 101z" />
    <glyph glyph-name="uni030A" unicode="&#x30a;" 
d="M-162 604c-56 0 -93 34 -93 86c0 50 37 83 93 83s93 -33 93 -83c0 -52 -37 -86 -93 -86zM-162 652c24 0 41 15 41 37s-17 36 -41 36c-25 0 -42 -14 -42 -36s17 -37 42 -37z" />
    <glyph glyph-name="tildecomb" unicode="&#x303;" 
d="M-315 740c65 0 91 -62 133 -62c25 0 43 22 43 57h71c0 -88 -45 -130 -103 -130c-74 0 -96 63 -136 63c-24 0 -40 -23 -40 -58h-71c0 75 44 130 103 130z" />
    <glyph glyph-name="uni0304" unicode="&#x304;" 
d="M-86 643h-345v77h345v-77z" />
    <glyph glyph-name="uni0312" unicode="&#x312;" 
d="M-78 811l-45 -113h46v-113h-122v113l56 113h65z" />
    <glyph glyph-name="uni0326" unicode="&#x326;" 
d="M-175 -240l37 170h88l-70 -170h-55z" />
    <glyph glyph-name="uni0327" unicode="&#x327;" 
d="M-159 -51h14c52 0 86 -26 86 -65c0 -46 -41 -76 -97 -76h-63v47h55c30 0 50 11 50 28c0 15 -20 25 -50 25h-44v41l74 75h58z" />
    <glyph glyph-name="uni0328" unicode="&#x328;" 
d="M-99 -202c-90 0 -125 47 -125 89c0 64 79 106 101 120h51c-62 -44 -81 -78 -81 -104c0 -27 24 -43 72 -43c9 0 19 0 33 2v-61c-14 -2 -31 -3 -51 -3z" />
    <glyph glyph-name="uni0335" unicode="&#x335;" 
d="M-86 227h-345v77h345v-77z" />
    <glyph glyph-name="uni0336" unicode="&#x336;" 
d="M-86 304v-77h-689v77h689z" />
    <glyph glyph-name="uni0337" unicode="&#x337;" 
d="M-358 363l319 198v-107l-319 -198v107z" />
    <glyph glyph-name="uni0338" unicode="&#x338;" 
d="M-704 -116l613 876h86l-613 -876h-86z" />
    <glyph glyph-name="acute" unicode="&#xb4;" horiz-adv-x="304" 
d="M137 760l-181 -175h-72l119 175h134z" />
    <glyph glyph-name="breve" unicode="&#x2d8;" horiz-adv-x="503" 
d="M284 760h85c0 -105 -79 -175 -199 -175c-119 0 -199 70 -199 175h85c0 -61 46 -101 114 -101c69 0 114 40 114 101z" />
    <glyph glyph-name="caron" unicode="&#x2c7;" horiz-adv-x="484" 
d="M312 760l-130 -175h-112l-130 175h74l113 -116l111 116h74z" />
    <glyph glyph-name="cedilla" unicode="&#xb8;" horiz-adv-x="281" 
d="M121 -51h14c52 0 86 -26 86 -65c0 -46 -41 -76 -97 -76h-63v47h55c30 0 50 11 50 28c0 15 -20 25 -50 25h-44v41l74 75h58z" />
    <glyph glyph-name="circumflex" unicode="&#x2c6;" horiz-adv-x="484" 
d="M314 585h-74l-111 116l-113 -116h-74l130 175h112z" />
    <glyph glyph-name="dieresis" unicode="&#xa8;" horiz-adv-x="462" 
d="M101 670v90h85v-90h-85zM261 670v90h84v-90h-84z" />
    <glyph glyph-name="dotaccent" unicode="&#x2d9;" horiz-adv-x="287" 
d="M4 640c-40 0 -72 30 -72 69c0 37 32 67 72 67c39 0 73 -30 73 -67c0 -39 -34 -69 -73 -69z" />
    <glyph glyph-name="grave" unicode="`" horiz-adv-x="304" 
d="M28 760h134l119 -175h-71z" />
    <glyph glyph-name="hungarumlaut" unicode="&#x2dd;" horiz-adv-x="533" 
d="M284 760l-181 -175h-72l119 175h134zM513 760l-181 -175h-72l119 175h134z" />
    <glyph glyph-name="macron" unicode="&#xaf;" horiz-adv-x="517" 
d="M380 643h-345v77h345v-77z" />
    <glyph glyph-name="ogonek" unicode="&#x2db;" horiz-adv-x="284" 
d="M184 -202c-90 0 -125 47 -125 89c0 64 79 106 101 120h51c-62 -44 -81 -78 -81 -104c0 -27 24 -43 72 -43c9 0 19 0 33 2v-61c-14 -2 -31 -3 -51 -3z" />
    <glyph glyph-name="ring" unicode="&#x2da;" horiz-adv-x="323" 
d="M65 604c-56 0 -93 34 -93 86c0 50 37 83 93 83s93 -33 93 -83c0 -52 -37 -86 -93 -86zM65 652c24 0 41 15 41 37s-17 36 -41 36c-25 0 -42 -14 -42 -36s17 -37 42 -37z" />
    <glyph glyph-name="tilde" unicode="&#x2dc;" horiz-adv-x="483" 
d="M94 740c65 0 91 -62 133 -62c25 0 43 22 43 57h71c0 -88 -45 -130 -103 -130c-74 0 -96 63 -136 63c-24 0 -40 -23 -40 -58h-71c0 75 44 130 103 130z" />
    <glyph glyph-name="uni0308.case" 
d="M-737 905v90h85v-90h-85zM-577 905v90h84v-90h-84z" />
    <glyph glyph-name="uni0308.case2" 
d="M-548 905v90h85v-90h-85zM-388 905v90h84v-90h-84z" />
    <glyph glyph-name="uni0308.ss01" 
d="M-300 659c-27 0 -52 22 -52 52c0 27 25 49 52 49c33 0 53 -22 53 -49c0 -30 -24 -52 -53 -52zM-146 659c-29 0 -53 22 -53 52c0 27 24 49 53 49c31 0 52 -22 52 -49c0 -30 -25 -52 -52 -52z" />
    <glyph glyph-name="dieresiscomblower" horiz-adv-x="731" 
d="M243 791v90h85v-90h-85zM403 791v90h84v-90h-84z" />
    <glyph glyph-name="NULL" 
 />
    <glyph glyph-name="CR" horiz-adv-x="265" 
 />
    </font>
</defs>
</svg>
